/* XPM */
static char *result[] = {
/* columns rows colors chars-per-pixel */
"64 64 256 2 ",
"   c #171017",
".  c #2A1619",
"X  c #18271D",
"o  c #171825",
"O  c #2B1D27",
"+  c #162E31",
"@  c #2E2B2C",
"#  c #34252B",
"$  c #253628",
"%  c #382A36",
"&  c #273636",
"*  c #3A353A",
"=  c #55301F",
"-  c #4C352D",
";  c #46373C",
":  c #254D38",
">  c #30433A",
",  c #544B35",
"<  c #6E4F38",
"1  c #5A6828",
"2  c #0D394C",
"3  c #193845",
"4  c #253B45",
"5  c #3A3746",
"6  c #353549",
"7  c #453C46",
"8  c #4E3E48",
"9  c #0F4F57",
"0  c #1A4756",
"q  c #27454A",
"w  c #36514F",
"e  c #264959",
"r  c #384556",
"t  c #28545A",
"y  c #13546E",
"u  c #1A5869",
"i  c #3B4B67",
"p  c #324E6E",
"a  c #245364",
"s  c #2A5867",
"d  c #23556A",
"f  c #245A6C",
"g  c #355A68",
"h  c #275C73",
"j  c #395777",
"k  c #296367",
"l  c #32686D",
"z  c #296379",
"x  c #376679",
"c  c #49444B",
"v  c #53464A",
"b  c #525344",
"n  c #484959",
"m  c #554C56",
"M  c #485658",
"N  c #55545A",
"B  c #72594C",
"V  c #4E7156",
"C  c #716E53",
"Z  c #464D64",
"A  c #524F62",
"S  c #465766",
"D  c #555867",
"F  c #465B77",
"G  c #575C73",
"H  c #605E67",
"J  c #4A6669",
"K  c #536E6F",
"L  c #486878",
"P  c #586776",
"I  c #48747A",
"U  c #646878",
"Y  c #6D7171",
"T  c #9D5F3B",
"R  c #895546",
"E  c #8F6A52",
"W  c #98765A",
"Q  c #8E7967",
"!  c #A47C62",
"~  c #708F4F",
"^  c #588673",
"/  c #728D6F",
"(  c #629161",
")  c #889356",
"_  c #B58B5B",
"`  c #908E70",
"'  c #AD9071",
"]  c #91AC70",
"[  c #B3AD77",
"{  c #C4945E",
"}  c #C49C70",
"|  c #CDAC7A",
" . c #A0C378",
".. c #115E83",
"X. c #385B86",
"o. c #0D668C",
"O. c #096894",
"+. c #276788",
"@. c #376885",
"#. c #2A6B94",
"$. c #366D94",
"%. c #317391",
"&. c #39769A",
"*. c #2C75A7",
"=. c #3678A5",
"-. c #486A86",
";. c #5A6A85",
":. c #497689",
">. c #567889",
",. c #4A7299",
"<. c #567897",
"1. c #5D769D",
"2. c #636B87",
"3. c #677788",
"4. c #6C7A90",
"5. c #4A77A5",
"6. c #587DA6",
"7. c #3E829D",
"8. c #3382AF",
"9. c #3986BB",
"0. c #4E848E",
"q. c #5A8599",
"w. c #658498",
"e. c #788897",
"r. c #719090",
"t. c #7DA290",
"y. c #538DAF",
"u. c #5A88A8",
"i. c #6587A8",
"p. c #748AA6",
"a. c #6594A9",
"s. c #7796AA",
"d. c #6B8AB2",
"f. c #6496B7",
"g. c #769BB8",
"h. c #7CA3A7",
"j. c #78A2BA",
"k. c #388BC8",
"l. c #6D97C4",
"z. c #73A7C6",
"x. c #8A8D8D",
"c. c #8B9598",
"v. c #979B97",
"b. c #A89986",
"n. c #B39C88",
"m. c #A49C91",
"M. c #96B68E",
"N. c #99A598",
"B. c #AAAC8F",
"V. c #B8A488",
"C. c #B5A897",
"Z. c #B8B597",
"A. c #8798A9",
"S. c #949BA7",
"D. c #9299AF",
"F. c #849DB6",
"G. c #A79EA8",
"H. c #89A5A9",
"J. c #98A4A9",
"K. c #96B5AF",
"L. c #86A3BA",
"P. c #98A7B5",
"I. c #A6A8A9",
"U. c #B2B1AA",
"Y. c #A7AAB9",
"T. c #A9B5BB",
"R. c #B9B9B9",
"E. c #C8AF89",
"W. c #C6B799",
"Q. c #E5BD83",
"!. c #C6BAA7",
"~. c #C9BBB0",
"^. c #92C080",
"/. c #B0C891",
"(. c #AECAAF",
"). c #D2CB92",
"_. c #E6D397",
"`. c #CFCDAC",
"'. c #C9C7B8",
"]. c #D6CAB9",
"[. c #D6D4B8",
"{. c #E5D1B1",
"}. c #DCE5A1",
"|. c #F1EAAF",
" X c #849FC0",
".X c #86A9C5",
"XX c #96ACC5",
"oX c #8CB2CC",
"OX c #97B4C8",
"+X c #87AFD3",
"@X c #99BAD6",
"#X c #A7B0C7",
"$X c #A6B8C8",
"%X c #B8BAC3",
"&X c #A4BED7",
"*X c #C1BBCB",
"=X c #9BC1DD",
"-X c #B9C5C9",
";X c #B0C9CA",
":X c #A9C4D8",
">X c #B6C7D9",
",X c #B0CAE3",
"<X c #BAD4E6",
"1X c #C7C8C9",
"2X c #D3CDC8",
"3X c #CDD3C7",
"4X c #D8D7CA",
"5X c #C7CBD6",
"6X c #D3CDD8",
"7X c #CCD5D7",
"8X c #DCDCD3",
"9X c #D5D9D9",
"0X c #E6DAC8",
"qX c #E3DDCC",
"wX c #E3DDD4",
"eX c #C9E7CD",
"rX c #DCE3D9",
"tX c #EAE9CE",
"yX c #E4E3D4",
"uX c #ECE3D4",
"iX c #E4E3DB",
"pX c #EAE6DB",
"aX c #E5EADD",
"sX c #ECEBDD",
"dX c #F2EADA",
"fX c #F5F2DD",
"gX c #C8DAE6",
"hX c #D6D9E3",
"jX c #D1D7E9",
"kX c #E2DCE3",
"lX c #DDE3E3",
"zX c #D9E6EA",
"xX c #CFE9F2",
"cX c #D7E9F5",
"vX c #E5E5E5",
"bX c #E4EBE4",
"nX c #EDEDE3",
"mX c #E5ECEB",
"MX c #ECEDEA",
"NX c #F7EBE4",
"BX c #F2EDE4",
"VX c #F2EEEA",
"CX c #E7F2E7",
"ZX c #EEF1E4",
"AX c #EDF2EC",
"SX c #F3F1E5",
"DX c #F3F3EB",
"FX c #F9F5EB",
"GX c #F9F8EA",
"HX c #E8EFF2",
"JX c #EDF3F3",
"KX c #EAF6F8",
"LX c #F3F5F3",
"PX c #F5FAF4",
"IX c #F7F8F7",
"UX c #FBFAF4",
/* pixels */
"L.F.P.>X>X5XOXP.g.g.g.j.j.oXoX;X-X(.1X-X-X>XT.;X$X$X;XK.(.T.M.^.B. .M.] H. .M.M.M.] / t./ ^.t.r.f.y.y.q.u.y.a.a.y.f.a.i.s.g.s.j.",
"F.g.L.L.L.h.j.j.j.g.j.z..XoX;X3XGX{.'.DXJXJXJXLXJXLXKXIXUX[.).[ ` }.) /././.ZXM.U.~ /.xX] M.[.s.f.f.h.L.L.L.oXL.OXL.L.XX&X$XOX$X",
"L.j.z.F.j.g.j.j.j.j.g.L.oX;X;X'.UXR.P.S.J.H.x.e.r.e.A.F.F.A.L.P.K.P.T.P.N.#XI./.N./ x.V C / S.M.XXOXK.OXT.OX#XOX$X:X:X:X>X:X>X<X",
"L..X.X.XoXoX.XoX.X.XL.L.OX;X>X3XUXN.P.c.S.e.e.A.c.A.F.A.A.A.S.P.&X#X$X#X#X#XS.Y.%X%XD.*XJ.K.'.] $X.XF..XA.F.L.F.F.A.T.Y.P.L.P.L.",
"6 :X:X>X<X,X,X,X<X$X:X$X$X>X<X4XGXN.-X2XrX3X1X9X9XkXHXHXnXDXiXwXUXUXLXUXDXSXMX%XvX1X8XFXNXK.tX] H.L.F.L.F.g.g.F.F.A.].< - m v.G.",
"n >X&X:X:X>X>X,X,X<X<X,X<XgXzXCXGXm.(.qXSXSXqXrXwXwXVX~.tX2X[.'.`.wXLXNXBXpXVXNXGXyXyXGXdXN.eX/ ^ s.p.p.d.e.p.d.A.c.W.} E.E B < ",
"r @X@X&X,X,X@X XoX.XoX.XoX>XgXKXfXv.%XqXDXwXyXwXwXwXVXnXwXdXdXAXVXpXnXVXSXdXNXBXiXqXZXGXDXI.` / h.g.d.z.L.j.s.s.XX5Xv.B B W } | ",
"5X=X@XoXoXoXz.oXF..X.Xj.L.OX;XzXfXN.T.yXAX~.U.U.U.R.v.U.I.2X~.].8X2XR.%X1X*XI.U.R.'.CXGXDXU./.] K.oX:X=X@X:X&X+X.X XL.L.M.U.C.W ",
"; U.jXcXxXxXcXcXcXgXgX,X:X:X$XzXGXN.T.qXGXaXPXDXPXAXAXLXc.aXfXsXnX2XIXMXPXnXLXVX6X6XFXIXUX~.N./ K.oXl.g.g.g.j.z.oXoX(.M.~ ( (.~ ",
"= . v 7 Z N n D A 2.XXOX>XgXgXHXfXv.T.dXMXvXSXsXnXDXfXmXD.qXsXNXuX~.IXVXfXNXVX].G.6XNXUXGX*XB.` gX,X.X.Xg.g..X:XgX-X .~ ~ ] ) Y ",
"Q # ; ; 8 % % % M P.5X<X<X>X<XCXfXN.T.DXAXvXDXSXNXSXfXlXP.yXdXDXuXm.JXVXSXSXVX0XG.6XNXPXIXC.` ] gX<X:X=X=X<XzXzXcXzX`.) /.[ ' / ",
"G H 8 7 7 % P U S gX:X@XXXOX:XzXGXv.T.FXDXvXLXMXDXAXZXHXY.4XSXDXdXm.JXVXDXDXLXdXG.1XnXUXIXC.] ( : (.gXcXKXJXCXmXmXzX(./.).V.E.) ",
"G A m v ; 8 G G s.l.4.w.g.z.OXzXGXv.Y.UXVX%XI.U.I.I.J.S.%XwXnXDXsX9XS.I.S.T.5X*XD.6XnXGXUX' B.K.t.;X=X:XXX$X$X#XXXp.^ ~ ) ).).` ",
"I.c c v 7 % 4.2.1.6.;.S g.@X@XzXGXc.P.GXVXvXkXlXlXlXMXlX8X2XyXyXwXnXlXvX1X7X6XkXkXkXDXAXPXb.(.V ( z.y.y.u.u.L.p.;Xe.r.`._.).).) ",
"G.8 ; ; 7 6 P.S A.l.U A @X:X>XCXGXc.P.UXBXnXVXSXnXnXFXnXsXdXsXdXSXFXDXSXNXnXyXNXNXiXBXUXPXC.IX/ (.$XH.H.J.U.4XU.qX[.(.[.).).}.] ",
"8 v v v m m A N H D H Y 3.x.J.4XGXx.H.UXBXVXSXNXuXE.' W.'.0XdXNX!.V.E.2XNX0X`.].dXwXnXLXIXB.GX/ B.[.'.'.(.Z.Z.Z.B.B.[ ` E C C B ",
"7 ; 7 % # # . # # # # ; 8 B Y ].FXc.P.PXAX1XR.'.b.` n.b.Y.0X].2XpX8X~.%X%XR.R.R.1X2XDXDXUX' GX~ ] V.` W.!.W.!.!.Z.!.` [.`.E.).C.",
"  # O O # . . O O O # % 8 H Y 1XUXc.P.PXAXlXMXMXBXAXIXVXA.VXbX0XDX7XKXMXnXLXJXvX%X1XSXIXUX' fX/ J J M > w J M w > M M [ `.`.[.` ",
"O 7 % 7 m # ; % 5 5 % * A H 3.1XUXS.P.LXLXlXMXMXDXZXVX9XY.VXNXyXGX7XIXnX0XSXDXAX%X6XVXUXDX' DX^ :.;.K M V K J J w b > @ $ * , c ",
"6 7 7 % 7 @ @ 7 Z Z Z D 2.p.G.9XUXS.$XFXLX8XnXBXBXBXNXMX#XBXNXyXLX1XKXBX0XSXBXBXY.jXBXGX[ n.PXr.^ >.;.^ x.x.x.v.~ C 1 @ > , b b ",
"n % # - * ; * D 2.2.2.2.p.P.&XzXUXA.$XDXJXhXDXNXSXDXLXvX#XnXSXyXLX9XLXnXwXSXNXBX*XhXvXFX{.n.UX/ ^ :.-.>.[.tX|.|._.}.[ = B W C , ",
"N v % ; % . @ D 2.2.P D 4.D.#XhXUXc.$XZXJXlXSXSXDXSXNXbXT.BXpXpXDX3XIXnXsXBXLXnX~.6XnXIXUXm.UX/ I -.L J 3.}.|.|._.|.[ 1 , , < 1 ",
"Z c ; m 7 # % G 2.A v m H c.XX6XUXp.#XZXJXvXDXVXDXDXFXbX$XnX4XfXSX7XIXnXpXNXVXVX*XkXpXFXDXC.SXH.a.r.I K 0.x.E.|.|.|.[ _.).| _.[ ",
"A N v m m O % 7 n 7 7 8 m 4.A.5XUXp.#XAXAXvXSXNXDXDXNXbX$XnXSXnXGX5XLXnXnXNXVXVX*XkXvXFXGXU.GXY N N M > N , ' ) [ ).C [ ).}._.Z.",
"6 D m D D # O 7 7 8 8 7 8 2.D.jXUXs.T.DXHXvXnXNXSXSXSXaX$XBXdXnXSX1XLXZXsXSXSXnX%X6XpXUXIX*XPXJ 4 4 3 + o + O & > : 4 C }.}.|.V.",
"O c N G H O % % % O % 6 n 2.A.5XUXp.#XBXLXvXyX0XFXSXdX8X#XBXdXDXDX5XJXsXdXNXSXnXY.hXwXIXUXU.JXI 0 0 0 0 0 2 0 + & > 0 M ` [._.W.",
"o O H G A #       o o o O Z 1.*XIXs.$XDXIXvXqXfXbXSXVXbX#XbXsXnXGX5XJXBXBXNXnXnXY.6XpXFXMXR.UXm o   o o 3 4 e 2 q 0 4 S M `.|.Z.",
"6 A U U A #   % 8 6 n n A 2.1.6XIXp.#XpXLXkXuXSXpXSXNXvX#XnXNXnXBX1XAXnXdXSXSXZX#XhXnXUXSX1XGXM 4 & +     o 0 0 e 0 q F J Z.}.).",
"6 G G G U % . 6 Z 6 n A n ;.p.jXIXs.#X4XIXhXqXuXiXVXvXvX&XNXBXVXGX5XmXiX2XSXsXAXY.9XpXUXGXI.PXI :.:.j q & O   a y e 3 J J Z.|.`.",
"7 2.2.2.2.%   5 n A 7 n G 4.d.jXIXw.XXqXLXkXVXMXlXvXhX1X%XnXnXNXDX1XcX1XiXiXrXMXY.7XbXLXUXI.GXM i q & q 4 r X o h x q J K `.|.`.",
"6 2.2.2.2.7   # 7 % % 7 Z 2.4.5XUXw.Y.wXLXx.x.S.P.c.P.c.%XaXfXwXwX1XS.x.v.S.c.c.P.4XiXUXUXU.PX3.g P 3.r e e r X P >.q J L N.tX`.",
"6 1.<.2.;.7   U G 6 8 Z Z 1.p.6XIXw.e.0XiX8XnXMXnXDXDXMXDXwXwXNXdXDXAXnXnXMXAXJXMX8XiXLXIXN.IXJ -.x S + q s w @ > 0.J g -.P M.[.",
"n 1.1.<.;.5   r.3.6 A Z G 1.d.5XUXw.c.[.MXuXwXnXuXsXnXfXSXZXnXVXNXSXsXdXdXdXuX0X].0XBXDXUXv.PXJ g q q n S w g & X w.I q >.;.K N.",
"n 1.w.3.K * . 3.r.6 i Z F p.g.gXIXY U.).1XyX0XaXaXpXBXBXSXSXsXnXAXnXnXaXpXsX~.{.' uXVXDXUXI.IXM + + o + + 4 q $ $ q.0.: K <.:.K ",
"n 6.i.1.P c O e.e.r F X.-.d.z.jXIX3.(.C S.MXiXvXpXnXDXDXDXDXDXSXMXUXDXMXDXVXNXuX[.0XDXDXUXJ.IXS 2 o + 2 + g <.& $ 0.q.k q >.,.P ",
"Z 6.i.3.K q + 6 r Z r F -.l.+XgXUX4.K < 2.gXiXnXpXbXnXnXMXBXsXBXBXVXNXBXBXBXNXfX!.qXBXFXUXm.UXL 2 2 + + 3 I @.+ $ q.q.^ : 0.<.<.",
"Z 1.d.-.J r r i p Z j X.u.j.+X<XPXe.3./ 6.u.HXnXZXSXBXJXLXVXBXVXfX8X4XBXVXNXwXdXkXwXBXVXUX` IXL 9 2 2 3 4 e j & : q.0.a.q I <.q.",
"-.<.d.1.L F p X.,.X.X.d.y.j..X(.IXw.4.A.6.X.D.-X1X%X1X1Xx.4XwXkXR.4X6X1X1X6X9X2X6X1XBXDXUXQ FXI y 2 2 + a e @.: $ a.q.q.k t q.q.",
"L <.i.6.>.F j j 6.@.d. X5.l.+XK.>X1. XnXjX-.7XvXmXLXVXHXS.nXnXVXSX2XMXMXVXwX~.1XY.6XSXDXIX' fXI y 9 2 2 a e x & $ q.^ a.I + q.0.",
"-.-.i.6.J F X.u.+Xd.+X=Xy.l.oX(.H.6.XXVXKXxXHXZXnXJXMXHXP.BXZXnXAX9XIXMXDXnX].].%X6XSXAXIX' SX0.y y y 2 s p x 4 + r.k y.y.: :.x ",
"2.-.6.1.3.j j <.6.5.6.d.l.XX(.^.K.d.u.gXKXjXAXAXnXvXDXAXP.nXDXnXAX7XLXDXSXDXsXqXR.5XnXVXUX` UX:.y y y y x p z t : V J I :.V w.0.",
"F j p p i j i p X.X.X.,.<.>.(.eXoXd.@XKXKXhX8XCXrXDXnXcXP.nXMXnXDX7XIXDXDXDXDXaXY.5XVXFXsXb.UX0.O.o...y f y y u t : $ $ & X X $ ",
"G 4.F 4.4.2.4.p.;.F -.;.<.F.K.(.L.f.l.gXJXxX4XDXnXiXLXzXP.JXDXnXDX7XKXJXSXJXSX].T.5XmXFXSXb.PX7.O.O.O...%...y y x q > : $ X : l ",
"A 6 r Z p i r 5 6 r S S L ;.r./.:Xf.l.i.KX9XaXAXmXAXAXlXD.DXLXMXLX7XIXAXLXAX8X'.Y.1XAXDXAXb.PX7.8.O.O.o.o.O.O.o.k s q & $ $ q 0.",
"G 1.6.<.-.p i Z P ;.>.<.a..XM./.cXa.l.u.cX9X9XKXAXZXJXrXP.AXDXSXbX7XIXAXKXJX4X].T.6XNXpXwX' PX,.O.8.O.y o.o.o.y z z x q $ $ 2 l ",
"F <.6.<.2.;.i Z i g F X.-.>.t.(..Xf.z.@X.X9XrXJXAXZXLXlXD.DXZXsXzX7XIXGXGXaX].[.Y.R.0X!.|.` DXh.z.z.f.9.y.7.7.y.f.y.f.l l w t k ",
"D A G A A Z Z Z D D G F G P N.(.XXw.h.@X:XjXlXAXAXZXPX5XP.MXSXR.aX9XKXAX!.).2X2XY.1X`.} Q.E uXs.q.a.q.0.x x %.%.%.%.0.%.K l g M ",
"* * * * 7 5 7 7 * r N D G S / / eX( r.=XzXzXrXAXAXZXAXlXD.DXGX'.bX7XKXGX_ | 0XW.T.7XdX| Q.' yXP k g k k I 0 k t k k k t t 9 9 9 ",
"w V Y D n U 4.3.s.c.4.r.s.H.c.r.M.r.l.@XKXzXaXAXAXZXLXmXD.aXGX`.bX6XKXNX{ Q.].'.c.7X].V._.n.4Xt.a.0.7.I z k z k k k k t 9 9 9 y ",
"q w t w g p j @.:.5.:.-.$.0.(  . .r.+XgXKXzXrXZXLXAXLXzXF.rXqXV.ZX7XVXE.{ | qX8XP.6X[.!.fXN.LX>.z 7.7.l z u u z k 9 t u k u k k ",
"t t t s u h h +.#.*.=.=.8.7.^ ( ] q.5.jXKXhXlXCXPXAXDXHXH.pX{.| JX7XuX{ _.{.].2XH.5XyXfXGX1XLXq.y.8.7.z @.@.@.@.%.k z h k f u k ",
"q u a f u u h z #.*.*.=.%.7.^.M.w.<.5.cXHXlXbXmXJXHXFXvXP.0XE | AXhXLX| ' ' !.].P.9XaXmXKX%XPXa.9.8.8.%.@.@.z +.z z z u f u u u ",
"0 a d d u d u h +.*.*.*.&.&.( ] V l y..XxXgX4XaXAXCXwX8XA.pX{ _ aXgXbX' {.{ ' 2XY.9XAXmXKXT.IXf.9.y.7.+.@.z j x p h d d d a a a ",
"t f s d d d h ..+.#.#.*.#.@.M.~ M.I 0.=.6.xX].uXAXbXpXJXP.NX0XV.sXrXNX_ tX! E.0XY.-XrXCXHXT.KXf.k.9.8.+.+.x z g h h s a a a s a ",
"s h f u d f h z +.#.#.#.5.V ) ) ~ V $.5.d.vXMXlXPXbXAXmX#XbXmXuXbXhXVXV.].GX].C.H.hXbX7XrXR.PXf.9.9.8.#.@.@.h a s s d s d d s a ",
"t d d d d h h +.o.#.#.#.:.B = ` ] -.=.$.XXe.e.A.s.e.Y P P.mXmXnXbX9XY 3.4.c.e.x.3.7XaX8XuXI.PXu.8.8.*.+.z s s a e e e a a d a e ",
"s d h y h +.+.#.#.#.#.>.v = , C l l 5.u.d.g lX9X9XlXbXnXbXCXbXrXrXiXiXiXiXiXvXiXzX9XbX[.` I.AXa.9.9.9.$.@.x x h s s d s s s d s ",
"a h ..h h h #.*.*.#.#.G R = ) ) ~ t %.0.s.r 7XmXCXnXZXCXnXiXAXAXrX8X3X3X3X8XrXrXCX6XCX3XfXT.PXp.k.9.9.&.$.$.@.x x x h h s s g g ",
"a h +.e.!.x.S.;.q.Y.(.E.< = $ , }.( 6.-.Y ~.hXHXCXbXCX1XyXrX'.rXrXaXaXrXrX8X2XlXrX7XvXeXLXY.PXw.k.k.9.9.=.=.$.x @.@.x g g g g g ",
"v.I.j x.T < = R R E < R < B , ] [ ( i.1.e.! 0X~.aXzXZXBX].[.qX].qX4XqXrX8X9X3X8X4X2XpXaX9XI.PXq.8.9.8.=.&.=.$.@.@.@.@.g g g g g ",
"' _.m.Q ! T W E E C x.n.n.n.W ` V I F e.G = `.uXCXbXnXyX[.dXuX].'.'.wX8X(.8X2X'.4XwX' sX3X` LXx.m.` wXR.u.5.y.u.f.y.u.<.I L l l ",
"B C x.B R R W < Q E !.n.[.C B ] V i P !.x., n.SXCXCXCXSX'.pXGXDXyX4X2X1X8X8XrX4X4X2Xn.NX'.Q bXQ T T W ' >.&.$.q.f.f.f.a.<.@.x L ",
"4 C.! W ! ! W ' ! = Q B C ~.Y ] C H N D C.' n.U.5X'.!.m.n.!.V.b.R.!.C.n.n.n.V.W.' } { {.C.E qXB E ! E R <.u.q.w.w.u.q.q.w.>.3.w.",
"C.R B ! B = = = - B E.} ' U.Z.Q 6XqX4XI.c.lXyX`.V.!.].sXsXdXsXuXyXyX0X{.~.~.W.!.E.V.E.!.].' qXB ` - E , L L U r.N.c.c.N.x.x.v.v."
};
