/* XPM */
static char *result[] = {
/* columns rows colors chars-per-pixel */
"64 64 215 2 ",
"   c #1E3729",
".  c #1F3B38",
"X  c #2C3B33",
"o  c #284329",
"O  c #29433E",
"+  c #384A31",
"@  c #54483C",
"#  c #48533A",
"$  c #525E35",
"%  c #505F3C",
"&  c #55653B",
"*  c #38494F",
"=  c #4D4948",
"-  c #475747",
";  c #4D5C43",
":  c #4A5A4C",
">  c #525C45",
",  c #4A5D55",
"<  c #575D5A",
"1  c #6A5A46",
"2  c #4C684C",
"3  c #516444",
"4  c #54634B",
"5  c #5D6848",
"6  c #596756",
"7  c #696C53",
"8  c #626C5B",
"9  c #776959",
"0  c #424F61",
"q  c #4B5B66",
"w  c #585E65",
"e  c #556364",
"r  c #5A6364",
"t  c #586B64",
"y  c #54636B",
"u  c #59666A",
"i  c #526A6D",
"p  c #5C6A6B",
"a  c #536A73",
"s  c #5A6A76",
"d  c #5B6D74",
"f  c #5D7179",
"g  c #666965",
"h  c #646C6B",
"j  c #647464",
"k  c #617268",
"l  c #76746A",
"z  c #7B796D",
"x  c #646E73",
"c  c #6B6F73",
"v  c #697276",
"b  c #6C7374",
"n  c #757575",
"m  c #7C7A73",
"M  c #737579",
"N  c #73797B",
"B  c #7B7B7C",
"V  c #827869",
"C  c #817C72",
"Z  c #817E7B",
"A  c #7D807E",
"S  c #868276",
"D  c #82817D",
"F  c #7C7D81",
"G  c #7D8181",
"H  c #7A868C",
"J  c #7B8692",
"K  c #7D8C93",
"L  c #798998",
"P  c #828383",
"I  c #898682",
"U  c #8C8A85",
"Y  c #81838A",
"T  c #85898C",
"R  c #8C8D8C",
"E  c #948F88",
"W  c #8D978C",
"Q  c #96968A",
"!  c #92928C",
"~  c #838C94",
"^  c #8B8F93",
"/  c #868E99",
"(  c #918F93",
")  c #859797",
"_  c #8B9193",
"`  c #85929C",
"'  c #8A949C",
"]  c #939394",
"[  c #969893",
"{  c #9C9C95",
"}  c #969799",
"|  c #96999B",
" . c #9A9C9C",
".. c #A39D94",
"X. c #AA9E93",
"o. c #A19E99",
"O. c #8CA090",
"+. c #98A399",
"@. c #9CA09E",
"#. c #A7A596",
"$. c #A4A29C",
"%. c #A9A49C",
"&. c #B6A89D",
"*. c #ACB69C",
"=. c #8594A1",
"-. c #8B96A1",
";. c #879AA5",
":. c #889BAE",
">. c #959CA1",
",. c #9C9EA1",
"<. c #A19FA0",
"1. c #97A0A7",
"2. c #9EA1A2",
"3. c #A3A4A4",
"4. c #AAA6A2",
"5. c #A6A9A4",
"6. c #AAA9A5",
"7. c #A5A7A9",
"8. c #A7A9AB",
"9. c #ABACAC",
"0. c #B2ADA4",
"q. c #B1AEAC",
"w. c #AFB6A6",
"e. c #AEB1AE",
"r. c #B7B6AA",
"t. c #B4B3AD",
"y. c #BBB5AA",
"u. c #ADAEB0",
"i. c #AEB3B2",
"p. c #AFBAB6",
"a. c #B4B5B4",
"s. c #B9B5B2",
"d. c #B5B9B3",
"f. c #BABAB5",
"g. c #B5B6B8",
"h. c #B8B6B9",
"j. c #B6B9B9",
"k. c #BBBBBB",
"l. c #C6B29E",
"z. c #C2B6AB",
"x. c #C4B9AA",
"c. c #C4BBB3",
"v. c #C2BCB9",
"b. c #B5C1A9",
"n. c #BBC3B6",
"m. c #CFC0A3",
"M. c #C9C0B6",
"N. c #C1C3BE",
"B. c #C8C7BA",
"V. c #D5CAB3",
"C. c #CBD1BB",
"Z. c #B5BCC3",
"A. c #BDBEC1",
"S. c #C0BEC1",
"D. c #B5C1C6",
"F. c #BDC1C3",
"G. c #BBC5CC",
"H. c #BDC6D2",
"J. c #C2C2C2",
"K. c #C7C7C7",
"L. c #C4CAC5",
"P. c #C9CAC6",
"I. c #C1C9CD",
"U. c #CBCCCB",
"Y. c #CED3C6",
"T. c #CED3CE",
"R. c #D9D4C4",
"E. c #D2D1CD",
"W. c #DCD5CA",
"Q. c #C4CBD3",
"!. c #CCCFD1",
"~. c #CED1D2",
"^. c #C7D3DB",
"/. c #CBD4DD",
"(. c #D3D4D4",
"). c #DAD7D2",
"_. c #D7D9D6",
"`. c #DBDAD5",
"'. c #D4D7DA",
"]. c #D6D9DA",
"[. c #DBDCDC",
"{. c #E2D8CA",
"}. c #E5DED5",
"|. c #E9DED3",
" X c #E2DFDD",
".X c #DCE1CD",
"XX c #DDE1DC",
"oX c #EAE0D5",
"OX c #E3E1DE",
"+X c #EBE4DB",
"@X c #CBD5E1",
"#X c #CDD8E1",
"$X c #D4DBE3",
"%X c #DCDFE0",
"&X c #DDE1E2",
"*X c #DEE5EA",
"=X c #E4E5E3",
"-X c #E9E7E3",
";X c #E7E9E6",
":X c #EBE9E6",
">X c #E7E7E8",
",X c #E7E8E8",
"<X c #ECECEB",
"1X c #F1ECE5",
"2X c #F1EEEB",
"3X c #EEF1ED",
"4X c #F2F1ED",
"5X c #E5ECF2",
"6X c #EDF2F3",
"7X c #F5F5F3",
"8X c #F8F7F5",
"9X c #F7F8F7",
"0X c #F8F8F6",
"qX c #F7F8F8",
"wX c #F8F8F8",
/* pixels */
", - % : , : & 2 - : % 6 ; 3 3 % & 5 7 g h x x x c c c v b b g B B g b b b v x c x x x p h 8 5 & % & % ; 6 % > - : & ; , , ; ; , ",
"w P.#.*.L.w.*.L.b.XXC.B.b.b.R.B.C.Y.E.`.&X[.[.$X].].'.'._.W.C.S C {.}.&X[.%X%X&X=X&X=X>X-X`.Y.R.U..Xn.B.C.Y.<Xn.T.b.b.T.*.%.`.e ",
"4 i.p.b.p.n.d.N.Y.I.Q.I.I.I.H.Q.H.G.D.G.G.G.Z.Z.F.D.I.G.I.G.F.I Z n.G.J.G.I.D.Z.Z.Z.Z.H.H.Z.H.H.Q.H.I.I.I.Q.I.U.B.d.n.i.n.p.j.4 ",
"5 d.H F G B A B B F P F P Y G Y B N N N N N N M b c b n b N @.D D 3.b c c g h b c v M c c M b M F F G G M F B M N N M G N G d.5 ",
"& w.3.`.4X<X[.<X>X2X:X2X<X3X2X3X<X<X<X<X<X<X<X<X<X;X=X<X<X .$.D C 3. .4X7X2X4X7X3X7X7X8X7X7X7X7X0X7X7X0X8X4X8X3X8X=X4X8X+X5.p.$ ",
"6 _ 7.OX7X7X7X7X8X7X8X7X7X8X4X2X2X4X4X7X<X7X7X3X3X7X7X7X4X3.2.z l 3.@.4X7X7X7X2X7X4XwX<X4X4X4X2X<X2X7X7X7X8X7X8X8X4X7X7X=X9.[ 6 ",
"% +.6.OX7X7X3X7X4X7X7X7X8X8X8X8X8X7X4X7X8X7X2X7X2X7X2X7X4X$.2.l l 3.| 4X8X3X7X<X3X7X8X8X7X4X7XqX8X7X7X7X7X7X4X3X4X3X8X8X=X9.+.> ",
"> #.t.OX8X7XJ.o.} } } } } } K.<X2X1X2X8.( R ] R ! R ] =X4X2.@.z z @. .7X-XU T U U T P U $.4X1X1X7XK.] ( ] ] ! ] | f.8X8X=Xt.%.& ",
"> $.9.=X7X7Xk.h.(. X[.[. Xu.v.7X7X7X4X,.K. X=X=XOX=X} XX4X2.@.z z @. .4X=X( <X<X>X<X=XE.} 7X7X7X8Xv.9.=X=X X&X[.a.a.7X7X>Xq.5.> ",
"5 w.9.OX8X8Xh.h.-X7X7XqX8Xh.h.4X8X7X4X2.(.7X8X7X7X8X|  X8X3.@.m z @.| 8X-X] 8X8X8X8X7X'.} 4X4X8X7Xh.h.8X8X8X8X2Xk.h.7XqX=X6.y.6 ",
"# E 4.=X8X7Xk.h.:X8X8XwX0Xh.s.4X8X7X7X<.(.6X8X8X0X0X| OX8X@.@.z z @.+.7X=X] wX8X8XwX7X'. .7X7X7X4Xs.g.7X8X8X8X2Xk.h.7X7X:X4.Q # ",
"- { 4.=X7X7Xh.h.<X8X8X8XwXf.k.4X7X7X2X<.(.7X8X0X0X0X| XX8X2.@.m z @.| 0X=X} wX8X0X7X7X[. .1X8X8X7Xk.h.wXwXwX8X2Xk.f.8X8X<X%.+.- ",
"j $.$.=X8X8Xh.} <.<.,.,.2.T k.4X7X7X2X3.}  .<.,.<.<.P [.7X2.,.m m ,.| 8X=XB } } } | } (  .2X7X8X7XJ.P | }  . . .( h.7XwX-Xo.4.k ",
": 5.$.=X8XwX&X(.(.~.~.E.(.(.=X7X7X7X2X[.(.(.(.(.(.(.(.2X7X2.| B m | | 9X4X]._._._._._.'.[.4X4X7X4X:X_._.(.(.(._.'.=X7X7X<Xo.w.: ",
"4 d.6.=X7X7X2X3X4X2X4X7X7X4X7X8X7X4X8X7X7X7X7X2X4X7X3X7X8X2.| m m | | 9X7X7X7X7X4X7X8X7X8X8X4X7X8X8X7X7X7X4X4X7X7X4X8X8X>X6.k.6 ",
"8 d.%.=XwX7X4X8X1X1X4X7X1X+X+X:X7X8X2X1X+X{.|.2X7X7X7X7X8X@.| m m | } 9X7X7X7X7X1X}.}.|.1X2X8X8X-X+X X1X7X2X1X:X7X2X8X8X>X%.f.6 ",
"8 r.%.=X7X7X_.K.J.k.J.k.J.k.[.4X4X4X3XK.q.q.q.q.a.a.a.<X7X,.| B B >.| qX<Xa.q.a.q.9.6.q.k.4X<X4X7X[.k.v.k.k.S.v.J.(.7X8X<X4.s.8 ",
"8 t.$.=X0X7Xh.3.9.a.a.a.a. .F.4X4X7X7X5.9.v.A.A.J.k.R :XqX2.,.B B >.| qX<XT A.J.v.J.S.9.2.7X7X2X8XJ.} g.t.g.g.9.,.a.7X8X>XX.r.j ",
"p d.#.=X8X8Xh.k.;X7X7X4X7Xj.J.7X4X7X7X7.U.3X7X7X7X7X] =X7X3.>.P Z ,.,.7X<XR 8XwX8XqX8XU.3.7X7X4X0XJ.a.8X7X8X8X<XA.h.8X8X-X..f.k ",
"j d...W.7X7Xk.A.<X7X8X7X8Xh.J.7X4X8X8X5.U.7X0X7X0X8X] ,X7X1.,.G B ,.,.7X<XR 8X8X8X8X8X!.7.7X8X4X8XJ.a.7X8XwX8X3XA.h.3X7X)...f.k ",
"j s.X. X7X4Xk.S.<X8X8X7X8Xh.A.7X7X8X7X7.U.7XwX7X0X8X] =X7X7. .B B >.,.7X<XR 7X8XwXwXqX~.3.7X7X7X7XJ.d.qX7X7XwX3XJ.h.7X8X+XX.k.j ",
"h f.4.=X7X7Xh.S.<X8X8X7X8Xh.F.7X7X3X7X7.!.7X8X8X0XwX] =XqX2.| P G >.,.7X<X^ 8X8XwX0X7X~.,.7X7X7X8XJ.g.8X7XwX8X3XS.a.7XqX>X4.v.h ",
"b f.6.=X7X7Xk.S.<X8X8X8X8Xj.J.7X7X2X7X7.U.8X8XwX8XwX_ >X7X2.-.G F -. .7X<XR wX8X8X8X7XE.3.8X2X7X7XJ.a.8X0X8X0X4XJ.g.7X7X:X8.n.b ",
"g d.8.=X7X8Xh.S.<X8XqX8X8Xj.F.4X7X7X8X7.U.8XwX8X8X7X} =X7X2.-.B B ' ,.7X<X( 8X8X8X8X8X~.3.7X8X7X8XF.g.7X0X8XwX<XS.h.7X7X:X4.f.g ",
"r a.9.=X7X7Xh.A.<X7X0X8X8Xj.J.7X7X7X7X8.U.8X8X8X8X8X] =X7X2.-.P P ' | 7X<XR 8X0XwX0X8X~.3.8X7X7X7XS.a.7XqX8X8X2XS.g.3X8X>X9.h.p ",
"t d.8.=X0X7Xh.A.<X0X8X8X0Xh.J.7X8X7X8X5.U.3X8X8X8X7X} =XqX2.-.P P -.,.7X<X^ 7X8XwX8X7XU.<.8X7X7X7XJ.a.8X8X8X8X3XA.g.7X8X>X7.f.u ",
"< a.9.=X7X7Xh.A.<X8X8X8X7Xh.A.4X8X4X7X7.U.7XwX8X8X7X( =X7X2.-.P P -. .qX<XR 7X8X8X8X8X!.7.7X7X7X7XJ.a.7X8X8X8X3XA.g.7X8X-X9.k.< ",
"< a.t.=X7X7Xh.A.<X8X8X8X7Xf.J.7X4X7X8X7.U.8XwX7X8X7X] >X7X2.-.P A -.| 7X3XU 7X8X7X7X8X(.,.8X8X7X7XJ.g.qX8X8X8X3XA.h.4X8X>Xa.k.6 ",
"p f.5.=X8X7Xh.A.<X8XqX7X7Xg.A.7X7X8X8X7.U.3X7X8X8X7X] >X7X,.' G P =.} 7X3XR 7X8X8X7X7X!.3.7X7X7X7XS.d.7X7X8X8X3XA.g.7X7X-X4.k.u ",
"w s.6.=X7X7Xh.g.XX=X=X>X=Xa.A.8X7X8X8X7.S.>X<X<X<X<X] =X7X,.` B m ` | 8X3XR <X>X<X<X>XJ.7.7X7X7XqXJ.8.=X=X=X=X[.g.a.7XqX>X8.k.< ",
"g a.8.=X7X7XS.8.a.g.j.j.d.,.J.2X4X7X7Xq.7.g.a.g.a.s.Y :X7X .` P P ` } 7X2XP u.a.g.q.a.<.8.7X8X7X3XK. .a.a.d.a.a.7.k.7X7X-X8.k.h ",
"e g.5.=X7X3X[.U.P.P.P.P.K.K. X7X7X4X4X'.U.K.K.K.P.K.J.:X7X} ^ G B / ( 7X<XK.K.K.K.K.U.U.`.2X2X7X7X=XU.K.U.K.U.U.U.[.7X7X:X3.k.r ",
"w g.3.=X7X8X1X1X4X4X4X4X4X7X7X8X8X7X8X7X4X4X4X4X4X4X4X4X4X{ ' M n ' [ 4X7X4X4X8X4X7X7X4X8X7X8X7X8X7X7X4X7X7X7X2X1X1X8X8X>X<.k.r ",
"r s.6.&X7X8X2X+X1X1X4X7X7X7X7X7X4X7X7X7X8X8X7X7X7X`.y.y.M.{ ^ B B ~ { M.r.&.).7X7X7X7X8X7X8X7X7X4X8X8X7X4X7X1X1X|.2X4X8X>X3.v.w ",
"w a.7.=X4X8X2X2X7X7X7X8X7X7X0X7X0X8X8X7X8X7X7X7X3XR.V.m.x.[ _ F F ^ Q y.l.V.R.<X7X7X7X7X8X0X8X7X7X8X8X8X7X8X8X4X7X1XwX7X=X5.h.r ",
"r a.4.&X7X8X2X:X7X8X7X8X7X7X0X7X7X7X8X7X7X7X4X7X8X`.x.#.0.D / P Z / D 4.&.r.`.7X7X7X7X7X7X7X7X7X7X8X7X7X7X7X8X8X1X1X8X8X:X5.k.r ",
"u f.$.=X7X7X2X4X8X4X8X8X7X7X4X7X7X7X0X8X7X7X8X7X7X7X'.Q.'.R / G G / T [.~.'.9X7X7X7X7X7X7X8X7X7X7X4X4X8X8X8X4X8X7X<X7X8X;X$.f.u ",
"e a.$.=X8X7XU.8.o.3.<.o.o.<.K.=X4X4X2Xu.| } | } } } K G.%X~ / G G ' Y *XH.H ( _ ( ^ ] } 7.<X7X6X:XL.| | } {  . .3.J.7X8X>X$.f.y ",
"t q.%.=X7X7XS.u.P.~.'._._.u.d.7X7X7X7X3.J.[.[.[.[.].T ~.7X>.` N N ` _ 7X'.Y XX&X=X=X[.K.,.7X7X7X7Xk.e.[.[.`.(.U.9.k.7X7X:X4.t.e ",
"p w.%.=X7X7Xh.h.-X2X7X7X7XA.k.7X7X7X7X3.~.6X7X7X9X9X,.[.7X>.=.d u =.>.7X&X| 8X8X7X8X7X_.,.7X7X7X7Xk.k.wX8X8X7X-Xk.h.7X8X,X%.r.p ",
"d t.4.=X7X7Xk.k.-X7XwX0X0XJ.h.7X7X8X7X2.~.6X7X8XqXqX2.].6X' =.y y =.~ 6X[.| qXqX8XqX7X(.,.7XqX7X7Xk.k.qX8XqX8X:Xk.h.7XqX>X%.f.d ",
"a g.%.OX7X7Xk.h.,X8XwXwX7XJ.j.7X7X7X7X7.~.7XwX7X8X7X@.[.qX2.:.q 0 :.>.qXXX} 7XqX7XwX7X(.,.7X7X7X7Xk.k.qXwX8XqX,Xh.j.7X7X-X$.f.a ",
"a a.$.OX7XqXk.k.-XqXwXwXqXJ.k.7X7X7XqX2.!.7X7X7X8X7X2.[.6X-.:.q q :.` 7X&X| 7XqX7X7X7X~.2.qXqX7XqXk.A.qXwXwX8X<XA.g.7X7X-X$.f.a ",
"a a.$.=X7X7Xj.k.=X7XwXwX8XF.k.7XqX8X7X7.U.7XwXwXqX8X,.].&X=.:.y q :.~ $X[.| 9XqXqXqX7X~.,.7X7X7X7Xk.n.8XwXwX7X<Xk.g.7XqX=X$.k.a ",
"a f.$.`.7X7Xk.k.=X7XqXwX8XF.k.7X8XqXqX<.U.3X8XqXqX7X2.].#X` :.f f :.L #X&X .7XqXqXwX7X~.,.7X7X7X7Xk.k.wXqXqX7X:Xh.h.8X8X[.$.k.i ",
"f t.$.{.4X4Xk.h.-X7X7X8X8XJ.j.3X7XqX7X7.!.7XqX8XqX7X2.~.$X>.;.d s :.>.$X/.| 7XqX0XqX7X(.,.7X7X7X7XZ.k.wX0X8X7X:Xh.g.1X7X}.#.f.x ",
"h t.X.R.oX-Xh.k.-X4X4X7XwXJ.A.<X<X7XqX<.!.3XqXqXwX7X,.Q.5X| ;.q 0 ;.) <X!.| 7X8X8X8X7X~.,.qX8X<X7Xk.k.wX7X4X7X:Xk.j.+X|.{...y.p ",
"r %...W.+X7Xk.h.-X7X1X:X7XF.k.3X<X7X7X3.U.7XqX8X0X7X2.].*X) W 6 4 O.~ *X%X| 7X8XwXqX7X~.,.7X7X<X7XA.n.wX+X1X7X:Xh.j.7X+X{...0.e ",
"x $.#.W.+X1Xk.j.=X4X4X1X8XN.h.7X4X8X7X3.~.7XwXqX8X8X2.].5X' +.k t +.L 6X[.| 9XqXqXqX7X(. .7X8X1X7XA.k.qX+X4X7X1Xs.h.3X+X{.#.$.x ",
"e t.$.`.-X1Xk.k.:X7X1X1X4Xv.j.7X+X4X7X2.U.3XwXwXwX7X2.[.7X1.;.2 4 -.>.qX&X| 7X8XqXqX7X(.,.7X7X+X7Xj.k.4X1X1X7X1Xh.h.1X-X-X$.d.e ",
"q g.9.OX7X<Xk.j.=X4X4X4X1Xk.h.7X+X1X7X2.~.6X8XwX8X8X2.].6X/ ) 2 3 ;.J 6XXX| 8X8XqX8X7X~.>.7X1X+X0Xk.h.:X2X7X4X<Xj.g.<X7X=X9.k.e ",
"y g.9.=X7X7XA.j.=X7X1X:X1Xk.k.7XoX}.4X2.~.7X7XwXqX8X .[.6X` =.* * ` K 7X[.| qX7XqXqX7X~.,.7X{.oX8Xk.k.1X-X2X4X>Xk.A.4X7X=Xe.k.q ",
"d g.u.&X7X7XA.j.-X1X1X4X<Xk.k.4X}.oX4X3.~.4XqX8X8X7X$.].5XK L * . K K 5X%X| 7X0XqX8X7X(.>.7XoX|.7Xk.k.-X7X1X:X:Xj.k.7X7X=X8.D.f ",
"f p.8.=X7X6Xk.h.-X1X-X7X1Xv.F.4XoX1X8X3.(.<XqXqX8X3X .G.#X` ) 2 2 K K #XH.} <X8XqXqX4X(.2.8X1XoX7Xk.k.1X7X1X1X:Xk.j.3X7X*X9.k.f ",
"f p.u.XX3X7XF.p.'.-X<X-XOXf.k.3X4X7X7X3.U.<X3X4X3X3X,.G.@XJ K o o K J @XH.} 7X<X7X<X<X!.2.7X7X4X9Xn.g. X}.1X<X`.i.k.7X3X&X9.k.f ",
"a g.7.&X3X7XF.] } o.3.o. .( F.6X7XqX7X7.^ ] } | | | Y (.@XJ K 4 % L J @X'.G ] ] _ ] ] T 2.9X7X8X6XJ.T  . .}  .} _ F.7X3X=X7.j.a ",
"y d.$.(.<X7X&X_._.(.(.(._.(.=X<X3X7X7X=X[.[.].].'.'.A.$X#XK L O . L H @X$XG.XX_.XXXX&XXX=X7X6X3X3X=X`.].[.].].'.[.>X6X<X`.$.d.u ",
"w d.6.XX;X7X<X6X7X2X4X4X7X3X6X7X7X7X<X<X7X6X7X3X<X3X!.$X#XK K o o K H ^.$XQ.7X3X4X7X6X7X3X<X9X7X6X7X7X7X4X4X4X7X6X<X9X;XOX7.k.w ",
"w g.8.=X<X7X<X7X7X<X<X<X4X3X7X7X7X3X7X7X3X7X7X9X7X6X=X'.^.~ K 3 2 K K ^.~.;X6X9X8X7X7X3X7X7X3X7X7X4X7X3X<X<X2X7X7X,X7X<X,X8.j.e ",
"y p.7.].3X7X=X<X<X<X<X6X3X3X<X3X2X<X1X4X4X7X6X3X7X<X+X[./.' W 3 $ O.W ^.[.oX<X3X3X6X3X4X4X2X<X1X3X3X<X3X3X<X<X>X<X=X7X3X&X7.j.p ",
"x a.D $.0.o.4.9.5.6.6.6.6.6.$. .o.$.4.%.5.6.e.e.$.4.E T ~ M _ + + ) c Y Y U $...9.9.7.$...$.o.{ Q o.5.$.$.3.3.5.4.<...0.$.B d.x ",
"< P.o.a.B.X.a.f.f.k.k.f.d.n.k.v.L.K.P.t.N.L.L.L.L.0.C R a.R =.X   -.R h.R m 0.P.P.L.L.P.f.U.P.L.N.k.n.k.v.v.n.k.h.s.X.v.d.o.E.< ",
"= P.#.c.{.l.x.x.M.c.c.x.y.M.B.E.z.y.B.z.c.W.`.].[.c.&.c.s.( Y X X Y } t.c.&.c.`.].`.`.z.z.B.r.x.E.P.v.z.z.c.c.M.x.x.l.R.c.X.R.@ ",
"@ C 9 V V 1 V S S I U U U U U ( ! E E R ! U I S S E ! N w P R = = P Y , n R ! C z D I E I U U U U U I U I I S C S 9 1 V V 7 C @ "
};
