/* XPM */
static char *_7912b2fcc2e40efcc1d950ed8babb727Z3G1YAW76Yj2cNp[] = {
/* columns rows colors chars-per-pixel */
"64 64 23 1 ",
"  c #04002A",
". c #04002D",
"X c #050033",
"o c #060032",
"O c #050036",
"+ c #050037",
"@ c #07003C",
"# c #06003F",
"$ c #021830",
"% c #012932",
"& c #022937",
"* c #003E3A",
"= c #004235",
"- c #004A36",
"; c #060042",
": c #01464A",
"> c #005342",
", c #005D44",
"< c #005E4A",
"1 c #015754",
"2 c #00754E",
"3 c #00755A",
"4 c #009260",
/* pixels */
"................................................................",
"$-============================-$$-============================-$",
"% .............................%%............................. %",
"%............................. %%..............................%",
"%..............................%%..............................%",
"%............................. %% ............................ %",
"%............................. %%..............................%",
"%  &,>>>>>>>>>>>>>>>>>>>>>>,& .%%  &,>>>>>>>>>>>>>>>>>>>>>>,& .%",
"%  *++++++++++++++++++++++++* .%%. *++++++++++++++++++++++++*  %",
"%  *o+++++++++++++++++++++++*  %%. *++++++++++++++++++++++++*  %",
"%. *++++++++++++++++++++++++* .%%. *o+++++++++++++++++++++++*  %",
"%. *++++++++++++++++++++++++*  %%  *++++++++++++++++++++++++* .%",
"%. *++++++++++++++++++++++++* .%%. *++++++++++++++++++++++++* .%",
"%  *++++++++++++++++++++++++* .%%  *+++@++++++++++++++++++++*  %",
"%  *++o2<<<<<<<<<<<<<<<<2o+o* .%%. *++.2<<<<<<<<<<<<<<<<2.++* .%",
"%. *++o:;;;;;;;;;;;;;;;;:o++*  %%. *++o:#;;;;;;;;;;;;;;;:o++* .%",
"%. *++o:;;;;;;;;;;;;;;;#:o++* .%%. *OOo:#;;;;;;;;;;;;;;;:o++*  %",
"%. *++o:;;;;;;;;;;;;;;;;:o++*  %%. *OOo:;;;;;;;;;;;;;;;#:o+o* .%",
"%. *++o:#;;;;;;;;;;;;;;;:o+o*  %%  *OOo:;;;;;;;;;;;;;;;;:+++*  %",
"%  *+++:;;;;;;;;;;;;;;;#:+++* .%%. *O+o:#;;;;;;;;;;;;;;;:o++* .%",
"%. *o++:;;;;;;;;;;;;;;;;:o++* .%%  *++o:;;;;;;;;;;;;;;;#:o++* .%",
"%. *++o:#;;;;;;;;;;;;;;;:+++*  %%. *++o:;;;;;;;;;;;;;;;;:o++*  %",
"%  *++o:;;@4333333334@;#:o++* .%%. *++o:#;@4333333334@;;:o++* .%",
"%. *o+o:;;#1#;;;;;;#1#;;:o++*  %%. *++o:;;#1#;;;;;;#1#;;:o++* .%",
"%  *+++:;;#1#;;;;;;#1#;#:o@+* .%%  *@+o:;;#1#;;;;;;#1#;#:o+O* .%",
"%. *+oo:#;#1#;;;;;;#1#;;:oo+* .%%. *++o:;;#1#;;;;;;#1#;;:o+O* .%",
"%. *++o:;;#1#;;;;;;#1#;;:o++* .%%  *Oo+:#;#1#;;;;;;#1#;;:oOO*  %",
"%. *+++:;;#1#;;;;;;#1#;#:o++*  %%. *O+o:;;#1#;;;;;;#1#;#:o+O* .%",
"%  *++o:#;#1#;;;;;;#1#;;:oOO* .%%. *OOO:;;#1#;;;;;;#1#;;:o++* .%",
"%. *++o:;;#1#;;;;;;#1#;;:oOO*  %%. *OOo:#;#1#;;;;;;#1#;;:o++*  %",
"%  *++o:;;#1#;;;;;;#1#;#:++O* .%%  *++o:;;#1#;;;;;;#1#;#:o++* .%",
"%. *++o:#;#1#;;;;;;#1#;;:o+o* .%%. *++o:;;#1#;;;;;;#1#;;:o+@* .%",
"%. *++o:;;#1#;;;;;;#1#;#:o++* .%%. *++o:;;#1#;;;;;;#1#;;:o+o* .%",
"%. *+++:#;#1#;;;;;;#1#;;:o++*  %%  *++o:;;#1#;;;;;;#1#;#:o++* .%",
"%  *+oo:;;#1#;;;;;;#1#;;:o++* .%%. *++o:#;#1#;;;;;;#1#;;:+++*  %",
"%. *OOo:;;#1#;;;;;;#1#;#:o++*  %%. *++o:;;#1#;;;;;;#1#;;:oo+* .%",
"%  *+oo:#;#1#;;;;;;#1#;;:+++* .%%. *+++:;;#1#;;;;;;#1#;#:o++* .%",
"%. *++X:;;#1#;;;;;;#1#;;:oo+* .%%  *o+o:#;#1#;;;;;;#1#;;:o++*  %",
"%. *o+o:;;#1#;;;;;;#1#;#:o++* .%%  *++o:;;#1#;;;;;;#1#;;:o++* .%",
"%. *+@o:#;#1#;;;;;;#1#;;:+++*  %%. *++o:;;#1#;;;;;;#1#;#:o++* .%",
"%  *++o:;;#1#;;;;;;#1#;;:o++* .%%  *+++:;;#1#;;;;;;#1#;#:oOO* .%",
"%. *++o:#;@4333333334@;;:o++*  %%. *+oo:#;@4333333334@;;:oOO* .%",
"%  *+++:;;;;;;;;;;;;;;;#:.++* .%%. *++o:;;;;;;;;;;;;;;;;:++o*  %",
"%. *++o:;;;;;;;;;;;;;;;;:+++* .%%. *+++:;;;;;;;;;;;;;;;#:o++* .%",
"%. *+++:#;;;;;;;;;;;;;;;:o++* .%%  *++o:#;;;;;;;;;;;;;;;:o++* .%",
"%  *o+o:;;;;;;;;;;;;;;;#:o++* .%%. *++o:;;;;;;;;;;;;;;;;:o++*  %",
"%  *++o:;;;;;;;;;;;;;;;;:o++*  %%  *++o:;;;;;;;;;;;;;;;#:o++* .%",
"%. *++o:#;;;;;;;;;;;;;;;:o++* .%%. *++o:#;;;;;;;;;;;;;;;:o+@* .%",
"%  *++o:;;;;;;;;;;;;;;;#:o++*  %%  *++o:;;;;;;;;;;;;;;;;:o++*  %",
"%. *o+o2<<<<<<<<<<<<<<<<2o++* .%%  *o+o2<<<<<<<<<<<<<<<<2o++*  %",
"%. *++++++++++++++++++++++++* .%%. *++++++++++++++++++++++++*  %",
"%. *++++++++++++++++++++++++* .%%. *++++++++++++++++++++++++*  %",
"%  *++++++++++++++++++++++++*  %%. *++++++++++++++++++++++++* .%",
"%. *++++++++++++++++++++++++*  %%  *++++++++++++++++++++++++*  %",
"%  *++++++++++++++++++++++++*  %%  *++++++++++++++++++++++++* .%",
"%. *+++++++++++++++++++#+++o*  %%. *++++++++++++++++++++++++* .%",
"%. &,>>>>>>>>>>>>>>>>>>>>>>,& .%%. &,>>>>>>>>>>>>>>>>>>>-,>,& .%",
"% ............................ %%........................o.... %",
"% .............................%%..............................%",
"%............................. %% .............................%",
"% .............................%% ............................ %",
"%..............................%%..............................%",
"$-============================-$$-============================-$",
"................................................................"
};
