/* XPM */
static char *result[] = {
/* columns rows colors chars-per-pixel */
"64 64 247 2 ",
"   c #2F526B",
".  c #2C5869",
"X  c #2E5876",
"o  c #325675",
"O  c #33547C",
"+  c #335B7C",
"@  c #38606E",
"#  c #2E6476",
"$  c #316475",
"%  c #336B7C",
"&  c #38687B",
"*  c #476778",
"=  c #436C7D",
"-  c #53707B",
";  c #345C83",
":  c #375984",
">  c #365D8B",
",  c #355E8B",
"<  c #346484",
"1  c #346D82",
"2  c #36648B",
"3  c #3B6689",
"4  c #366B8B",
"5  c #396A8D",
"6  c #347384",
"7  c #35748B",
"8  c #3A778C",
"9  c #37798C",
"0  c #3A6393",
"q  c #386695",
"w  c #3B6A95",
"e  c #3C6C9B",
"r  c #397795",
"t  c #397A94",
"y  c #3C739B",
"u  c #3D6AA3",
"i  c #3E77A4",
"p  c #486986",
"a  c #556C87",
"s  c #497689",
"d  c #577786",
"f  c #5B738D",
"g  c #547B8B",
"h  c #476C95",
"j  c #536E91",
"k  c #497795",
"l  c #4B7B9B",
"z  c #537395",
"x  c #577897",
"c  c #416EA7",
"v  c #4275A6",
"b  c #4779A7",
"n  c #4C7CAB",
"m  c #537AA3",
"M  c #5879A5",
"N  c #537CAC",
"B  c #547DB2",
"V  c #3B869A",
"C  c #3D87A3",
"Z  c #3E92AB",
"A  c #4A849A",
"S  c #548394",
"D  c #5C8395",
"F  c #578A97",
"G  c #52849C",
"H  c #5B849B",
"J  c #578A9D",
"K  c #648798",
"L  c #728B96",
"P  c #4182A5",
"I  c #438BA4",
"U  c #4989A6",
"Y  c #4484A9",
"T  c #4C84AB",
"R  c #4C8BAB",
"E  c #5887A7",
"W  c #548BA4",
"Q  c #5C8BA3",
"!  c #5383AC",
"~  c #5C84AE",
"^  c #548DAC",
"/  c #4692AA",
"(  c #4A96A8",
")  c #4C94AB",
"_  c #5893A4",
"`  c #5494AC",
"'  c #5C94AC",
"]  c #539BAD",
"[  c #5B9AAD",
"{  c #4E8AB1",
"}  c #5583B3",
"|  c #5C84B2",
" . c #538CB2",
".. c #5C8BB3",
"X. c #5788BA",
"o. c #5C8DBA",
"O. c #4F98B3",
"+. c #5495B2",
"@. c #5C93B3",
"#. c #539CB3",
"$. c #5B9CB3",
"%. c #5C94BA",
"&. c #559AB8",
"*. c #5C9DB8",
"=. c #6387AA",
"-. c #748CAB",
";. c #6295AA",
":. c #7795A7",
">. c #638CB3",
",. c #668AB7",
"<. c #6A8DB5",
"1. c #628CBA",
"2. c #6393B5",
"3. c #6B92B6",
"4. c #639BB4",
"5. c #6A9CB5",
"6. c #6494BA",
"7. c #6C94BA",
"8. c #639CBA",
"9. c #6B9BBD",
"0. c #7294B6",
"q. c #779AB6",
"w. c #7394BB",
"e. c #749BBC",
"r. c #7C9CBC",
"t. c #58A1B6",
"y. c #5DA1B4",
"u. c #63A2B5",
"i. c #6BA2B6",
"p. c #64A4BA",
"a. c #6BA4BB",
"s. c #66AABB",
"d. c #6CABBD",
"f. c #76A4B6",
"g. c #73A4BC",
"h. c #7CA3BD",
"j. c #73ABBC",
"k. c #7CACBD",
"l. c #7AB1BE",
"z. c #6B94C1",
"x. c #6D9BC1",
"c. c #7395C2",
"v. c #739CC2",
"b. c #7B9DC4",
"n. c #6DA3C2",
"m. c #6CABC1",
"M. c #74A3C2",
"N. c #7CA3C5",
"B. c #74ADC2",
"V. c #7BACC4",
"C. c #7DA3C8",
"Z. c #7FAACC",
"A. c #75B2C3",
"S. c #7CB3C4",
"D. c #7CB5CA",
"F. c #889A9A",
"G. c #8E9CA4",
"H. c #849EBC",
"J. c #94A3A9",
"K. c #83A3BE",
"L. c #82ABBE",
"P. c #89A8BC",
"I. c #82B1BE",
"U. c #8AB4BF",
"Y. c #A4B0B9",
"T. c #819FC1",
"R. c #83A5C3",
"E. c #8BA5C3",
"W. c #84ABC4",
"Q. c #8BACC3",
"!. c #84A5CA",
"~. c #8AA7CC",
"^. c #85ABCA",
"/. c #8BABCB",
"(. c #91A5C0",
"). c #93ACC5",
"_. c #93ADCB",
"`. c #84B4C3",
"'. c #8BB3C2",
"]. c #85B9C6",
"[. c #8CB9C5",
"{. c #84B5CA",
"}. c #8CB3CC",
"|. c #84BAC9",
" X c #8CBCCB",
".X c #93B4C5",
"XX c #9AB3C5",
"oX c #95BAC6",
"OX c #9BB9C6",
"+X c #93B4CD",
"@X c #9BB5CC",
"#X c #94BCCB",
"$X c #9CBCCB",
"%X c #8DB1D1",
"&X c #94B5D2",
"*X c #9BB4D2",
"=X c #96BCD2",
"-X c #9BBBD3",
";X c #9BBDDB",
":X c #A3B7CA",
">X c #A3BCCB",
",X c #AABCCC",
"<X c #B4BFCE",
"1X c #A3BCD4",
"2X c #A9BED6",
"3X c #8FC1CC",
"4X c #99C1C7",
"5X c #94C1CD",
"6X c #9CC2CD",
"7X c #98C5D3",
"8X c #9CC4D2",
"9X c #A5C0C6",
"0X c #A4C2CC",
"qX c #ABC3CD",
"wX c #B2C4CE",
"eX c #B8C6CB",
"rX c #A3C4D4",
"tX c #ABC4D3",
"yX c #A4C9D5",
"uX c #ABCAD6",
"iX c #A7C8D9",
"pX c #ADCBD9",
"aX c #B4C4D2",
"sX c #B7C6D7",
"dX c #B4CAD4",
"fX c #BACBD5",
"gX c #B3CCDA",
"hX c #BBCCDC",
"jX c #AED0DB",
"kX c #B8D1D7",
"lX c #B5D1DC",
"zX c #BBD2DD",
"xX c #B2CDE2",
"cX c #B5D4E4",
"vX c #BDD4E1",
"bX c #C3CDD7",
"nX c #C7D5DB",
"mX c #C3D4DD",
"MX c #C4D5E1",
"NX c #C7D5E6",
"BX c #C6D9E2",
"VX c #CBDBE3",
"CX c #D2DCE4",
"ZX c #D3E2E9",
"AX c #D3E8F1",
"SX c #ECF9FE",
"DX c #FCFEFD",
/* pixels */
"s - S S S - % 6 A A S uXdX-XgXhXY p.{ n. .Q.+X=X XZ.+XC n.Y Y U sXgXgX1XfXX + 5 y 2 q U Y { Y @.7.>.e.<.v.#XOXyX4XfXnX& V P.DXS ",
"G A s = F = 6 S s s A rXgXiXrX$Xb V +.U ^ }.-X-X-X X+XY { 9.U E vXMXzXpX>X2 w w 2 , 4 Y P R +.{ 7.<.7.,.1.oXOXOX$XdXfX9 S ' f.- ",
"A = % F = $ 9 S S & & rX#XoXrXuX .2.P ^ ` =X}.#X=X}.W.*.+.C G W gXkXzXsX,Xw 5 + ; X ; @.` T T R >.7.7.R.b.0X0X4X9XwXeXD 8 H % t ",
"- S = F S 6 . # A - g $XiXQ.$X+X4.4.%.R R iXrXN.`.W.e.8.v.C P Y >X@XqXwXmX< ; ; + X + 4.R @.M.8.w.>.C.b.3.VXBXBXfXdXbXJ 1 % 6 6 ",
"% S A F S % V $ . V g 5X}.'.P.gXa.M.M.*.{ L.+X'.Q.Q.f.A R n.+.{ ,XgXgXzXtXX + o ; ; < ^ @.E Y ^ &XxXAX9.N.zXCXnXmXMXkXU J s $ $ ",
"k.U.yX4XI.( t.] ( #.A k y %.*.%.Z _ I Q 6 P.yXI.[.[.L t.y.Z y.p.8.{  . .y s ;.` ( ( ( h b } x x d.O.s.] $.Y.wX).$X@XJ.{ ..>.1.o.",
"9X8Xl.I.U.( d.s.Z ( ] Q x l 5 x 9 9 V ( u.l.oX].`.[.i.I ( u.] [ 6.P e.x.^ ( _ ;.A V V N z o.} p A.t.( ( [ sX,XQ.Q.Q.XX1.o.v v v ",
"5XuXyX4XU.] ] ( ] ( / 8.U G s k K F K A u.yX#Xk.7X6Xl.y.y.y.( ] Y { ^ e.^ _ _ ] F V 9 0 =.0 u i 3XA.m.] ( qXaXXXE.Q.P.~ ! =.w y ",
"`. XuXjXyX#.( ] y.( t.@.@.@. .%.D.u._ S S I.k.S.I.0XI.[ ] ( ( I 9.@...T P [ _ K _ ( _ # 0 u < y D.A.A.u.#.+XhXsXrX1XXXn } o.o.T ",
"4Xj.`.I.3Xs.s.m.s.y.t.2.@.U i ' *.*./ ' g [.5X5X[.l.k.( ( ( ( / T T R b i A _ _ [ y.&.q : e N h D.D.S.S.A.-X1XmXvXhXhX@.%.%.X.c.",
"[.I.k.I.].] m.m.t.] [ W %.+.k 4 Z Z / C 9 :.L.l.l.f.K ] ] ( / ] @.9.9.2.Y 9 V A W @.W < > h M N |.D.A.B.D.G.E.OXhXmXJ.b n ....! ",
"j.A.s. XjX' 8 r D % S [.=X>XXXL.<XsXmXaXU.,.~ ,.>.~ c.2.0.E.E.r.vXVXlXzXVX% = $ $ # # AXNX2X<XT.( s.p.( a.W @.^ ^ ^ b [.$XU.Q.Q.",
"j.m.8.s.m.U r Q @.x z iXsXQ.W.+XhXhXvXhX2Xc B 1.n ~ C.w.>.K.E.R.yXdXzXzXlXs K A A S G /.E.H.0.<.m.y.p.#.[ R R Y Y R Y L.#XQ.L.h.",
"u.B.$.+.u.1 x Q ' Q g iX.XC.&X#XvXhXhXMX@Xz.z.b.!.b.| W.3.q.).Q.0XqX4X4XrXs k A A A Q _.<.0.(.(.s.y.` ` s.Y t Y b +.^.'.V.oXrX6X",
"u.) ] j.u.k l D H t t tXW.+X+X+XaXsXhXsX*X=.,.T.=.X.!./.g.e.).E.uXqXuXjX6XA s s = = p H.H.H.H.(.s.y.#.) a. .U ^ *.%XZ.`.rXrX'.Q.",
"$.+.C ) d.D x 1 4 r t -XK.W.W.W.).(.Q.).E.| B z.z.b.N R.v.!.1X@XuXOX9XqXjX* D s & = = E.H.P.H._.*.4.B.`.B.n.n.@.@.*.8.yXL.W.`.{.",
"tX@XxX+X_.P.Q.h.W.L.Q.m.p.9.*.a.e 5 q 5 w 5X7X5X X Xk.E.*XR.>.| (.*X:X_.N.j 5 x + y ~ qX>XaXsXfX6X6Xj.k.#XC.E.<.,.>.>.B r.b.c.c.",
"1X1X=XmX-X).Q.L.P.K.+X@.` @.@.' 5 5 4 w y S. X5X{.D.S./._.~.b.>.2X2X2X1X/.e v u y M E hXdXtXfXfXI.4Xl.j.8X^.!.b.,.| ,.,.b.T.c.c.",
").@X$X,XtXP.oXQ.L.W.}.` @.4.4.@.w w y h y 8X|.3X#X`.{.~.~./.7.z.DX1X1X&XQ.a   o X + + aXhXmXdXeX8X0XI.3XuXb./.R.,.>.0.c.c.c.T.z.",
".XE.$X-XXXW.Q..XR.h.#X;.' 4.8.4.! 6.@.o.^  XiX X X5X XT.!.R.7.z.2X1X1X/.N.m H j a     aXqXBXVXMXjX4X XkXyXc.R.R.b.<.1.,.T.T.B B ",
"sXtX-X@X2X$XW.W.'.Q.Q.5.` @.8.g.x.o.%.x.%.V.k.oXyX X6X| B >.N b.1X2X).w.w.p x 3 w < 5 wXMXMXmXBX4Xl.AXI. X~ R.~.w.w.T.b.T.T.B B ",
"*.#.R / R h.h.P.Q.K.q.gXlXvXvXyX4.f.`.$X'.q.r.~.+X).:.H.E.| c.~.M ,.M M l 6 # F . S & ' &.*.@.P @XK.>.C.P.h.7.W.2.2.-.>.B b.z.c.",
"B.] / R / .XXXQ.N.K.R.zXvXzXzXlX[ ] $.i.i.K..XR.@X@XE.T.H.<.| >.3 : h M | % . $ 9 9 9 / Y Z U a.3.=.Q.H./.2.h.n.}.Q.W.z.1.,.B c.",
"a.4.+.R ) W.Q.@X1X#X}.uXzXlXgXlXk.#X X5XS.-X&X-X1XR.r.H.T.c.=.N b v ..n 6.% 9 9 9 % 6 P U +.+.*.r.K.0.+XN.2.W.=Xk.h.R.| 1.1.c.c.",
"j.*.$.p.a.N.W.^.e.@X-XiXuXgXlXgXS.D.7XA.{.$X+X%X}.}.r.0.T.T.0.N X.} T | o.8 6 % $ % # / a.a.y.@.<.e.r.b.iX^.+Xh.W.R.E.~ c.| v.v.",
"*.) u.u.p.%X^.W.W.M.R.dXfXfXMXdX`.5X{.{.{.%X^.+X&XN.N.!._.~.w.<.x 0 0 w w % % % % $ # #.8.a.+.+.0.R.AX;XR.8Xh.}.h.e.h.n | | | 7.",
"I ] *.` ) G.gX;XiX}.G.W.4XkXzXfXAX{.p.V.j.L Q.+X+XQ.K ~.R.^.^.,.X.X.o.2 < - 1 g $ $ S ` *.+.Y R !.xX*X1X+Xq.^.W.V.V.q.w.| | B >.",
"0.w.w.N.Q.W.N.R.C.N.N.4XOX>XU.[.& D Q ` A L.L.wX0X$XXXb.C.C.x.9.B.M.4.2.4.7.! ~ 6.! ! yX8XiX4X6X>.h.K.E.R.$XSXxXoX+XgX6.v.6...Y ",
"3.<.b./._.+X&X%X*XZ.M.6X#X#X[.'.g D G _ *.Q.[.OXqXqXOX^.C.M.7.^.M.a.a.V.V.2.>.T ! ! ~ #XrX8XyXyXW.R.+X-X*X-XiXSXW.rXfX+.a.9.6.@.",
"R.r./.~.R.-X1XrXiX1X$X#XrXyX8XyX& 1 K W @.iXP.oXaXqXOX7.7.Q.v.N.n.a.9.m.$X} >.| n n n `.W.yX8XyXN./.-X-X&X=XrXiXW.iXgXi  ...! T ",
"e.q.e.R.!.-X-X1X1X-XQ.rX8XrXyXyXJ Q ;.U *.rX[.yXfXqX>XN...>.Q.M.4.a.M.a.Z.b 3.>.T | ..S.5X X8XjXC.!./.}.&X$X-X@X}.gXgXi  . .T a.",
"0.e.q.<.r.+X-X*XK.e.3.rXyXyXyX6Xp.8.*.&.^ oX-XiXvXmX9Xg.V.7.9.}.$.g.p.j.k.o.7.2.~ | .. X8X|.5XyXC.^./.@X^.iX0XQ.'.tXsXb  .@.2.2.",
"~ 7.~ ,.e.6 1 6 9 9 9 l.t.( s.m.O O : : x T b b T v q ^.b.b.7.<...2.2.N.x.h p z j z z ).@X_._._.1.>.e v N 0X6X4XkXuXkXp o > 0 : ",
"b.e.w.R.<.6 % 6 9 6 9 ( y.s.t.p.c N z h > 7 h y 2 K b /.x.v.x.N.g...@.V.N.2 M h h m > 2X_._._.E.c.} v v Y 8X8X8X8X8XU.o * z b : ",
"b.&XN.|  .1 % 6 9 t 9 d./ ] m.( M M | m f 0 0 z k H 3.C.N.b.7.C.6.v.e.N.b.o + 2 m 0 0 1X1X_._.*X| } } ! 2.8XyXjX8XyXjX* p m m : ",
"v.!.o.b.b.S S J J _ _ j.S.d.( ) M M M u h ; < 2 2 b 6.R.v.^.C.C.%.9.9.9.} j   o f h m _._._._.*Xn b M b 6.6XyX6X5X5X7Xp a B h j ",
"%X,.T.~.!.S k oX_ A ( ] M.A.M.#.M z B 0 c & 2 3 5 e } e.&Xb.~.!.2.2.v.M.6.M f o a p h _._.2X~.T.~ b ! 6.v.4X4X`.8X5X6Xa a m b h ",
"m.m.t.m.` 9Xj.I.S.[.G.2 : > u u bXNXhXsXiXq.T.!./.!.-.&XDX@XsXtXb.2.2.6.7.eXNXCXsX<XY.<X,X<XNXbXnXgXAXDX0X:XuX0X4XqXJ.3 e q >.E ",
"[ t.8.$.A.oX].#X].].{.> 0 : > 0 MXMXhXgXiXb.!.!.!.~.c.1X*X+X2X:X7.e.b.v.w.sXCXCXbX<X,X<X,XNXCXNXMXjXlXvX#XzXnXzXqX>XqX1 4 r y r ",
"m.u./ 8.[ yX X].6X{.U.2 : > x : VXMXxXgXtXw.c.~.R.R.b.1X(.E.(.:Xv.7.C.b.!.xXmXCXNX<X<X<XbXNXNXhXlXpXgXzX-XBXVXVXwX$X9Xx X 2 # < ",
"m.p.I / ( jX5X|.{.].#Xu u 0 > > CXVXwXXXXXb.~.N.E.~.w.@X).H.H.:X7.x.x.!.N.fXsXCXCXbXhXsX<XCXNXsXdXzXrXqXyXnXnXVXnXjX>X< W l s X ",
"u.u.[ u.] 6X0X5X X5XyXO O 0 q c aXfXwXXXXX=.H.Q.R.r.r.2X).r.b.:Xb.e.b.1.~.eX,XbXMXbXbXbXbXbX<XhX$XzXtXqX$XfXkXbXfXqX>X2 5 k l l ",
"#.W s.C p.F.6X0X0XuXF.z h h 3 f zXeXqX@X:Xf | <.R.~.L ).(._.Q.sX<.b.M.!.N.G.,XeXnXeXJ.<XbXbX,X2X>XqXqXOX>XF.aXaXeX0XF.& 1 k k p ",
">.9.^.~.+X7 K ;.` g t .X1XsXbXmX+.R 5 t 8 z.M.v...b %...<.../.=X- - *     *.n.*.' =.;.bXbX2X<X1Xq.w.H.E.P.O : o   f p mXCXBXaX0X",
"9.2.7././.A ' 6 A s t 1X2X1XtXsXC t 7 r H Z.x.U v M.^ ..3.C.-X-X7 Q v k F +.B.p.^ _ A aX<X:X2XbXq.0.T.E.r.a z a j f f fXnXbXqX:X",
"R.^.&X/.&Xs G S [ p 1 1X2X@X2XhXr t 4 W E ! n l x.6.x.r.K.g./.+Xg 4 H A Q m.a.) R A P ,X<X:XhXNX>.3.R.(.R.f L j f O O tXnXbXOX>X",
"/.;X=X&X+XF A H *.s g 1X2X:XaXbX4 A ' J P.} =.M. .6. .K.K.L.Q.K.* d f p l m.*.R 2.@.I aXsXxXbXsXN.r._.E.N.f a p z f + OXbXnXwX0X",
"e.h.h.r.R.7 r 9 C U < :X).<XfXsXr t k Q Q ^.x.%.6.} n./.R.Q.K.r.k s - * d n.8.#.) #.W ,X,X<XsXhXb.!.1X_._.j j q.h p + .X9XbXtXuX",
"7 D K z g V V V V V V kXkXjXkXkX/.-X+X/.!.n m h =.e y .XXX>X[.rXi.u.] a.j.}.W.}.W.q.e.M.V.g.g.M.1.B ,.B n 8X6X7X5X X X5.e.'.+X^.",
";.D S s F ;.V V V % V cXVXBXuXjX}.N.h.P.&Xi e l z q e iX0XoXoXXXd.u.p.t.$.@X}.Q.=XR.V.g.M.g.a.a.,.n c c z 5X6X5X8X8X5Xg.g.W.+XoX",
"4 D x S Q ( y.y._ # % kXmXmXkXyXW./.5.K.C.1.} h l y 2 >XgXuXzXfXu.i.D.A.D.#XW.e.e.W.+X5.^ 8.@.@.c b 0 c 0 [.[.yX7X5X X^.V.+XrX=X",
"= H G g 7 F ( t.( s # kXzXzXzXuX;Xv.e.0.$Xn X.n h h n MXfXmXbXdXl.A.A.7XjX@XQ.+XK.h.+X5.R @.R ` 0 v 0 u 0 U.oX[.#Xk.[.V.V.'.;X-X",
"K 7 w < 4 A W ] / s S pXzXlXlXgXw.h.P.E.~.0 B n 1.} X.NXNXfXrXdXj.S.yX7X].h.Q.Q.N.h.}.;.U ' R R > b M c w yXyX[.l.I.#X[.9.W.W.).",
"j h : > O ` O.*.*.+.U B.cXD.B.A.8XyXrXyX2Xc c N N | p v.x.v...N.3X5XS.u.y.9X8XyXrX5XG.[ ] ] ] ( X z = * - oX8X[. X5X:.d - . # t ",
"c u > q ; +.*.*.` W _ d.B.S.A.V.uX8X8XiX$X0 c c c B X.e.7.2.^ 7.l.`.d.u.l.uXyXyXyX7X5Xt.j.] j.*.. + 7 p f 5X4X5X3X X6Xd # . . 9 ",
"u u 0 u 0 Z / C Q ] W V.B.g.j.S.lXyXiXuX=X: > > h 0 c z.9.@.x.v.S.|.l.S.B.l.j.I.#XS.U.j.S.d.d.A.< X X 5 3 I.U.OX3Xl.f.s s . . 7 ",
"> u h M M s.Z t ' p.#.i.B.5.d.a.oXuXyX8XiXj z x M : z 9.M.7.6.2.|.l.S.`.].oX6XjXlXjX8Xs.A.A.] ] ; $ X X X `.oX#Xl.j.I.= = - @ G ",
"> M B B M &.V l I / i.u.$.] 5.i.#X$X8X8XrXh p -.j z B ..6...^ T I.I.].'.[.0X4X>X$XoXOXA.D.d.s.A.* p s d g yX[.yX#Xk.#Xd s * & A ",
"M M B B m R O.) +.p.J *.` #.) ) aXoX@X$X>X+ a M ,.c.!. .C.%.9.! f.I.I.l.k.J.qXU.I.oXF.|.s.y.A.y.p s s -.:.G.yX0X5X|.L * = = D W ",
"_.~.*X%X/.M.}.{.4.2.I.gXhXtXrX=Xr #   * * >XwXkXCXbXnXt t ' G G S.u. X{.V.W.8XoXW.=X8Xk s p < 2 @X@X1X>X>X@.v.z.2.7.Q.kXZXuXuXjX",
"c.w._.*X*X^.V.g.5.W g.uX@XtXtXgX7 < . -   $X4XBXNXVXCX6 3 7 H W k.f.i.5.i.k.K.g.k.rX#Xx b l x k tX>XtXiXtXx.%Xz.6.N.V.AXZXlXuX0X",
",.w.B T.*Xg.g.a.k.^ i.gX+X#XiXhX3 E &   . oX$XqXfXfXkXX & - - . k.h.L.i.5.f.h.q.K.XX.Xm ! T !  .OX,X,XtXhXDXo.o.v.C.7.zXZXnXzXfX",
"-.B -.T.E.' @.@.h.8.M.@X~..X2XvX- A E l l zXiXrX0X9XeX= d d @ - ` ' f.L.k.g.W.i.k.L.'.x H } %.X.@X1XdXqXtXxXN.b.e.!  .zXZXVXCXfX",
"T.H.B w.H.5.@.5.4.`.' XX@X>XhX>X* f U U E ZXzXoXoXOXP.L L d W ^ a.4.k.V.i.}.[.#Xg.h.h.+ ~ ..6.~ uXhXfXfXqXe...! v ..;.VXnXVXCXCX"
};
