/* XPM */
static char *result[] = {
/* columns rows colors chars-per-pixel */
"64 64 40 1 ",
"  c #B0B1AC",
". c #B7B7B5",
"X c #B9BAB5",
"o c #B7B7B9",
"O c #BCBCBC",
"+ c #C1C2BD",
"@ c #C3C3C3",
"# c #C6C6C8",
"$ c #CBCBCC",
"% c #D2D2CE",
"& c #CECED0",
"* c #CFD3D6",
"= c #D3D3D4",
"- c #D9D9D6",
"; c #D7D7D9",
": c #D5D9DC",
"> c #DCDCDD",
", c #E0DFDD",
"< c #E1E1DF",
"1 c #DFDEE1",
"2 c #E0DFE3",
"3 c #DEE0E3",
"4 c #E3E3E4",
"5 c #E9E9E6",
"6 c #E6E6E9",
"7 c #E6E8EB",
"8 c #EBEBED",
"9 c #EFF1EE",
"0 c #F1F1EF",
"q c #EEEEF1",
"w c #F0EFF4",
"e c #EEF1F3",
"r c #F3F3F4",
"t c #FBF7F5",
"y c #F4F8F5",
"u c #F9F9F7",
"i c #F6F6F9",
"p c #F9F7FD",
"a c #F7F9FA",
"s c #FBFBFC",
/* pixels */
"4>4rurtrrr8rrrrrriaisa84444>>;>uuu8444>>458555884444<>88rrrru855",
"<6rur00ruuuurrrruuuuturu8880wususw,,><><445864-><-=->48rrtrre854",
"8uu08888rruauutuuurrrruusuuuaasau4>4<4<44550a4->>><0rurrrru0e555",
"iur90r888909rru8<5r8qruuussatrur>-<<><><<48r84<>>4ruru0ruy087554",
"r080rrr0>>>><4><46rrrriiutuiasu4>=>><>4<>>8r545080ryr0ruu995875<",
"wrerrrrr8441>>>4648ruiirruiir844441>>44>66884>8rrurr84u0645774,3",
"8r8rrrr448848888846qriiurqqqq884441444>484<44<000rr05s0855e07<,>",
"8w8rrr4448qq88q8q648rrrqqqq64>;16841>1>64>1>=4>4888500uuaay93>%$",
"880wrq,44468888888>488888844>>>144864444>>>>=54>;4,7rquuar4-:-=%",
"88qww,>44868r8888w4>8qq87444>221>>168r844>4>>884r08rurrr04>=*$%>",
"7wwq1;2286888eqqw88>1q88442>>22>>168r84w66>;48r80iiarrqq4>>>35ru",
"684>>2466686888qrr84>688644424,,1688w4rrrr;;648q48iirriq888889ur",
"7$;w2266688887788808;,874446422248qq188wqq886814860riu86qrrrrr0e",
"@8r7246778856647www82;78866444778q6846778qrq8864777wr84448qrraus",
"rrw2287675857788w80ww;2w57777578q8q48887qrr8q8888878rwair8rrsuss",
"rr4,2588qw88888ww88rw5;8w888888wq846rqqrwwwrw884674468rsssasssya",
"i82=w888qqq8q8www0q8qw>448088ww866qrqqrirrq000r6>;242678usssssai",
"w420&8r8888qqqwrrrrqrru>87>>14468qqq8rrrr8ww000i6,,->>7w8wrisiri",
"7448q==888q0qw0wrwr0q88i2>0isrwqqq868rrw8r8w8riii2=;;>>8rw888wri",
"2447786&6q8077888qw8888678877rruiirrqqqwrrwq0ruuii811>>17iiriirr",
",426775w4;88808r88qqrrq88rwrrrrrrwqrrqwwrwwrriauiii7421>24rpiiwi",
"426474w8rw;4880888qqrrrq0084irriiirirrrrrqwwriassisr7442224ipiir",
"w76>;4587;$+@OXXoO$$>8rq068wrqwriiirrrrrrwruisasuissr6442422wiwr",
"w8ww87>>4768888874;&#@%88aaiqqqqrriiuurrrrrrisssiipstr2;;>;;16rw",
"80ww487888088888rrrrq6=$>44>>>4888rusutrr0rsssssiirissiw74211>4i",
"46wr4888www8880rqrrrq8w>+==#&@#&;,450ruuuyuussiiiirrirwrtrrw8611",
">44848888w0wr00r8qwqq4468+#4w4;$@+@+X+XXX$5ruqqrrruiruiipsiiiiwq",
"74487w888888qrqrq8qqqrrrruaasiirq6>=<444444>4444qrwiw8q8riiirrrq",
"44465888888qqww88888wrrrisisirir888qr0r8q6666168qqrrw88rrrriiiw2",
"46678w8888qrw88rqqq8qrqssassirrwruurryruq8864688qqqq88u8wrrrwq66",
"8w888ww088r88788qqqq8qissiairrrtsrwuurrrrrq888qqqqq6qwrw8wwrw72w",
"rrr8iirrrrr88r0wwrq8risssiiwrwiirruiuurrqirqqqwrrr6680ir88ww87rw",
"iri4qrrrwrqqrrwqqrwissssprurwrrwiipaitrrsiwwqqqqrw41>48qq88qqw31",
"iu6848qrwrrrrqqqqqrsssssrrrrwrrriiiriiqirrrrrqrqq4446418rr87ewiq",
"r64q88qriurq88qrrrsssssirrrqqrrssasar8ipirisirq8q66qqwqwrrrr7qrw",
"q16qqq8wrq8qqrrrisssssirreq8rrisasirqipuurassiur61qiirrrssr4146q",
"44qqqqq8q8qrririssssssirrwrrissssiwqisrrassssi881qasiiuwee88776q",
"qqqqqqwqq8qrruissapsssrrqriissssirqissssssssissurupissiuurapasss",
"88q88e8qq8rriisssssssrqrrissssirqqisssssssuisssssssssssssirrrasi",
"8876qrrrrspssssssssspririsssiiiiirssssssipiaisssssssssaisssapiiq",
"8q7wiussssssssssssssrriiaiiiriipwsssssssiiiasssssasssssssssssueu",
"qrsasssspssssssssssiriiiaiitirtrssssssssssissssatassssssssssssii",
"86qrrriiiiiisauiisiwsisssssspirassssspssaasssppsssssssssssssssss",
"7www80wwqrrwrrirrr816riiipsssaassssssspsapssraarrsssssssssssssss",
"qirwrrqqqqq8668qqq88216qrrasassssssssspssipaaaq8rsssssssssssssss",
"68666688888q88q886644464788rrssusatrrirqraspaaresssssussssssssss",
"4644444644448rw88446664422448877884786246468e8esssssssssssssssss",
"4266664442:==&=1>6q881;;>,2447674477488647er6easssasssssssssssss",
"44246442;&#$$;>>1488742>>1122>123864646esre67rirar8uiirurriatpss",
"11>414>$##&>6777q6488q841>>>>>12444338ppriq7rrpi48u746qriipsusas",
"11>>;&@#&:2480w>==;>8wq84>;;;;;=>>>8sairrrqiiq1qrrqqirririisussu",
";>==&##;;18www706643>88qq66>:;=&$;8rrairrwerr4rrrwwiapprririuaar",
"$&=$#@$=48wrw84wrrqrq41446686468qrqrria837776iuqrwriiiirirrrtiww",
"OOOOo;6erw086448qq6211144q8qqqrsiirq668rsrrrrqq8wuiirqriaasatrr0",
"O .-%8uirur72>4466666468qqqqrissiirrrrr8378qriprwrrrq8qriiparrrr",
"##+=881>>144444248q888qqqrrqwiiiiiiraiiiirrriqqrrrrr8uissapryqut",
"&%68842111146464168qq88rrqqruasiiiriqqrqrwrriw8qrqrwrriasiiiypr9",
";44244741>1,4766668qwqq8qrrripiiiiirriirrrrrrerrwr88rssurrwrerr0",
">,2,478072>;>4888868q8q88qqiiipiiiisiiirqrrrrrqqrrrsiiirqqqqeqr8",
"44222,78w8441;188666888q8qriiirriiuissiqrrriirrirqrwir8ruqqqeq88",
"44422>4880r8747;46668q8wqrrreqwrriisssiiurrrrw88rqrrwwu88wwwqq87",
"7444>>>28www8w8r>=;4888wriirrirurissiiiriispissirrrqwwwrrww8q766",
"ir8842>>4708rwwwiw8448errriissiriripiiwuiasiiurq8wq8w80rww886644",
"iirr872>>48087788rsa8qiipisspssrrqrriirriirrqqr8wrqqq578888776,-"
};
