/* XPM */
static char *result[] = {
/* columns rows colors chars-per-pixel */
"64 64 166 2 ",
"   c black",
".  c #11140E",
"X  c #141510",
"o  c gray10",
"O  c #192217",
"+  c #1B2518",
"@  c #1E2A1B",
"#  c #212E1E",
"$  c #222C20",
"%  c #2B3B26",
"&  c #353E2C",
"*  c #3A3A3A",
"=  c #374134",
"-  c #3D4532",
";  c #3D4D34",
":  c #434336",
">  c #424138",
",  c #425539",
"<  c #4B563D",
"1  c #49593D",
"2  c #4C4C4C",
"3  c #4E5A40",
"4  c #565656",
"5  c #595959",
"6  c #56634B",
"7  c #5D634A",
"8  c #526F49",
"9  c #5A7A4F",
"0  c #5F6B58",
"q  c #626C4F",
"w  c #626158",
"e  c #6B6A55",
"r  c #6B7556",
"t  c #667F56",
"y  c #6A7E58",
"u  c #757C5C",
"i  c #78795E",
"p  c #6E6D6E",
"a  c #646464",
"s  c #776F76",
"d  c #747374",
"f  c #7D7C7D",
"g  c #758560",
"h  c #7E8066",
"j  c #7C8C6D",
"k  c #848A67",
"l  c #858C68",
"z  c #898E6A",
"x  c #818073",
"c  c #8B8A74",
"v  c #939676",
"b  c #C79A72",
"n  c #858485",
"m  c #8A868A",
"M  c #8B8B8B",
"N  c #959586",
"B  c #9A9985",
"V  c #939B8A",
"C  c #938F92",
"Z  c #949494",
"A  c #9A9399",
"S  c #9C9C9C",
"D  c #9D9C92",
"F  c #A99481",
"G  c #AD9D90",
"H  c #A1A085",
"J  c #A2A18D",
"K  c #A5A490",
"L  c #ADAB91",
"P  c #ADAC98",
"I  c #B6B593",
"U  c #A19DA1",
"Y  c #A4A4A4",
"T  c #AAA9A1",
"R  c #AAA6AA",
"E  c #ACACAC",
"W  c #B0AFA1",
"Q  c #B0ADAE",
"!  c #BAB9A2",
"~  c #B6B5AE",
"^  c #B8B7AD",
"/  c #BAB9AC",
"(  c #B3B3A3",
")  c #B2A6B0",
"_  c #B3A9B2",
"`  c #B3B2B3",
"'  c #B8B0B7",
"]  c #BBB5BB",
"[  c #BCBCBC",
"{  c #C0B8BE",
"}  c #C8C69F",
"|  c #CDCA9C",
" . c #C7C4A4",
".. c #C9C7AE",
"X. c #CECBAA",
"o. c #D0CDA7",
"O. c #DBDAA7",
"+. c #D4D2AB",
"@. c #D9D7AE",
"#. c #DDDAAE",
"$. c #C6C5B7",
"%. c #CDC3B7",
"&. c #CDCCB3",
"*. c #C4C3B9",
"=. c #CEC5BD",
"-. c #CDCCBE",
";. c #D0CFB5",
":. c #D1CFBD",
">. c #DCC5B2",
",. c #D7D6B0",
"<. c #DAD8B0",
"1. c #D4D4BD",
"2. c #D8D7BD",
"3. c #E1DFB4",
"4. c #E9D3BF",
"5. c #E2E0AD",
"6. c #E7E4B4",
"7. c #E8E6B1",
"8. c #ECEBB5",
"9. c #EEECBC",
"0. c #F0EDB7",
"q. c #F0EEB9",
"w. c #ECF0B6",
"e. c #F5F3BB",
"r. c #F9F6BE",
"t. c #FCF9BF",
"y. c #C1B5C0",
"u. c #C4BAC3",
"i. c #CABFC9",
"p. c #C4C3C3",
"a. c #CBC3CA",
"s. c #CCCCCC",
"d. c #D0C5CF",
"f. c #D4CCC5",
"g. c #D2C6D0",
"h. c #D4CBD3",
"j. c #D8CBD7",
"k. c #DCCEDA",
"l. c #D4D3D4",
"z. c #DBDAD4",
"x. c #DBD4DB",
"c. c #DBDBDB",
"v. c #E0DFD1",
"b. c #E0D0DE",
"n. c #F1EEC0",
"m. c #FFFCC2",
"M. c #E5E4D1",
"N. c #E8E7D3",
"B. c #E4E3DD",
"V. c #EDECDE",
"C. c #E5D6E3",
"Z. c #E3DCE3",
"A. c #E8D9E7",
"S. c #EDDDEB",
"D. c #E4E4E3",
"F. c #E8E2E7",
"G. c #EAE9E5",
"H. c #ECECEC",
"J. c #F1E0EF",
"K. c #F0EFEA",
"L. c #F1F1EC",
"P. c #F5E4F3",
"I. c #FFEDFD",
"U. c #F4F4F4",
"Y. c #FFFFFF",
"T. c None",
/* pixels */
"T.T.T.T.T.T.T.T.T.T.T.T.T.T.T.T.T.T.T.T.T.T.T.T.T.T.T.T.l.[ T.T.T.T.T.T.T.T.T.T.T.T.T.T.T.T.T.T.T.T.T.T.T.T.T.T.T.T.T.T.T.T.T.T.",
"T.T.T.T.T.T.T.T.T.T.T.T.T.T.T.T.T.T.T.T.T.T.T.T.T.T.` B.H.D.c.p.s.l.T.T.T.T.T.T.T.T.T.T.T.T.T.T.T.T.T.T.T.T.T.T.T.T.T.T.T.T.T.T.",
"T.T.T.T.T.T.T.T.T.T.T.T.T.T.T.T.T.T.T.T.T.T.T.T.T.T.D.Y.Y.Y.Y.Y.Y.U.l.s.p.T.T.T.T.T.T.T.T.T.T.T.T.T.T.T.T.T.T.T.T.T.T.T.T.T.T.T.",
"T.T.T.T.T.T.T.T.T.T.T.T.T.T.T.T.T.T.T.T.T.T.T.T.T.T.x.Y.Y.Y.Y.Y.Y.Y.Y.Y.H.l.p.T.T.T.T.T.T.T.T.T.T.T.T.T.T.T.T.T.T.T.T.T.T.T.T.T.",
"T.T.T.T.T.T.T.T.T.T.T.T.T.T.T.T.T.T.T.T.T.T.T.T.T.T.p.Y.Y.Y.Y.Y.Y.Y.Y.Y.Y.Y.U.l.p.T.T.T.T.T.T.T.T.T.T.T.T.T.T.T.T.T.T.T.T.T.T.T.",
"T.T.T.T.T.T.T.T.T.T.T.T.T.T.T.T.T.T.T.T.T.T.T.T.T.T.T.z.Y.Y.Y.Y.Y.Y.Y.Y.Y.Y.Y.Y.U.l.[ T.T.T.T.T.T.T.T.T.T.T.T.T.T.T.T.T.T.T.T.T.",
"T.T.T.T.T.T.T.T.T.T.T.T.T.T.T.T.T.T.T.T.T.T.T.T.T.T.T.T.s.U.Y.Y.Y.Y.Y.Y.Y.Y.Y.Y.Y.Y.H.c.E T.T.T.T.T.T.T.T.T.T.T.T.T.T.T.T.T.T.T.",
"T.T.T.T.T.T.T.T.T.T.T.T.T.T.T.T.T.T.T.T.T.T.T.T.T.T.T.T.T.Q c.Y.Y.Y.Y.Y.Y.Y.Y.Y.Y.Y.Y.Y.D.s.T.T.T.T.T.T.T.T.T.T.T.T.T.T.T.T.T.T.",
"T.T.T.T.T.T.T.T.T.T.T.T.T.T.T.T.T.T.T.T.T.T.T.T.T.T.T.T.T.T.T.` s.U.Y.Y.Y.Y.Y.Y.Y.Y.Y.Y.Y.Y.c.Y T.T.T.T.T.T.T.T.T.T.T.T.T.T.T.T.",
"T.T.T.T.T.T.T.T.T.T.T.T.T.T.T.T.T.T.T.T.T.T.T.T.T.T.T.T.T.T.T.T.T.p.E [ c.Y.Y.Y.Y.Y.Y.Y.Y.Y.Y.D.` T.T.T.T.T.T.T.T.T.T.T.T.T.T.T.",
"T.T.T.T.T.T.T.T.T.T.T.T.T.T.T.T.T.T.T.T.T.T.T.T.T.T.T.T.T.T.T.T.T.T.T.T.T.T.p.` E s.U.Y.Y.Y.Y.Y.L.[ T.T.T.T.T.T.T.T.T.T.T.T.T.T.",
"T.T.T.T.T.T.T.T.T.T.T.T.T.T.T.T.T.T.T.T.T.T.T.T.T.T.T.T.T.T.T.T.T.T.T.T.T.T.T.T.T.T.[ p.D.Y.Y.Y.Y.G.R T.T.T.T.T.T.T.T.T.T.T.T.T.",
"T.T.T.T.T.T.T.T.T.T.T.T.T.T.T.T.T.T.T.T.T.T.T.T.T.T.T.T.T.T.T.T.T.T.T.T.T.T.T.T.T.T.T.T.R l.U.Y.Y.Y.c.T.T.T.T.T.T.T.T.T.T.T.T.T.",
"T.T.T.T.T.T.T.T.T.T.T.T.T.T.T.T.T.T.T.T.T.T.T.T.T.T.T.T.T.T.T.T.T.T.T.T.T.T.T.T.T.T.T.T.T.T.s.L.Y.Y.Y.[ T.T.T.T.T.T.T.T.T.T.T.T.",
"T.T.T.T.T.T.T.T.T.T.T.T.T.T.T.T.T.T.T.T.T.T.T.T.T.T.T.T.T.T.T.T.T.T.T.T.T.T.T.T.T.T.T.T.T.T.T.l.U.Y.Y.c.` T.T.T.T.T.T.T.T.T.T.T.",
"T.T.T.T.T.T.T.T.T.T.T.T.T.T.T.T.T.T.T.T.T.T.T.T.T.T.2 f ` s.c.s.` f 5 T.T.T.T.T.T.T.T.T.T.T.T.T.c.Y.Y.Y.` T.T.T.T.T.T.T.T.T.T.T.",
"T.T.T.T.T.T.T.T.T.T.T.T.T.T.T.T.T.T.T.T.T.T.T.T.Z D.U.U.U.Y.Y.Y.U.U.U.L.E T.T.T.T.T.T.T.T.T.T.T.R ] n U R Z T.T.T.T.T.T.T.T.T.T.",
"T.T.T.T.T.T.T.d C M A [ p.[ R S Z Z S R ` R Z l.U.Y.Y.Y.Y.Y.Y.Y.Y.Y.Y.Y.Y.U.Z 2 5 f Y [ l.l.[ d R l._ a.S E T.T.T.T.T.T.T.T.T.T.",
"T.T.T.T.T.T.T.p A i.k.Z.h.a.D.U.Y.Y.Y.Y.l.s.D.Y.Y.Y.Y.Y.Y.Y.Y.Y.Y.Y.Y.Y.Y.Y.U.s.p.H.Y.Y.U.D.c.s _ P.I.P.n U T.T.T.T.T.T.T.T.T.T.",
"T.T.T.T.T.T.T.s h.I.I.S.a.u.x.Z.h.s.c.l.l.H.Y.Y.Y.Y.Y.Y.Y.Y.Y.Y.Y.Y.Y.Y.Y.Y.Y.Y.c.s.c.c.F.g.k.I.I.I.I.g.u.s.T.T.T.T.T.T.T.T.T.T.",
"T.T.T.T.T.T.T.T.g.P.I.I.I.I.I.S.i.u.a.` D.Y.Y.Y.Y.Y.Y.Y.Y.Y.Y.Y.Y.Y.Y.Y.Y.Y.Y.Y.Y.l.S i.A.I.I.I.I.I.S.M x.U.l.T.T.T.T.T.T.T.T.T.",
"T.T.T.T.T.T.T.T.A k.I.I.I.I.I.I.I.I.] p.Y.H.*.1.f.$.G.Y.Y.Y.Y.Y.Y.Y.U.~ ! &.( B.Y.Y.U d.I.I.I.I.I.I.] E G.Y.[ T.T.T.T.T.T.T.T.T.",
"T.T.T.T.T.T.T.T.2 ' A.I.I.I.I.I.I.k.x.U.H.$.@.i X i :.U.Y.Y.Y.Y.Y.U./ v . 7 #...L.Y.U.a.C.I.I.I.I.h.d U Y.Y.[ T.T.T.T.T.T.T.T.T.",
"T.T.T.T.T.T.T.T.T.d ] k.P.I.I.I.I.y.s.Y.B.+.7.& O q @.~ Y.Y.Y.Y.Y.D.o.7 + - e.6.D Y.Y.[ j.I.I.I.C.Z T.s.Y.Y.s.T.T.T.T.T.T.T.T.T.",
"T.T.T.T.T.T.T.T.T.T.f _ a.b.I.I.S.x.U.D.P e.w., # g e.X.L.Y.Y.Y.U.N e.g + , e.t.@.G.Y.U.C.J.I.J.' M T.c.Y.Y.H.T.T.T.T.T.T.T.T.T.",
"T.T.T.T.T.T.T.T.T.T.T.5 Q [ g.A.y.s.Y.G.} m.w.; # j 9.<.[ Y.Y.Y.L.} t.9 O 0 2.X.<.T Y.Y.` ) j.j.n T.T.c.L.Y.Y.c.T.T.T.T.T.T.T.T.",
"T.T.T.T.T.T.T.T.T.T.T.T.T.n ` u.A a.H.$.e.m.w., = V &. .W Y.Y.U./ r.m.g @ 6 ,.3.8.K Y.Y.R n p.n T.T.T.T.D.Y.Y.s.T.T.T.T.T.T.T.T.",
"T.T.T.T.T.T.T.T.T.T.T.T.T.T.T.2 x l.B.L m.m.8., % r 9.9.;.Y.Y.U.B t.m.q % 1 8.m.r.X.Y.Y.[ ` Z T.T.T.T.T.Z.Y.Y.p.T.T.T.T.T.T.T.T.",
"T.T.T.T.T.T.T.T.T.T.T.T.T.T.T.T.E Z.s.e m.m.7.1 8 z m.5.J G.Y.G.: m.m.u 9 u e.m.e.z Z.Y.` f T.T.T.T.T.T.B.Y.Y.p.T.T.T.T.T.T.T.T.",
"T.T.T.T.T.T.T.T.T.T.T.T.T.T.T.T.` D.c.c e.m.t.O.l t.m.} w %.4.f.x 8.m.t.l e.m.m.7.> G.Y.U T.T.T.T.T.T.T.Z.Y.Y.[ T.T.T.T.T.T.T.T.",
"T.T.T.T.T.T.T.T.T.T.T.T.T.T.T.T.s.H.U.l.&.I 6.m.m.9. .J [ v b G z.-.H @.m.m.n. .B p.Y.Y.U T.T.T.T.T.T.T.D.Y.Y.p.T.T.T.T.T.T.T.T.",
"T.T.T.T.T.T.T.T.T.T.T.T.T.T.T.T.c.L.Y.Y.G.z.G.N.M.V.B.c.Y.%.>.f.U.U.G.L.M.v.G.L.G.U.Y.Y.U T.T.T.T.T.T.c.U.Y.Y.s.T.T.T.T.T.T.T.T.",
"T.T.T.T.T.T.T.T.T.T.T.T.T.T.T.T.l.H.Y.Y.Y.Y.Y.U.L.Y.Y.Y.Y.Y.Y.Y.Y.Y.Y.Y.Y.U.Y.Y.Y.Y.Y.Y.S T.T.T.T.T.T.c.Y.Y.Y.x.T.T.T.T.T.T.T.T.",
"T.T.T.T.T.T.T.T.T.T.T.T.T.T.T.T.` D.Y.Y.Y.Y.Y.Y.Y.Y.Y.Y.Y.Y.Y.Y.Y.Y.Y.Y.Y.Y.Y.Y.Y.Y.Y.Y.R T.T.T.T.T.T.l.Y.Y.G.T.T.T.T.T.T.T.T.T.",
"T.T.T.T.T.T.T.T.T.T.T.T.T.T.T.T.T.p.Y.Y.Y.Y.Y.Y.Y.Y.Y.Y.Y.Y.Y.Y.Y.Y.Y.Y.Y.Y.Y.Y.Y.Y.Y.Y.p.T.T.T.T.T.T.[ Y.Y.s.T.T.T.T.T.T.T.T.T.",
"T.T.T.T.T.T.T.T.T.T.T.T.T.T.T.T.T.l.Y.Y.Y.Y.Y.Y.Y.Y.Y.Y.Y.Y.Y.Y.Y.Y.Y.Y.Y.Y.Y.Y.Y.Y.Y.[ T.T.T.T.T.T.T.p.Y.Y.[ T.T.T.T.T.T.T.T.T.",
"T.T.T.T.T.T.T.T.T.T.T.T.T.T.T.T.T.T.s.Y.Y.Y.Y.Y.Y.Y.Y.Y.Y.Y.Y.Y.Y.Y.Y.Y.Y.Y.Y.Y.Y.Y.l.T.T.T.T.T.T.T.p.D.Y.U.p.T.T.T.T.T.T.T.T.T.",
"T.T.T.T.T.T.T.T.T.T.T.T.T.T.T.T.T.T.T.R H.Y.Y.Y.Y.Y.Y.Y.Y.Y.Y.Y.Y.Y.Y.Y.Y.Y.Y.Y.Y.` T.T.T.T.T.T.T.T.p.Y.Y.s.T.T.T.T.T.T.T.T.T.T.",
"T.T.T.T.T.T.T.T.T.T.T.T.T.T.T.T.T.T.T.T.T.M l.Y.Y.Y.Y.Y.Y.Y.Y.Y.Y.Y.Y.Y.Y.U.l.n a T.T.T.T.T.T.T.T.T.s.Y.Y.p.T.T.T.T.T.T.T.T.T.T.",
"T.T.T.T.T.T.T.T.T.T.T.T.T.T.T.T.T.T.T.T.T.T.T.Y M n Z Y E Q ` E R Z n C Q s.R T.T.T.T.T.T.T.T.T.T.[ H.Y.c.T.T.T.T.T.T.T.T.T.T.T.",
"T.T.T.T.T.T.T.T.T.T.T.T.T.T.T.T.T.T.T.T.T.T.T.c.U.U.U.U.U.U.U.U.U.U.U.L.U.Y.Z T.T.T.T.T.T.T.T.T.T.s.Y.U.[ T.T.T.T.T.T.T.T.T.T.T.",
"T.T.T.T.T.T.T.T.T.T.T.T.T.T.T.T.T.T.T.T.T.T.[ H.Y.Y.Y.Y.Y.Y.Y.Y.Y.Y.Y.Y.Y.Y.C T.T.T.T.T.T.T.T.T.` H.Y.l.T.T.T.T.T.T.T.T.T.T.T.T.",
"T.T.T.T.T.T.T.T.T.T.T.T.T.T.T.T.T.T.T.T.T.T.D.Y.Y.Y.Y.Y.Y.Y.Y.Y.Y.Y.Y.Y.Y.Y.R T.T.T.T.T.T.T.T.R D.Y.D.Y T.T.T.T.T.T.T.T.T.T.T.T.",
"T.T.T.T.T.T.T.T.T.T.T.T.T.T.T.T.T.T.T.T.T.T.D.Y.Y.Y.Y.Y.Y.Y.Y.Y.Y.Y.Y.Y.Y.Y.` T.T.T.T.T.T.T.U c.Y.H.[ T.T.T.T.T.T.T.T.T.T.T.T.T.",
"T.T.T.T.T.T.T.T.T.T.T.T.T.T.T.T.T.T.T.T.T.T.c.Y.Y.Y.Y.Y.Y.Y.Y.Y.Y.Y.Y.Y.Y.Y.p.T.T.T.T.T.T.Y c.U.U.s.T.T.T.T.T.T.T.T.T.T.T.T.T.T.",
"T.T.T.T.T.T.T.T.T.T.T.T.T.T.T.T.T.T.T.T.T.* l.Y.Y.Y.Y.Y.Y.Y.Y.Y.Y.Y.Y.Y.Y.Y.s.T.T.T.T.T.` D.Y.U.s.T.T.T.T.T.T.T.T.T.T.T.T.T.T.T.",
"T.T.T.T.T.T.T.T.T.T.T.T.T.T.T.T.T.T.T.T.  2 c.Y.Y.Y.Y.Y.Y.Y.Y.Y.Y.Y.Y.Y.Y.Y.s.2 * M s.l.G.Y.D.[ T.T.T.T.T.T.T.T.T.T.T.T.T.T.T.T.",
"T.T.T.T.T.T.T.T.T.T.T.T.T.T.T.T.T.T.T.T.T.[ U.Y.Y.Y.Y.Y.Y.Y.Y.Y.Y.Y.Y.Y.Y.Y.c.2 n l.H.Y.U.s.U T.T.T.T.T.T.T.T.T.T.T.T.T.T.T.T.T.",
"T.T.T.T.T.T.T.T.T.T.T.T.T.T.T.T.T.T.T.T.T.z.Y.Y.Y.Y.Y.Y.Y.Y.Y.Y.Y.Y.Y.Y.Y.Y.Y.Y l.Y.D.[ ` T.T.T.T.T.T.T.T.T.T.T.T.T.T.T.T.T.T.T.",
"T.T.T.T.T.T.T.T.T.T.T.T.T.T.T.T.T.T.T.T.` H.Y.Y.Y.Y.Y.Y.Y.Y.Y.Y.Y.Y.Y.Y.Y.Y.Y.S Y s.T.T.T.T.T.T.T.T.T.T.T.T.T.T.T.T.T.T.T.T.T.T.",
"T.T.T.T.T.T.T.T.T.T.T.T.T.T.T.T.T.T.T.T.c.Y.Y.Y.Y.Y.Y.Y.Y.Y.Y.Y.Y.Y.Y.Y.Y.Y.Y.s.T.T.T.T.T.T.T.T.T.T.T.T.T.T.T.T.T.T.T.T.T.T.T.T.",
"T.T.T.T.T.T.T.T.T.T.T.T.T.T.T.T.T.T.T.C D.Y.Y.Y.Y.Y.Y.Y.Y.Y.Y.Y.Y.Y.Y.Y.Y.Y.Y.U.T.T.T.T.T.T.T.T.T.T.T.T.T.T.T.T.T.T.T.T.T.T.T.T.",
"T.T.T.T.T.T.T.T.T.T.T.T.T.T.T.T.T.T.T.p.H.Y.Y.Y.Y.Y.Y.Y.Y.Y.Y.Y.Y.Y.Y.Y.Y.Y.Y.Y.S T.T.T.T.T.T.T.T.T.T.T.T.T.T.T.T.T.T.T.T.T.T.T.",
"T.T.T.T.T.T.T.T.T.T.T.T.T.T.T.T.T.T.T.n D.Y.Y.Y.Y.Y.Y.Y.Y.Y.Y.Y.Y.Y.Y.Y.Y.Y.Y.Y.Z T.T.T.T.T.T.T.T.T.T.T.T.T.T.T.T.T.T.T.T.T.T.T.",
"T.T.T.T.T.T.T.T.T.T.T.T.T.T.T.T.T.T.T.T.c.Y.Y.Y.Y.Y.Y.Y.Y.Y.Y.Y.Y.Y.Y.Y.Y.Y.Y.D.T.T.T.T.T.T.T.T.T.T.T.T.T.T.T.T.T.T.T.T.T.T.T.T.",
"T.T.T.T.T.T.T.T.T.T.T.T.T.T.T.T.T.T.T.T.T.Z c.Y.Y.Y.Y.Y.Y.Y.s.H.Y.Y.Y.Y.Y.Y.` M T.T.T.T.T.T.T.T.T.T.T.T.T.T.T.T.T.T.T.T.T.T.T.T.",
"T.T.T.T.T.T.T.T.T.T.T.T.T.T.T.T.T.T.T.T.T.p c.Y.Y.Y.Y.Y.Y.B.4 Q Y.Y.Y.Y.Y.Y.` T.T.T.T.T.T.T.T.T.T.T.T.T.T.T.T.T.T.T.T.T.T.T.T.T.",
"T.T.T.T.T.T.T.T.T.T.T.T.T.T.T.T.T.T.T.T.T.[ H.Y.Y.Y.Y.Y.Y.H.n l.Y.Y.Y.Y.Y.Y.s.T.T.T.T.T.T.T.T.T.T.T.T.T.T.T.T.T.T.T.T.T.T.T.T.T.",
"T.T.T.T.T.T.T.T.T.T.T.T.T.T.T.T.T.T.T.T.T.T.[ U.s.n Q U.Y.Y.S c.Y.Y.G.p p.U.Z T.T.T.T.T.T.T.T.T.T.T.T.T.T.T.T.T.T.T.T.T.T.T.T.T.",
"T.T.T.T.T.T.T.T.T.T.T.T.T.T.T.T.T.T.T.T.T.T.T.T.T.o f D.Y.Y.Z 4 p.Y.H.5 T.T.T.T.T.T.T.T.T.T.T.T.T.T.T.T.T.T.T.T.T.T.T.T.T.T.T.T.",
"T.T.T.T.T.T.T.T.T.T.T.T.T.T.T.T.T.T.T.T.T.T.T.T.T.T.s.Y.Y.Y.R o ` Y.Y.S T.T.T.T.T.T.T.T.T.T.T.T.T.T.T.T.T.T.T.T.T.T.T.T.T.T.T.T.",
"T.T.T.T.T.T.T.T.T.T.T.T.T.T.T.T.T.T.T.T.T.T.T.T.T.T.c.Y.Y.D.Z M D.Y.Y.T.T.T.T.T.T.T.T.T.T.T.T.T.T.T.T.T.T.T.T.T.T.T.T.T.T.T.T.T.",
"T.T.T.T.T.T.T.T.T.T.T.T.T.T.T.T.T.T.T.T.T.T.T.T.T.T.d E ` M T.T.U Y Z T.T.T.T.T.T.T.T.T.T.T.T.T.T.T.T.T.T.T.T.T.T.T.T.T.T.T.T.T.",
"T.T.T.T.T.T.T.T.T.T.T.T.T.T.T.T.T.T.T.T.T.T.T.T.T.T.T.T.T.T.T.T.T.T.T.T.T.T.T.T.T.T.T.T.T.T.T.T.T.T.T.T.T.T.T.T.T.T.T.T.T.T.T.T."
};
