/* XPM */
static char *result[] = {
/* columns rows colors chars-per-pixel */
"64 64 191 2 ",
"   c #1A2F3D",
".  c #17313D",
"X  c #1B333E",
"o  c #19383D",
"O  c #1B2E41",
"+  c #1C3444",
"@  c #1C3B45",
"#  c #1E344B",
"$  c #1E3B4C",
"%  c #1F3752",
"&  c #1F3B53",
"*  c #1F3A58",
"=  c #223347",
"-  c #253C46",
";  c #2A3C45",
":  c #21344D",
">  c #28374C",
",  c #223C4C",
"<  c #2B3C4C",
"1  c #213651",
"2  c #223C54",
"3  c #2B3D53",
"4  c #233C5A",
"5  c #293D58",
"6  c #323E51",
"7  c #243E61",
"8  c #1B4147",
"9  c #1E424D",
"0  c #1F4252",
"q  c #23414C",
"w  c #2B434D",
"e  c #314244",
"r  c #34444D",
"t  c #35484F",
"y  c #214453",
"u  c #2C4453",
"i  c #224955",
"p  c #2D4A55",
"a  c #23425B",
"s  c #2C435B",
"d  c #234B5B",
"f  c #2C4C5B",
"g  c #344454",
"h  c #394556",
"j  c #334B54",
"k  c #3A4A52",
"l  c #32455A",
"z  c #38475C",
"x  c #334D5B",
"c  c #394D5B",
"v  c #24525D",
"b  c #2C515E",
"n  c #375056",
"m  c #3C5154",
"M  c #34525D",
"N  c #3B535C",
"B  c #264364",
"V  c #2B4665",
"C  c #264C62",
"Z  c #2C4C65",
"A  c #2D4D69",
"S  c #324662",
"D  c #334B65",
"F  c #394C64",
"G  c #344D6A",
"H  c #384F6A",
"J  c #265363",
"K  c #2C5465",
"L  c #2D5A66",
"P  c #275268",
"I  c #2D5469",
"U  c #265868",
"Y  c #2E5B69",
"T  c #345463",
"R  c #395464",
"E  c #335B66",
"W  c #3A5A65",
"Q  c #34536A",
"!  c #3B546C",
"~  c #345C6B",
"^  c #3B5B6C",
"/  c #2E5472",
"(  c #355471",
")  c #3B5570",
"_  c #355A71",
"`  c #3C5B71",
"'  c #3E5F7B",
"]  c #35616D",
"[  c #3B616D",
"{  c #366170",
"}  c #3D6371",
"|  c #3E6973",
" . c #3F6078",
".. c #414F59",
"X. c #46515D",
"o. c #44595D",
"O. c #4D5A5E",
"+. c #545C5B",
"@. c #435462",
"#. c #4A5465",
"$. c #445B63",
"%. c #4C5B65",
"&. c #41566E",
"*. c #435B6E",
"=. c #4A5C6C",
"-. c #525C65",
";. c #5C5E61",
":. c #415671",
">. c #445C72",
",. c #4B5E73",
"<. c #445D7A",
"1. c #4C5F7A",
"2. c #535F70",
"3. c #43636E",
"4. c #49656F",
"5. c #47686F",
"6. c #4B696E",
"7. c #546265",
"8. c #5F6364",
"9. c #52656E",
"0. c #5B6168",
"q. c #446373",
"w. c #4C6374",
"e. c #456A74",
"r. c #4C6A74",
"t. c #43637A",
"y. c #4D637A",
"u. c #456A79",
"i. c #4D6C79",
"p. c #526575",
"a. c #596776",
"s. c #536B75",
"d. c #5B6C76",
"f. c #52657A",
"g. c #596778",
"h. c #556B7B",
"j. c #5B6C7B",
"k. c #4D7079",
"l. c #547076",
"z. c #5B7177",
"x. c #55717A",
"c. c #5C737C",
"v. c #5E797E",
"b. c #60646A",
"n. c #646D71",
"m. c #636E7B",
"M. c #627277",
"N. c #6A7577",
"B. c #63747C",
"V. c #6B757D",
"C. c #62797F",
"Z. c #6D797E",
"A. c #70767E",
"S. c #717A7E",
"D. c #4C6581",
"F. c #516784",
"G. c #556A85",
"H. c #5F6E80",
"J. c #527481",
"K. c #5C7382",
"L. c #5E7983",
"P. c #5B7988",
"I. c #606F80",
"U. c #647581",
"Y. c #6B7682",
"T. c #647A81",
"R. c #6C7B83",
"E. c #657C8A",
"W. c #6C7D88",
"Q. c #707780",
"!. c #727C84",
"~. c #797F83",
"^. c #727F8A",
"/. c #6D818A",
"(. c #758186",
"). c #798286",
"_. c #74828A",
"`. c #7B8489",
"'. c #7D898E",
"]. c #768890",
"[. c #7D8B93",
"{. c #80868A",
"}. c #82898F",
"|. c #838D91",
" X c #839497",
".X c #8A9397",
"XX c #8D9599",
"oX c #969897",
"OX c #979998",
"+X c #9C9C9C",
"@X c #97A1A7",
/* pixels */
"p j n M M j 9 i b K T W.W.U./._.I q.Y t.~ h.c.K.K.i.K.P q.I I I !././.Y.!.# , a B 0 7 I I ~ I _ >.! y.>.y.c.B.R.C.(.{.y v p.+XW ",
"T f i w n w q p j p f c.!.T.U.c.C C Q I T h.K.H.c.h.h.P I ` I T ~._.!.Z.c.2 4 y & & & P Z I E Q >.) &.! ! l.z.z.c.C.S.i j E 4.c ",
"p q q m q @ i n j , q B.j.d.B.U.Q ^ C E ~ K.h.c.K.f.w.^ Q P f T R.R.!.R.B.a 2 , $ + % W Q P Z T ! >.*.,.w.B.C.c.M.N.S.M i N , v ",
"n p w n j i o @ p w j M.B.s.c.j.^ ` _ K I U.c.w.p.r.=.} q.C C P j.M.B.V.~.$ 1 : # # # ^ L Q t.^ *.! y.<.! `.).(.S.Z.S.N q 8 y d ",
"9 j p N n 9 i 8 o 0 p c.h.r.a.T.q.t.t.] I 6.h.s.p.h.3.f P q.I E B.R.R.W.U.$ # # $ $ , Q Q T P Q j.E.}.>.w.!.`.).(.(.Z.K T w $ q ",
"r.l.C.x.6.Y ] L ~ Y b p d ^ _ ^ v E b M y a.C.r.l.l.o.E ~ L [ [ ) I Q Q a w [ E L Y L s Z Q l z e.E | Y ~ n.N.a.c.c.0.G Q ! ! ' ",
"C.v.r.s.l.L | | L Y Y E l x y x i i v L [ 6.x.s.r.s.[ L L [ E ] ^ Z q.>.R b M W p v v D s ! Q < u.] L E ] V.m.p.p.p.d.! Q B C / ",
"L.R.C.l.r.] E E Y E L ` Z x u f M N N p [ C.z.5.v.v.r.] ] [ L ~ Z I I >.E L W E b d i 5 R 4 B B x.e.| L L B.S.d.p.p.p.H Q ! 4 V ",
"x.l.C.Z.v.] Y E ] L ] ~ ! Q Q _ i.[ T p M r.r.r.r.C.r.~ E L L J ` Q Q I Z W E M W L b $ 4 a 1 a k.u.e.[ ~ j.!.Y.V.c.d.Z G ) ) _ ",
"v.5.k.r.l.[ | | | ] ] W ~ I C W { ~ L W j l.x.c.s.r.4.L Y L L L T I I Z d v N E W ] ~ a 1 4 G s k.k.e.r.u.j.K.!.!.!.!.( ( _ ( t.",
"c.r.6.k.l.] | | ] Y [ T ~ Q s 0 J U I J i o.r.w.6.4.m ~ E L L L ~ ` *.^ P i d v M ~ L 1 1 l F G k.u.u.e.i.;.a.d.R.~.8.C A ! ! ( ",
"u.r.[ x.R.R a y n 8 p d.H.B.d.w.V.R.~.Y.a.! Q &.! H >.^ *.p.a.>._.`.!.W.`.- w - @ $ @ |.^.I.B.2.L | [ E [ I ~ T Q R C h.c.s.p.K.",
"u.q.[ [ q.K d T ~ x j U.Y.p.f.h.!.!.!.Q.Y.B G H Z D y.*.W ,.a.w.B.Z.!.(.R.p R f b M M f.p.=.&.&.| ^ [ ~ ] K K Z Z I P r.j.a.r.x.",
"| q.] ~ [ 0 c T R R j U.d.w.h.c.!.R.!.^.j.:.:.>.f.1.G p.*.=.a.p.B.V.c.B.B.i p b f f T f.:.=.2.a.[ [ E ~ [ Z d K C ~ w.a.w.x.c./.",
"| L E q.[ u f c F d a U.i.h.j.j.V.Y.Q.Y.j.H :.1.H H y.f.>.>.g.f.C.C.C.T.c.d p u q q w 2.2.2.,.1.| [ Y Y q.Q L Q ` i.i.r.B.V.s.K.",
"^ ~ J Y 3.c f & 0 i d B.w.p.p.r.g.a.g.g.p.! ) ) :.<.G p.>.y.U.j.Z.d.M.N.R.e k p - w w p.2.2.2.g.^ ^ e.r.u.` q.Q ^ ^ ` U.r.r.r.P.",
"T.j.Y.j.h.p.p.w.p.9.p.q.} } _ | a 2 a y 2 c.L.x.x.x.r.p.j.w.! H g.m.m.g.,.u 2 z : y R V.B.V.V.Q.c.c.5.5.c.y.p.:.! H ! H :.,.>.F.",
"Y.U.K.!.c.a.a.r.p.4.j.~ Q W ^ Q 2 y * 0 a k.i.v.i.r.r.f.g.f.,.! I.I.U.I.g.a V a a G D !.R.V.!.S.r.z.6.5.B.f.y.,.! H :.H 1.,.,.D.",
"j.j.c.V.B.p.a.s.w.p.f.E ~ ^ ^ W a 2 a s a v.x.x.x.i.h.f.f.f.:.:.+XI.I.H.f.g + + # $ # V.R.!.T.S.v.M.r.x.T.<.f.,.&.! :.,.,.:.,.D.",
"j.p.m.j.d.r.a.s.r.w.c.W Q ^ 3.^ R ) _ ) Q x.T.h.l.c.x.,.f.y.:.>.U.I.I.g.,.Z F p g     V.V.).).~.R.v.l./.B.>.f.f.,.&.:.H 1.:.G <.",
"!.T.j.j.B.c.p.p.a.p.p.[ E W ^ q.` ( ~ >.) e.r.z.V.h.v.G H ) G ,.m.U.g.,.*.u h & a 1 2 N.).)._.).v.6.[.s.k.R w.f.>.>.2.1.1.1.G ( ",
"} E I P T w.,.6.p.w.=.R.W./.(.T.^ 4.r.c.r.=.,.p.d.g.%.,.1.H :.g.D H F z V q @ N o j q ~ ~ ^ Q P j.6.! ,.p.w.^ p.^ ! @.) H :.:.D.",
"i.Y I L L d.d.a.w.p.w.!.!.(.!.R.W ~ ^ [ 3.p.h.p.j.j.p.,.,.:.H H 2 & 5 F Q 9 o @ i y i L P P P } R ! a.p.p.! w.q.h.a.1.:.H &.H D.",
"q.^ E I L p.p.j.B.c.h.C.W.R.R.R.r.c.h.c.e.c.j.j.j.p.,.2.,.,.H D V B ! V ! 9 i i i 9 9 C P E E ^ ,.2.&.d.,.^ y.c.w.w.1.H ) ) <.D.",
"u.~ ] } q.w.p.y.w.j.c.T.C.R.R.W.e.i.K.u.i.c.j.h.h.f.q.&.,.,.>.D G ( A ! ( i q 9 @ 9 @ U q.q.^ ~ &.>.,.,.U.i.h.w.w.w.p.G >.H >.D.",
"} Y [ [ [ h.y.r.w.w.w.Z.S.!.(.Z.r.v.s.i.k.h.p.h.j.y.w.f.g.p.,.! l 4 4 4 4 9 9 9 9 @ @ ~ [ [ E Q &.w.|.H.p.c.w.a.4.=.w.D H H ! y.",
"L E _ E L -.Y.K.U.h.%.a.M.R.R.S. Xr.[ e.5.X.a.h.d.a...f.y.f.f.) ( Q ! 2 2 e q w @ $ j E ~ ~ P L y.W.j.I.j.=.f.r.w.e.=.>.! G G <.",
">.*.>.w.f.f.w.y.w.w.w.c.z.z.z.l., c R E f s.r.N.B.c.d.<.w.y.` >.t.q.W ^ ^ ^ G R ! Q G T.L.U.c.c.! ,.p.p.w.c.XXW.j.h.R.^ >._ Q / ",
">.! 1.f.f.j.h.h.H.y.w.c.c.x.s.s.j j x T ~ d.s.z.B.B.d.p.y.q.>.w.q.3.q.t.i.! ! Q G H R x.B.c.B.T.p.w.j.j.j.K.U.XXi.B.Z.Q >.q._ t.",
"f.,.p.f.w.c.U.U.T.K.j.x.B.T.c.L.q 9 N T ~ T.p.d.A.B.c.*.*.f.>.w.q.q.[ q.j.G ! Q Z Z V r.r.C.L.T.w.h.H.c.h.K.U.U.p.U.R.V Q Q A _ ",
",.=.,.w.f.H.H.U.U.m.f.B.c.C.T.T.M T W I _ B.d.C.S.B.M.w.Q W f.t.^ } q.q.r.V ! ! G Q Q e.v.h.L.T.w.y.h.f.j.c.c.c.h.Y.R.C Q Q Z D.",
",.>.*.&.=.j.j.j.,.*.^ T.T.T.B.v.^ } ~ ~ Q x.v.U.(.(.M.>.w.>.>.f.W q.[ e.w.) >.! G ! Q h.v.x.x.T.y.f.h.j.f.B.B.a.a.T.T.Z Q ~ ^ t.",
"! :.H ! q.9 9 i i i i e.] L } e.: = # % z I V Z Z V a y.>.,.>.! W ! ^ w.` s < l g l l g.j.g.G.g.! ) 7 V Z C.B.z./.N.R.r + % 4 1 ",
"f.>.:.y.! 9 9 0 i i 9 L ] } Y ] 7 D S 6 % 0 s a & c Z f.>.>.>.y.>.! Q w.y.* D s s S & B.g.f.g.2.>.G B V V v.v.c.v.v.l.+ > l D 4 ",
"y.G.y.G ! 9 9 9 i i i 5.L ] e.L S F H D h * y l j F &.y.y.<.>.>.` >.q.y.w.# # 2 S 5 5 I.I.j.g.H.R Q G G ! L.v.R.v.v.C.< 6 S V 5 ",
"<.p.! ,.q.c j M T M L 5.r.| L ~ F S D B 5 $ 1 , 2 C ^ y.,.f.y.,._ >.) q.Q 6 O = g s V f.g.j.f.j.Z V Z Z ^ v.C.v.x.v.v.< 6 H 5 D ",
"H.! y.y.y.j p j.E b b ] t.e.e.~ F 7 F 4 7 , 2 2 2 a I >.j.1.f.f.) ^ >.w._ S h O 6 > 5 m.g.I.1.2.H V G ! q.x.l.s.v.K.c.r 6 S V D ",
"u.q.| } E M.e.r.6.l.7.* : 1 4 B !.~.Y.Y.Y.=.y.y.f.f.@.j.OXj.Y.U.,.! ^ ! :.A.).{.Y.A.b.Q.V.Q.~.~.`.T.[.oXB.n.Z.c.z.B.8.& a i W ) ",
"] ] ^ ~ u.z.l.x.l.r.l.% 4 : 1 4 ~.^.!.W.U.<.1.f.1.f.<.I.j.g.U.m.>.>.w.,.>.Y.`.{.Q.Y.m.Y.m.~.}.^.~.R.W.(.c.!.(.(.B.z.B.w 0 0 B P ",
"u.[ K [ ~ C.x.k.v.s.r.& 1 1 S # `.^.!.R.U.,.>.f.2.f.,.m.g.2.a.n.>.>.<.<.f.!.!.{.~.Q.A.Q.Q.`.^.Q.R.T.R.!.c.`.(.`.Z.M.B.x # & $ 0 ",
"e.[ K J Y /.l.k.k.l.x.B 7 4 % 4 `.).N.j.d.2.f.,.y.f.:.m.a.,.,.m.) >.>.y.w.Y.!.{.`.~.!.A.Q.~.!.Y.Z.(.V.B.C.).(.(.(.Z.d.2 M f u , ",
"| [ E [ Y B.B.c.x.x.C.# # 2 7 7 Y.!.B.d.d.H ,.f.2.,.=.U.a.,.w.m.w.>.q.) f.V.m.!.~.Q.!.~.~.~.Q.Q.z.W.U.B.c.Z.!.~.Z.B.B.y 2 f f I ",
"{ K | J q.%.z.C.B.C.+.l 5 5 3 h !.V.N.m.j.h H &.w.f.X.g.a.g.a.Y.&.>.,.y.y.;.B.Z.S.A.;.A.Q.Q.m.Y.B.B.N.n.n.+.V.Z.N.B.+., , f s f ",
"^ >.f.p.j.0 m W T j d g.U.Y.Q.~.E I y d y >.w.>.! Z ( Q ! ! y.j.r r < X X ~ q.~ W W ! Q.Q.Y.Q.I.=.*.,.p.p.# : = + h < (.`.`.V._.",
"t.^ >.y.p.b R 0 Z w d B.Y.m.U.Y.J C 0 i N w.q.Z C w.G W ! w.H.j.y M f d x _ e.[ R E K V.V.m.Y.Q.>.*.2.p.=.g s 6 g h h R.~.S.N.R.",
"f.f.h.f.x.p N f E q q U.U.m.U.!.0 0 0 T T G Z C >.) q.>.p.w.f.j.j y x M R q.q.I K K f m.m.m.^.!.! &.2.p.p.z ..h h # + V.~.!.d./.",
"j.K.U.j.j.M d N ^ p g j.I.m.V.!.0 K W D 9.Q ! >.Q _ ! >.p.r.p.4.< t g w f q.^ I W ~ P V.Q.Q.Q.Y.1.,.d.p.,.z 3 3 l g # z.S.~.Z./.",
"w.>.>.=.r.0 d i J K , m.m.m.Y.!.i d p R R y.>.^ ) I q.a.p.p.r.w.g u w < j } [ ~ I E T V.m.A.!.!.,.f.I.f.h.3 h =.u 3 # d.B.!.V.].",
"i c N j b 0 v v v v v Z.(.T./.S.f.c.j.h.w.G D 3 F a B d.d.c.a.B.3.[ E e.3.h.r.h.w.w.=.t.w.q.q.t.( H H G Z c.c.x.v.x.l.^ 3.a.x.K.",
"^ c c y N M v v v 9 i R._.(.T.R.h.w.>.p.j.B a l D 2 a C.V.l.d.l.3.[ [ ] ^ j.h.y.c.w.w.q.t.q.3.>.:.V 7 B s c.v.v.c.L.c.w.q.p.h.E.",
"i M c x E E ] ] E 8 8 (.(.(.R.T.p.f.*.w.w._ ( s V a 2 m.W.Z.!.R.[ [ u.e.i.c.r.=.>.w.d.` T [ ~ E B V 4 B 2 d.l.C.v.c.l.r.y.h.B.E.",
"w x x j 0 M M ] b p 8 (.R.(.(.Z.L.>.>.*.j.V ( V g s Z (.Z.~.!.Z.r.e.e.x./.j.a.h.w.w.d.^ I W I T 5 V 7 7 2 l.d.l.h.r.s.t.y.i.K./.",
"R y 2 2 q v T ] E y c T.R.T./.Z.=.>.p.p.f.B A A ! G ( ~._.R.V.Y.e.r./.x.k.4.p.a.w.w.h.W K E I T 1 B F B 4 C.C.l.5.r.x.s.^ p.p.T.",
"z 5 1 1 : E ~ { ~ Y b e./.k.e.5.v.T.C.B.V.7 7 V G G 3 <.>.w.Q w.x.c.r.] ] M.C.C.B.c.7.^ ] ~ E L @ l < ; r d.c.l.l.v.$.t r o @ J ",
"7 7 4 7 1 E _ ] E T M e.| r.e.r.Z.c.K.T.c.4 7 7 B H ( ,.^ _ Q *.5.l.5.] e.R.C.C.R.c.x.] e.L 5.] + @ 0 y t c.c.x.x.x.c.t @ o + v ",
"B 7 4 7 4 P J J R ~ T u.u.q.e.r.W.U.T.T.c.: 4 & 4 4 7 :.>.Q >.>.e.x.e.e.e.6.5.r.x.r.9.e.e.| 5.e., # # y 2 s.s.z.x.r.r.w q + + v ",
"7 7 7 7 D } L d E [ E 3.t.[ 3.3.z.C.T.v.T.s h z F < l ^ q.*.^ _ k.r.r.k.k.l.B.Z.R.R.v.| u.e.] E $ $ + + + r.z.x.r.e.r.w w w @ W ",
"5 5 H H D { d d K L [ q.^ E 3.[ z.c.B.c.T.3 3 #.5 5 G Q ) ! G Z l.6.s.s.s.C.c.z.z.z.z.e.r.e.[ e.- w j g j L.d.C.x.5.l.j r - ; E ",
"F S H G S I Y Y E } M ~ I ~ Y Y T.j.j.B.B.> 3 S :.,.y.Q y._ =.I 5.r.6.5.5.8.C.l.r.c.O.i.| ~ e.[ < u u @.$.%.T.C.c.s.O.; w w x ~ ",
"I.G.I.g.f.q.r.h.^ ^ e.R.W.V.B.c.i $   - ; M.V.!.{.Q.~.d d W b x r.[ h.x.r.s.c.d.w.c.B.p u w & 2 j.m.B.B.B.&.>.` ^ >.w.R.`.T.R.].",
",.&.m.I.j.i.y.q.*.I q.V.j.U.V.R.y y . r + z.c.(.~.`.`.y 0 0 N T w.3.3.*.*.4.r.4.w.B.j.x f s D l V.n.Y.T.V.>.G.>.) w.w.].'.W.C.(.",
":.&.&.,.m.q.q.*.w.T 3.T.d.x.Y.R.& T -   X z.z.B.Q.!.!.+ - r w + w.4.9.3.^ 3.w.=.r.d.d.D G Z I Q j.B.B.V.R.OX! ( >.y.>.(.'.).!.'.",
"&.&.H :.p.W W W 3.^ t.B.a.j.U.^.r x T f x /.T.C.B.B.N.w r t - w E E q.r.r.3.w.*.w.e.a.l F Q ( ( m.B.Y.V.V.E.<.q.>.T Q (.{.).).'.",
"F.1.,.F.G.u. .t.u.P. .U.T.W.[.R.u N _ _ Q XX[.E.T.T.c.%.%.N ~ ` u.u.x.J.u.P.L.E.i.K.k.2 ^ ' t.( ].].].'._.D.<.( A ' t. X|.XX.X@X"
};
