/* XPM */
static char *result[] = {
/* columns rows colors chars-per-pixel */
"64 64 47 1 ",
"  c gray58",
". c #979797",
"X c #9D9D9D",
"o c #9F9F9F",
"O c #A0A0A0",
"+ c #A2A2A2",
"@ c gray64",
"# c #A5A5A5",
"$ c gray65",
"% c gray66",
"& c #A9A9A9",
"* c gray67",
"= c gray68",
"- c #AEAEAE",
"; c gray69",
": c #B1B1B1",
"> c gray70",
", c #B4B4B4",
"< c #B6B6B6",
"1 c #B7B7B7",
"2 c #B9B9B9",
"3 c gray73",
"4 c #BBBBBB",
"5 c #BCBCBC",
"6 c gray",
"7 c gray75",
"8 c #C1C1C1",
"9 c gray76",
"0 c #C3C3C3",
"q c gray77",
"w c #C5C5C5",
"e c #C6C6C6",
"r c gray78",
"t c #C8C8C8",
"y c gray79",
"u c #CACACA",
"i c #CBCBCB",
"p c gray80",
"a c #CDCDCD",
"s c gray81",
"d c #D0D0D0",
"f c #D2D2D2",
"g c LightGray",
"h c #D5D5D5",
"j c #D7D7D7",
"k c #D8D8D8",
"l c #DADADA",
/* pixels */
"86780088777653223587336677766780000qqyaaiiiiiaaqeityyyiaiiiitdfh",
"rw999qwryyyrwwq986677767788899999qwwrupaaaasappauu8yyyyyrrrrpjlk",
"6qw99qwrryryyuyrqq987776678998889qwwwypppppaaapasdq89q987788qagj",
":189899qwrrrruuywq9877655677766789qwqqwrypppssaugfawq9qwwrryquaf",
"#*1987899ryyryuuuyw97654676654546789q99wwrupaapyaggdpuyruyupqusd",
".X@,8r8888qrryyuuuyq75422544444468qqww99wrryddpuagggfpuruppdppaf",
"o XX-7q8978qrryyuuyr84227qqw9865669rrwrwwrrrpspqyffggfpur9516yaf",
"-%Ooo&4qw999wrryyyuyq62<48qrq9866569ryuuyyrupsywysddfgfadpywqwph",
">;*%+X+,8rw9qryyyyyyw84158qwq9866677quyuuuyrwpy89sddfffddgap5suf",
"::>;;-*&>25889wyyyyyrw61489rw997667549wwrwrwrpy86psdfhgfjkhsjdyp",
";,>::,<,156qyrryyuyyywq529qqq887898897rw9wyrryw45ussfhgdfhkp6rfh",
"O::-=><,>><17wypuppyuy976878wwq88876527rywyuuyr96ruupsdddadas2>5",
"o&,-=-*&&*>,<2qruppyuar626wyw99877986618uuyyuyr98wupyyupupyppw4>",
"+@>;=:-&$%*=-;:18rpaaaayqwqruyw988q997746upyrrq88rupyywyrwuppu95",
"#O$&&:,:*$&%%$%=,26qppappppppspprqwwwqq957purqw89yppy9948rwuapr7",
"#@@#*-,<:$$%**%#*><<<8upupppypasssapyyuuprquauqqq7221588456rpay8",
"O+O#-;,,,&&***$$%=,1<<17yuyuryuasffdauuasdpppdsqpspww99q9656rpuq",
"@Oo@-;,<,;-=**&$#$->:-&>467wrrruuadddsrppsddsuwryudspyrrrw997wyq",
"%+oO=;,<<>>---%@+@*:>:@#-276878q99ypasdyapuuyw29rradspuyrwwrrwwq",
"=#@#*;,<<>>;;==&$@&;::=$=&-#*;><6559pqppw8qwqqw:wyassaasssapyrr8",
";%$&*;>,<,<<<<>=&#&-::-$@&=-=**:=->::79psq68ry7wqyupassddddsspy9",
";*#%&;:,<,<<124<>&%->>:-%$=;:>--=->,><6waaywwwrrraaasdfgfdffdss7",
">;O%*-:>,1<<<11<<,&*>,<<>>><<1<<,,<,><<4rfddauwrrpdgdaapappaadd6",
">:O@$+%><1,<1444221<<<<14221<12111<>><<1<<9ags8qupapywruppuuuapr",
"<<*+@O#%=11,1144222222222222422121<,::><>,<,2ww6wyruurwwwrryypa7",
",><<275,;;22121124244444444141457751,:><<<14585ruyrrrwqwwwrrrrsw",
"<<1<15689=<<1<256444444556544469wwq964124679wu<rwqruyyrrrryyyypu",
"<<<,<22489-,<<124455666666666668qrrwqq9879qqru7ypywuuyuuuuuuuupy",
"1<,<<111272<<11256666666677666579qwqwwww97689qqrasuyuuuuuuuppypy",
"21<<<<<>><2<1246666665677897455899q9qwqww74677qquaappuuuuuppuypp",
"521<,>>,<,,<<2256778889999q852489qq9998wy841578wypsspuuuppppaaap",
"41<,,,,<<2455422467899qq99995127qwwwwwwwrr72<479rppaspupppppaaaa",
"41<<<<112445577677778999qqwq7246qrwwwwrrwryu8,58wupyrupppppppppp",
">>,<<14422245776887777889qqq72458wwwwwryuyyuuq76ypuwypppppaaaaaa",
":>><<14444244555666677779q9q71126q9rqwrupyryyupppyyyupssssssssdd",
":,,,><246622222455652556778q814569qrwrrrrwqwrwq9wwrddfffffffffff",
"1<12,,<14<4<1<145676456678778><26q9w94677654,><4wppdffghhhhhhhhh",
"21<41<<<<<121<12446777656788w41<6q522<,<<<<<661>:qrsdfffghhhhhhh",
"44122<<122,<1<<<<12577766678q94<,5wrwrru7521575795ryppsdfffggggg",
"<4221>:,<<<<<1<<112467877899997<,2qwwwrrw9751999ww2uupppasdfghhh",
",2255<<11<<1<1111266689888889q95<,6w9wwrrwqqywurrr9wryuppasssfgj",
"><145<,1222422<12124479999889q87<,4w9wwwrwwywwqwrrryuuuuuupppadg",
"<,<661,<22224444542249qwwrrq99984<4q7789wrryppw92569qqrrryyuuuup",
">,<<52<<122566679qqwwwrrrrrryywq7>4786qryuyrrypp6<<6788q9wywrypp",
":,<,25<<122246789qwwrrrrryyuuyrq8>5899889wrrryppuy667569q9qryupa",
":><><2<<247889999qqrrrrrryyuuuyyr<9pyrrq9wrwwupddw6wwqqwwwryppup",
",><><21<464699qq99qwrrrrrrryuppp9wrwpppppyruuppaadpwyurrryuuppap",
",:><,11<<1<<1667779qwwrrrrryyuruu92ypapaapppypppppprruuuyuupppaa",
">,><144:::>><22457788qqqwrrryrrypw5praapppuappuuuuppuuuuuuuuuppp",
"<<<<=->>;>>:,1<2445879989qrrrryyuy7rypaappupuuppppapppuuuyyyuupp",
"<<<<;;,>:,,::<<1224767768qwwryyypp9yrrpapuyrupssdspppuuuuuuuyyup",
",,<1>>,,>,,>:<<<1456687779qwryyuppa6uypapyupsddddddapyyuupurryuu",
":::<<:,,-><<<<125456777779qwrryyrwwqqpuapryapssdddddauyrwrrrwrry",
"<<<><:,,;>,<<12124457777889qwrrwwww887uppwwpppasdddddspyrrrwwwww",
"54654<>,;-;:,,112224566667899qqqqqq988ppurrypupasddfffsprrrrrrrr",
"77998<;%O#%=::>><<<12455457789wrw98878ppuyyyppppasdffffdapyyyyrr",
"124562>-%$$%=;;>>,<,<<<<<1<78qwwwq9877ypuurryyuypasdffddsapuyyyy",
":;:276<:&$$%*;-;>:>>>>>,<<1,4qwwyrq875ryryrwrwrrryupdffddsapuuuu",
"==;<572>*$@#$==;>>:>:;:>,<,<>29wrrw874qqqyrrwwwwwwwrpdddfdaapppp",
"-;;><54<;*%%=:;-;>;:;;:>>,,,><59rrw9729qqwwrwwwrrwwwwusddsaadsdf",
"*-;:,551,-*==;>>:>:;;:>,<<<,,,17wqww844q8qwrrwrrrrrwq9yasasfghhh",
"**=-;<41,,*====;>>>>>><<11<<,<<1899997597qrrrrrrrrrw972psssfgghh",
"&**==:45<,=*==;;;>>>>><<22<<,,,<1qqww98qrrrrrrrrrrrrrrupffsdffgh",
"****=;,>:=#&-:;;;:>,,>><121<<<<<,19qwq888qwrrrrrrryyupasggdffffg"
};
