/* XPM */
static char *result[] = {
/* columns rows colors chars-per-pixel */
"64 64 7 1 ",
"  c #ED1C24",
". c #2F3699",
"X c #546D8E",
"o c #4D6DF3",
"O c #00B7EF",
"+ c #99D9EA",
"@ c None",
/* pixels */
"@@@@@@@@@@@@@@@@@@@@@@@@@@@@@@@@@@@@@@@@@@@@@@@@@@@@@@@@@@@@@@@@",
"@@@@@@@@@@@@@@@@@@@@@@@@@@@@@@@@@@@@@@@@@@@@@@@@@@@@@@@@@@@@@@@@",
"@@@@@@@@@@@@@@@@@@@@@@@@@@@@@@@@@@@@@@@@@@@@@@@@@@@@@@@@@@@@@@@@",
"@@@@@@@@@@@@@@@@@@@@@@@@@@@@@@@@@@@@@@@@@@@@@@@@@@@@@@@@@@@@@@@@",
"@@@@@@@@@@@@@@@@@@@@@@@@@@@@@@@@@@@@@@@@@@@@@@@@@@@@@@@@@@@@@@@@",
"@@@@@@@@@@@@@@@@@@@@@@@@@@@@@@@@@@@@@@@@@@@@@@@@@@@@@@@@@@@@@@@@",
"@@@@@@@@@@@@@@@@@@@@@@@@@@@@@@@@@@@@@@@@@@@@@@@@@@@@@@@@@@@@@@@@",
"@@@@@@@@@@@@@@@@@@@@@@@@@@@@@@@@@@@@@@@@@@@@@@@@@@@@@@@@@@@@@@@@",
"@@@@@@@@@@@@@@@@@@@@@@@@@@@@@@@@@@@@@@@@@@@@@@@@@@@@@@@@@@@@@@@@",
"@@@@@@@@@@@@@@@@@@@@@@@@@@@@@@@@@@@@@@@@@@@@@@@@@@@@@@@@@@@@@@@@",
"@@@@@@@@@@@@@@@@@@@@@@@@@@@@@@ooooo@@@@@@@@@@@@@@@@@@@@@@@@@@@@@",
"@@@@@@@@@@@@@@@@@@@@@@@@@@ooooOOOOoooo@@@@@@@@@@@@@@@@@@@@@@@@@@",
"@@@@@@@@@@@@@@@@@@@@@@@@oooOOOOOOOOOOoo@@@@@@@@@@@@@@@@@@@@@@@@@",
"@@@@@@@@@@@@@@@@@@@@@@@ooOOOOOOOOOOOOOOoo@@@@@@@@@@@@@@@@@@@@@@@",
"@@@@@@@@@@@@@@@@@@@@@ooOOOOO+OOOOOOOOOOOOoo@@@@@@@@@@@@@@@@@@@@@",
"@@@@@@@@@@@@@@@@@@@@ooOOO++++OOOOOOOOOOOOOoo@@@@@@@@@@@@@@@@@@@@",
"@@@@@@@@@@@@@@@@@@@ooOOO++OOOOOOOOOOOOOOOOOoo@@@@@@@@@@@@@@@@@@@",
"@@@@@@@@@@@@@@@@@@@oOOO++OOOOOOOOOOOOOOOOOOOoo@@@@@@@@@@@@@@@@@@",
"@@@@@@@@@@@@@@@@@@ooOO++OOOOOOOOOOOOOOOOOOOOOo@@@@@@@@@@@@@@@@@@",
"@@@@@@@@@@@@@@@@@@oOOO++OOOOOOOOOOOOOOOOOOOOOoo@@@@@@@@@@@@@@@@@",
"@@@@@@@@@@@@@@@@@oOOOO+OOOOOOOOOOOOOOOOOOOOOOoo@@@@@@@@@@@@@@@@@",
"@@@@@@@@@@@@@@@@@oOOOOOOOOOOOOOOOOOOOOOOOOOOOOo@@@@@@@@@@@@@@@@@",
"@@@@@@@@@@@@@@@@@oOO+OOOOOOOO.OOOOOOOOOOOOOOOOo@@@@@@@@@@@@@@@@@",
"@@@@@@@@@@@@@@@@@oOO+OOOOOOOO..OOOOOOOOO..OOOOo@@@@@@@@@@@@@@@@@",
"@@@@@@@@@@@@@@@@ooOOOOOO..OOOO.OOO.OOOO...OOOOoo@@@@@@@@@@@@@@@@",
"@@@@@@@@@@@@@@@@oOOOOOOOO..OOOOOOOOOOO...OOOOOOo@@@@@@@@@@@@@@@@",
"@@@@@@@@@@@@@@@@oOOOOOOOO....OOOOOOOO....OOOOOOo@@@@@@@@@@@@@@@@",
"@@@@@@@@@@@@@@@@@oOOOOOOO... .OOOOOOO. ..OOOOOo@@@@@@@@@@@@@@@@@",
"@@@@@@@@@@@@@@@@@oOOOOOOOO....OOOOOOO...OOOOOOo@@@@@@@@@@@@@@@@@",
"@@@@@@@@@@@@@@@@+oOOOOOOOOOOOOOOOOOOOOOOOOOOOOo@@@@@@@@@@@@@@@@@",
"@@@@@@@@@@@@@@@@@ooOOOOOOOOOOOO....OOOOOOOOOOoo@@@@@@@@@@@@@@@@@",
"@@@@@@@@@@@@@@@@ooooOOOOOOOOOOO.OO.OOOOOOOOOOo@@@@@@@@@@@@@@@@@@",
"@@@@@@@@@@@@@@oooOXooooOOOOOOOOOOOOOOOOOOOOOOo@@@@@@@@@@@@@@@@@@",
"@@@@@@@@@@@@ooo++OOXoooOOOOOOOOOOOOOOOOOOOOooooo@@@@@@@@@@@@@@@@",
"@@@@@@@@@@@@oOOOOoOOOoooooOOOOOOOOOOOOOOOooXXOOoo@@@@@@@@@@@@@@@",
"@@@@@@@@@@@@ooOOooOOOOOOOoOOOOOOOOOOOOOOOOOoOo++oo@@@@@@@@@@@@@@",
"@@@@@@@@@@@@oooooOOOOOOOOOOOOOOOOOOOOOOOOOOOOoO+Ooo@@@@@@@@@@@@@",
"@@@@@@@@@@@@XXoo++OoOOOOOOOOOOOOOOOOOOOOOOOOOooOOoo@@@@@@@@@@@@@",
"@@@@@@@@@@@@ooo++OOoOO++OOoOOOOOOOOOOOoOOOOOOOooooo@@@@@@@@@@@@@",
"@@@@@@@@@@@@oOOOOOOoOO+OOOoOOO+OOOOOOOoOOO++OOooooo@@@@@@@@@@@@@",
"@@@@@@@@@@@oOOOOOOoOO++OOOoOOO+OOOOOOOOoOOO++OOoXX@@@@@@@@@@@@@@",
"@@@@@@@@@@@oOOOOOOoO++OOOOoOOO++OOOOOOOoOOOO++OOoo@@@@@@@@@@@@@@",
"@@@@@@@@@@@ooOOOooo++OOOOOoOOO+++OOOOOOoOOOOOOOOOo@@@@@@@@@@@@@@",
"@@@@@@@@@@@oooooooO+OOOOOOoOOOO+++OOOOOoOOOOOOOOOoo@@@@@@@@@@@@@",
"@@@@@@@@@@@ooooooOOOOOOOOooOOOO++++OOOOooOOOOOOOOOo@@@@@@@@@@@@@",
"@@@@@@@@@@@@ooooOOOOOOOOOooOOOOOOOOOOOOooOOOOOOOOOo@@@@@@@@@@@@@",
"@@@@@@@@@@@@XXXoOOOOOOOOOoooOOOOOOOOOOOoooOOOOOOOoo@@@@@@@@@@@@@",
"@@@@@@@@@@@@@@XoOOOOOOOOooooOOOOOOOOOOOoXooOOOOOoo@@@@@@@@@@@@@@",
"@@@@@@@@@@@@@XXooOOOOOOoooooOOOOOOOOOOooXXooooooo@@@@@@@@@@@@@@@",
"@@@@@@@@@@@@@XXXooOOOooooooooOOOOOOOOOoXXXXXXXXX@@@@@@@@@@@@@@@@",
"@@@@@@@@@@@@@@@@XoooooooXXXooOOOOOOOOooXXXXXXXXXX@@@@@@@@@@@@@@@",
"@@@@@@@@@@@@@@@@@XXXXXXXXXXXoooOOOOOooXXXXXXXXXXXX@@@@@@@@@@@@@@",
"@@@@@@@@@@@@@@@@XXXXXXXXXXXXXXoooooooXXXX@@@@XXX@@@@@@@@@@@@@@@@",
"@@@@@@@@@@@@@@@@@@@@@@XXXXXXXXXXXXXXXXXX@@@@@@@@@@@@@@@@@@@@@@@@",
"@@@@@@@@@@@@@@@@@@@@@@@@XXXXXXXXXXXXXX@@@@@@@@@@@@@@@@@@@@@@@@@@",
"@@@@@@@@@@@@@@@@@@@@@@@@@@@@XXXXXXXXXX@@@@@@@@@@@@@@@@@@@@@@@@@@",
"@@@@@@@@@@@@@@@@@@@@@@@@@@@@@@@@@@@@@@@@@@@@@@@@@@@@@@@@@@@@@@@@",
"@@@@@@@@@@@@@@@@@@@@@@@@@@@@@@@@@@@@@@@@@@@@@@@@@@@@@@@@@@@@@@@@",
"@@@@@@@@@@@@@@@@@@@@@@@@@@@@@@@@@@@@@@@@@@@@@@@@@@@@@@@@@@@@@@@@",
"@@@@@@@@@@@@@@@@@@@@@@@@@@@@@@@@@@@@@@@@@@@@@@@@@@@@@@@@@@@@@@@@",
"@@@@@@@@@@@@@@@@@@@@@@@@@@@@@@@@@@@@@@@@@@@@@@@@@@@@@@@@@@@@@@@@",
"@@@@@@@@@@@@@@@@@@@@@@@@@@@@@@@@@@@@@@@@@@@@@@@@@@@@@@@@@@@@@@@@",
"@@@@@@@@@@@@@@@@@@@@@@@@@@@@@@@@@@@@@@@@@@@@@@@@@@@@@@@@@@@@@@@@",
"@@@@@@@@@@@@@@@@@@@@@@@@@@@@@@@@@@@@@@@@@@@@@@@@@@@@@@@@@@@@@@@@"
};
