/* XPM */
static char *result[] = {
/* columns rows colors chars-per-pixel */
"64 64 7 1 ",
"  c #2F3699",
". c #546D8E",
"X c #4D6DF3",
"o c #00B7EF",
"O c #99D9EA",
"+ c white",
"@ c None",
/* pixels */
"@@@@@@@@@@@@@@@@@@@@@@@@@@@@@@@@@@@@@@@@@@@@@@@@@@@@@@@@@@@@@@@@",
"@@@@@@@@@@@@@@@@@@@@@@@@@@@@@@@@@@@@@@@@@@@@@@@@@@@@@@@@@@@@@@@@",
"@@@@@@@@@@@@@@@@@@@@@@@@@@@@@@@@@@@@@@@@@@@@@@@@@@@@@@@@@@@@@@@@",
"@@@@@@@@@@@@@@@@@@@@@@@@@@@@@@@@@@@@@@@@@@@@@@@@@@@@@@@@@@@@@@@@",
"@@@@@@@@@@@@@@@@@@@@@@@@@@@@@@@@@@@@@@@@@@@@@@@@@@@@@@@@@@@@@@@@",
"@@@@@@@@@@@@@@@@@@@@@@@@@@@@@@@@@@@@@@@@@@@@@@@@@@@@@@@@@@@@@@@@",
"@@@@@@@@@@@@@@@@@@@@@@@@@@@@@@@@@@@@@@@@@@@@@@@@@@@@@@@@@@@@@@@@",
"@@@@@@@@@@@@@@@@@@@@@@@@@@@@@@@@@@@@@@@@@@@@@@@@@@@@@@@@@@@@@@@@",
"@@@@@@@@@@@@@@@@@@@@@@@@@@@@@@@@@@@@@@@@@@@@@@@@@@@@@@@@@@@@@@@@",
"@@@@@@@@@@@@@@@@@@@@@@@@@@@@@@@@@@@@@@@@@@@@@@@@@@@@@@@@@@@@@@@@",
"@@@@@@@@@@@@@@@@@@@@@@@@@@@@@@@@@@@@@@@@@@@@@@@@@@@@@@@@@@@@@@@@",
"@@@@@@@@@@@@@@@@@@@@@@@@@@@@@@@@@@@@@@@@@@@@@@@@@@@@@@@@@@@@@@@@",
"@@@@@@@@@@@@@@@@@@@@@@@@@@@@@@@@@@@@@@@@@@@@@@@@@@@@@@@@@@@@@@@@",
"@@@@@@@@@@@@@@@@@@@@@@@@@@@@@@@@@@@@@@@@@@@@@@@@@@@@@@@@@@@@@@@@",
"@@@@@@@@@@@@@@@@@@@@@@@@@@@@@@@@@@@@@@@@@@@@@@@@@@@@@@@@@@@@@@@@",
"@@@@@@@@@@@@@@@@@@@@@@@@@@@@@@@@@@@@@@@@@@@@@@@@@@@@@@@@@@@@@@@@",
"@@@@@@@@@@@@@@@@@@@@@@@@@@@@@@XXXXX@@@@@@@@@@@@@@@@@@@@@@@@@@@@@",
"@@@@@@@@@@@@@@@@@@@@@@@@@@XXXXooooXXXX@@@@@@@@@@@@@@@@@@@@@@@@@@",
"@@@@@@@@@@@@@@@@@@@@@@@@XXXooooooooooXX@@@@@@@@@@@@@@@@@@@@@@@@@",
"@@@@@@@@@@@@@@@@@@@@@@@XXooooooooooooooXX@@@@@@@@@@@@@@@@@@@@@@@",
"@@@@@@@@@@@@@@@@@@@@@XXoooooOooooooooooooXX@@@@@@@@@@@@@@@@@@@@@",
"@@@@@@@@@@@@@@@@@@@@XXoooOOOOoooooooooooooXX@@@@@@@@@@@@@@@@@@@@",
"@@@@@@@@@@@@@@@@@@@XXoooOOoooooooooooooooooXX@@@@@@@@@@@@@@@@@@@",
"@@@@@@@@@@@@@@@@@@@XoooOOoooooooooooooooooooXX@@@@@@@@@@@@@@@@@@",
"@@@@@@@@@@@@@@@@@@XXooOOoooooooooooooooooooooX@@@@@@@@@@@@@@@@@@",
"@@@@@@@@@@@@@@@@@@XoooOOoooooooooooooooooooooXX@@@@@@@@@@@@@@@@@",
"@@@@@@@@@@@@@@@@@XooooOoooooooooooooooooooooooX@@@@@@@@@@@@@@@@@",
"@@@@@@@@@@@@@@@@@XooooooooooooooooooooooooooooXX@@@@@@@@@@@@@@@@",
"@@@@@@@@@@@@@@@@XXooOoooooooo oooooooooooooooooX@@@@@@@@@@@@@@@@",
"@@@@@@@@@@@@@@@@XoooOoooooooo  ooooooooo  oooooX@@@@@@@@@@@@@@@@",
"@@@@@@@@@@@@@@@@Xooooooo  oooo oooooooo   oooooX@@@@@@@@@@@@@@@@",
"@@@@@@@@@@@@@@@@Xoooooooo  ooooooooooo   ooooooX@@@@@@@@@@@@@@@@",
"@@@@@@@@@@@@@@@@Xoooooooo    oooooooo    ooooooX@@@@@@@@@@@@@@@@",
"@@@@@@@@@@XXXXXXXoooooooo   + ooooooo +  ooooooX@@@@@@@@@@@@@@@@",
"@@@@@@@@@XXoooXXXXoooooooo    ooooooo   oooooooX@@@@@@@@@@@@@@@@",
"@@@@@@@@@XooooOOOXooooooooooooooooooooooooooooXXXXXXXXX@@@@@@@@@",
"@@@@@@@@@XoooooooXXoooooooooooo    oooooooooooXXXoooooX@@@@@@@@@",
"@@@@@@@@@XXooooooXXXooooooooooo oo ooooooooooXXoOOOoooX@@@@@@@@@",
"@@@@@@@@@XXXoooooo.XXooooooooooooooooooooooooXooooooooX@@@@@@@@@",
"@@@@@@@@@.XXXXXXoo..XXXooooooooooooooooooooXXXoooooooXX@@@@@@@@@",
"@@@@@@@@@XXXoooXXXXXXXXooooooooooooooooooXX...oooXXXXXX@@@@@@@@@",
"@@@@@@@@XXooooooooooXooooooooooooooooooooooXXooXXXXXX..@@@@@@@@@",
"@@@@@@@XXoooOOOOoooooooooooooooooooooooooooooXXXXXXXX.@@@@@@@@@@",
"@@@@@@XXooooooooooXXXXXXXooooooooooooooooooooooooooXX@@@@@@@@@@@",
"@@@@@@XoooooooooXXXoooooooooooooooooooooXXooooooOOOoX@@@@@@@@@@@",
"@@@@@@XXXXXXXXXXXoooOoooooXooooooooooooooXXoooOOOOOoXX@@@@@@@@@@",
"@@@@@@@.XXXXXXXoooooOOOOoXXoooooooOOOOooooXXoooooooooX@@@@@@@@@@",
"@@@@@@@.....XXXooooooooooXoooooooOOOOOoooooXoooooooooXX@@@@@@@@@",
"@@@@@@@@@@@..XoooooooooooXooooooooooooooooXXXoooooooooX@@@@@@@@@",
"@@@@@@@@@@@@@XooooooooooXXooooooooooooooooXXXoooooooooX@@@@@@@@@",
"@@@@@@@@@@@@@XXooooooooXXXoooooooooooooooXXXXXXooooooXX@@@@@@@@@",
"@@@@@@@@@@@@@@XXXXooXXXXXXXooooooooooooooXX..XXXXoooXX@@@@@@@@@@",
"@@@@@@@@@@@@@@@.XXXXXXX....XXoooooooooooX.......XXXXX@@@@@@@@@@@",
"@@@@@@@@@@@@@@@.........@@...XoooooooXX...@@@@@.....@@@@@@@@@@@@",
"@@@@@@@@@@@@@@@@@@@@@@@@@@@@..XXXXXXXX..@@@@@@@@@@@@@@@@@@@@@@@@",
"@@@@@@@@@@@@@@@@@@@@@@@@@@@@@@.........@@@@@@@@@@@@@@@@@@@@@@@@@",
"@@@@@@@@@@@@@@@@@@@@@@@@@@@@@@@@@@@@@@@@@@@@@@@@@@@@@@@@@@@@@@@@",
"@@@@@@@@@@@@@@@@@@@@@@@@@@@@@@@@@@@@@@@@@@@@@@@@@@@@@@@@@@@@@@@@",
"@@@@@@@@@@@@@@@@@@@@@@@@@@@@@@@@@@@@@@@@@@@@@@@@@@@@@@@@@@@@@@@@",
"@@@@@@@@@@@@@@@@@@@@@@@@@@@@@@@@@@@@@@@@@@@@@@@@@@@@@@@@@@@@@@@@",
"@@@@@@@@@@@@@@@@@@@@@@@@@@@@@@@@@@@@@@@@@@@@@@@@@@@@@@@@@@@@@@@@",
"@@@@@@@@@@@@@@@@@@@@@@@@@@@@@@@@@@@@@@@@@@@@@@@@@@@@@@@@@@@@@@@@",
"@@@@@@@@@@@@@@@@@@@@@@@@@@@@@@@@@@@@@@@@@@@@@@@@@@@@@@@@@@@@@@@@",
"@@@@@@@@@@@@@@@@@@@@@@@@@@@@@@@@@@@@@@@@@@@@@@@@@@@@@@@@@@@@@@@@"
};
