/* XPM */
static char *result[] = {
/* columns rows colors chars-per-pixel */
"64 64 35 1 ",
"  c #868DB4",
". c #888FB7",
"X c #8A92B7",
"o c #8791B8",
"O c #8D94BB",
"+ c #9097BF",
"@ c #9199BE",
"# c #8E96C0",
"$ c #8F99C1",
"% c #949CC3",
"& c #989FC7",
"* c #969FC8",
"= c #989FC9",
"- c #96A0C7",
"; c #99A1C6",
": c #97A1C8",
"> c #9DA5CB",
", c #9EA8CF",
"< c #9FA6D0",
"1 c #9FA9D0",
"2 c #A0A7CE",
"3 c #A1A9CE",
"4 c #A5ADD2",
"5 c #A8AFD3",
"6 c #A7B0D6",
"7 c #AAB2D6",
"8 c #ADB5D9",
"9 c #B1B7DB",
"0 c #B3BADD",
"q c #B8BFDF",
"w c #B6BDE1",
"e c #B8BFE1",
"r c #BAC2E3",
"t c #BDC5E8",
"y c #C0C7E7",
/* pixels */
"w0wwq953745793575323584<=2+42>27000804:4,,,>3%-%;>>;;>;>@>;335>O",
">9wwq994535555333553534250434>2245w8099444443>3>;3%;44875;;5;@>3",
"3448075425570qqqqqq55799w2752&2=>3428ww8644443>>744786664,@%X@;3",
"33>>29975709909qqqq0w7ww55553332;3358448w914378873375655433@@@@;",
"232238qqq97qq0qq900080058872442444686667689846973476444333333@XX",
"433q33985qq9q000qq9qw988558644446844667886667876377757433366;X @",
"990023759qq9800qq0955885888664572:<*<8888686887447775434333;O3@O",
"09997755qqqq07y8779323542598867650w82<28w90r87346774543533;;;;;X",
"09997&57q9qqqq578775w0447464589888888534,4748ww,3777747;@@@37734",
"0009e729709q99758009858486368008644808736>47464677777;XXO3776387",
"e0>907>553555705>,<4475446479998775870933>>76787808@XX7377773777",
"555589=2335344785445554w87w0w99988885478677>584>8@@X733778047777",
"5550ww9%57545759887455w08wq009990807347777788663@@6633077q758877",
"9500989w>246559575887ww9r098eqq98743443667773,@>877330qqq77380q7",
"590999w0w2>w0895w007ww9e90w0q0qqrw07464367733>>77880q0qq3337077@",
"5099ww0w005590900790qqq00qq99097743777776663>4w078qqqq77775095;;",
"0q099999w99559993q9eeq0090qq97753688087666,,60qqqqqqq77777707q@;",
"yqq09559ee0we89599ee009qqq009q5778600808668qrqqqqqqq757777777;;;",
"92q0099eew095533qe99qqqqqq7433978q068800qqqqqqqqqq0670777q777;;7",
"3559590q0w779299e953900q5qqqq0qqq800qrrrrqqq0qqqq0778870q7803@;7",
"95555999090700q5599099957777799777600qqqrrrrqqqq7777qqqq8087;@77",
"9909599ew0999940e0995595777899978qqqryrrrrrqqq7808qqqqq8087@@777",
"59952qee00w075q0909909500899907qqryyrqrrqrqqqqqqqq088qqq88;;;777",
"95959q99009959009q99090009897qyrqyrq0077377670qqq00qq8777;@;7337",
"955908099997009qqq099979799qryrrrq087380777707780qq00077;;@87873",
"995qw0qw088490089ee0997990qqyrrq788q0000080077787773777;;;887766",
"9qqq089088570870e5599959qrqqrq8780088800080777000777373;;8877763",
"9ee009990980rq009999590qrrqyr77800780000qq7700880777773377443333",
"99898995798qq0q999990eeyyryq9990080800008q007qq77777783377776733",
"y9w9999787q000qq99qyyyyeyq50979900000008qq007q777337763;78773663",
"9999595788q0q9900eye9qqeq090999000080008q77qq7777373863308767633",
"58e5775e8qrt00qqyq0ee99qq90900qq000800067q777773773q833807373336",
"4687068080q00rrqrrrqrrq0000q708080q880877777663367q0;30077377377",
"66870607000qrrq00800qqq86000q0888688888777766633q707707733773807",
"7786067700rq8q00008866666476700860087777666,337q0077333333376776",
"46870060078808000q07667807787880q6660077666,60080333377333336837",
"67888000000007077375661678677877708877676,,08qq73;376637666633,3",
"78q000q087700066777588076076965707q776366600q8367807633333333333",
";3341007078007qqq00888006806670766077363qqq767qq777;;;3;33333,;3",
"763368q80066q00q0770078778777770777778qqqq0qqq73733;3333;33;33;;",
"01r016qqq0qq0088377078777777865700670qqqqqqq7366;3;33;3;333;3;;;",
"003qq:>>,q870038707708883887q8077qrqqq7633633333434333;3;3333;;;",
"0000rtr3@:-6717807730077q8800rrtqqry07773,36636343333333333;;;;3",
"8017668r0-3,-678700777780rtwrrrryq677773633333333343434333;3;-;3",
"790308880q7087788787878q958w64=466777763q7;633;333;33666336;-;33",
"98q778867q0,78868088q8qq44<<<=25666667;77363;333;333333333;;;633",
"7888370088qq3773687078@6445&=2423666633776667773;33333333;;76666",
"70900700880q83X--@;3;;-;55=2=26233667;7766636337764633;3;;766777",
"789797999789w9864<#>=&;&>>=>244424422444366436333464133>68867766",
"8897q57999580088985%&%&&:>=2=<=422344424373633644333167777777666",
"8889997995544141<<<#%%;:23=&24222&35776847436343333778777766646,",
"77875907555444<44<=<+%2+&&>344556<<64666733433,,6887760777764444",
"3778897766<$#->1<<<69<66=$*<=2<=<24=466675800808788778767855464>",
"q38885&%##$#<>#*<68=6<9w8882222==>22:56658>:-,>4666383;34>;&;@@;",
"0q>OoO##:1666666<#<<66498842=2=22>><* o%:>>:-*>=-;-3--@%%::&-%;;",
"443345>26881::45=<=898865635&=32=:==**44<-$*::*:--3@-@--&&:;;;;-",
"<##=##=6::-:16<*<<666<688ww986:#>&*--:::==<>===%%>&#+O%%%%%&%&%&",
"#=##66<<1114>>%**866<66<697wwe24::*$*$**<=<<:==%%+++&%%%%%%%&%#&",
"#<888<8986886=86888<68<<27846651>=$$$$$$**==32>O+O+=%%&%$$%++.%+",
"95688999w0098w944=<6w9864464244754888<44<%==22<&=%&&#&%%%%%#$+++",
"888889999wwwww26868666ww864866654764<<<:%=#*#>=>&%%%>%#%%+%%+$+.",
"888999988778722868w09<4ww88854377,65:<=%%###%+&=&%&%%%%#++%X..$%",
"8869996555464886799644280w06748;684>>685<###++#%%%%%%%%%%+. .%&&",
"89559565444686668766<466666243>,4553>5555589552&#&&%%+%%++++%$++"
};
