/* XPM */
static char *result[] = {
/* columns rows colors chars-per-pixel */
"64 64 237 2 ",
"   c #1D3A26",
".  c #242E26",
"X  c #312C2B",
"o  c #273627",
"O  c #2C3526",
"+  c #33372D",
"@  c #2B3C37",
"#  c #343531",
"$  c #363935",
"%  c #3A3B36",
"&  c #3B3C39",
"*  c #2E521F",
"=  c #1F522C",
"-  c #1F5232",
";  c #2C4527",
":  c #22422B",
">  c #214D2B",
",  c #374C2D",
"<  c #2F5220",
"1  c #255C23",
"2  c #22542D",
"3  c #22592F",
"4  c #2B5A28",
"5  c #315621",
"6  c #335C23",
"7  c #38562D",
"8  c #345B2C",
"9  c #294634",
"0  c #394637",
"q  c #3D443B",
"w  c #255434",
"e  c #2E5533",
"r  c #245C33",
"t  c #2C5D35",
"y  c #2B543A",
"u  c #245C39",
"i  c #2C5D3A",
"p  c #3B5231",
"a  c #335D34",
"s  c #3A5B33",
"d  c #335B3C",
"f  c #385838",
"g  c #276124",
"h  c #2D6325",
"j  c #2D6429",
"k  c #2E682A",
"l  c #366223",
"z  c #32652C",
"x  c #3E672B",
"c  c #34692E",
"v  c #266236",
"b  c #26633B",
"n  c #2A643D",
"m  c #336335",
"M  c #3C6434",
"N  c #366932",
"B  c #3B6B35",
"V  c #35643B",
"C  c #3A6439",
"Z  c #376B38",
"A  c #3B6C3A",
"S  c #3E703E",
"D  c #41473C",
"F  c #425537",
"G  c #40662C",
"H  c #406536",
"J  c #446A34",
"K  c #496A37",
"L  c #42643A",
"P  c #436D3C",
"I  c #4C6C3C",
"U  c #43703D",
"Y  c #4B703D",
"T  c #2E4C44",
"R  c #3B4C45",
"E  c #2D5244",
"W  c #2E5B41",
"Q  c #265F48",
"!  c #315E43",
"~  c #37544B",
"^  c #266146",
"/  c #2B6444",
"(  c #2D6941",
")  c #26634A",
"_  c #2B664B",
"`  c #2E684C",
"'  c #336444",
"]  c #396542",
"[  c #346B44",
"{  c #3A6B45",
"}  c #33654B",
"|  c #3B654B",
" . c #346B4B",
".. c #3C6B4D",
"X. c #357046",
"o. c #3E714D",
"O. c #2B6650",
"+. c #2E6952",
"@. c #326553",
"#. c #346B54",
"$. c #3C6D53",
"%. c #376759",
"&. c #356A5A",
"*. c #3A6C5A",
"=. c #3D7056",
"-. c #36715C",
";. c #3D705B",
":. c #3D6F61",
">. c #3F7162",
",. c #464944",
"<. c #434C46",
"1. c #47544B",
"2. c #565A4D",
"3. c #465955",
"4. c #585E53",
"5. c #625F58",
"6. c #436E42",
"7. c #4C6D41",
"8. c #496846",
"9. c #416D4E",
"0. c #516E43",
"q. c #516D49",
"w. c #457143",
"e. c #4C7345",
"r. c #4E744A",
"t. c #48754E",
"y. c #527245",
"u. c #567946",
"i. c #53744B",
"p. c #59744D",
"a. c #52794D",
"s. c #5B7B4D",
"d. c #426E52",
"f. c #456955",
"g. c #426B5D",
"h. c #5A6659",
"j. c #447154",
"k. c #4C7753",
"l. c #44735A",
"z. c #4B755B",
"x. c #4E795E",
"c. c #557552",
"v. c #5B7553",
"b. c #547A53",
"n. c #5B7A54",
"m. c #53745D",
"M. c #5A765A",
"N. c #52795C",
"B. c #5C7A5B",
"V. c #646D5B",
"C. c #6A6F5B",
"Z. c #62745B",
"A. c #657B5A",
"S. c #637C5C",
"D. c #456662",
"F. c #4C6562",
"G. c #436E62",
"H. c #4A6B65",
"J. c #446E6A",
"K. c #4B6E69",
"L. c #586B64",
"P. c #447365",
"I. c #4A7365",
"U. c #4A7964",
"Y. c #46726A",
"T. c #4B736B",
"R. c #4C7B6C",
"E. c #567661",
"W. c #587661",
"Q. c #547A62",
"!. c #5C7A64",
"~. c #53746E",
"^. c #5C736C",
"/. c #5D7C6B",
"(. c #4E7471",
"). c #537672",
"_. c #5B7772",
"`. c #547A74",
"'. c #5B7B75",
"]. c #567B79",
"[. c #5C7C79",
"{. c #636D62",
"}. c #6A6B64",
"|. c #657165",
" X c #6B7663",
".X c #647D64",
"XX c #6A7B66",
"oX c #64746A",
"OX c #6B756A",
"+X c #637B6A",
"@X c #6C7C6B",
"#X c #707C66",
"$X c #70766C",
"%X c #727D6B",
"&X c #637772",
"*X c #647C74",
"=X c #6D7E72",
"-X c #647F7C",
";X c #697D79",
":X c #707E72",
">X c #578155",
",X c #618256",
"<X c #66865C",
"1X c #5B8168",
"2X c #59807A",
"3X c #648065",
"4X c #6C8666",
"5X c #6E8A65",
"6X c #64806B",
"7X c #6D826C",
"8X c #73826E",
"9X c #76886B",
"0X c #658174",
"qX c #6E8373",
"wX c #6B8B75",
"eX c #64807B",
"rX c #6A827B",
"tX c #738474",
"yX c #798473",
"uX c #748B74",
"iX c #7A8976",
"pX c #758679",
"aX c #79867A",
"sX c #748A79",
"dX c #7B897A",
"fX c #7A9476",
"gX c #838E79",
"hX c #86927C",
"jX c #5C8480",
"kX c #698984",
"lX c #728682",
"zX c #768A85",
"xX c #7A938A",
"cX c #828D82",
"vX c #899485",
"bX c #8D9895",
"nX c #989898",
/* pixels */
"k a 1 g g :XaXaXcXdXiXy.u.s.K K l.=.j.=...~ >.Y.>.R.2X1XQ.1XwX0Xg t 1 1 h OXaXaXdXdXaXe.u.u.I K k...j.$.$.;.>.U.U.>.R.Q.Q.1XrXwX",
"m m M g j @X:XaXtXyXtXI u.I K G 9.$...j.z.E >.Y.R.>.>.U.Q./.6X+Xa C V g j |.tXtXtXaXtXI s.I K G 9.$...l.x.g.>.Y.Y.>.P.Q.Q.1X0XwX",
"a t m Z Z @XtXpXaXqXXXJ I Y Y K $.j.x.l.z.E &.&.%.*.&.z.!.!.+XE.t t N A A |.:XaXaX7X@XK I I I K $.l.z.z.l.%.&.&.&.&.:.z./.!.1X6X",
"f m V m C OX:X@XXX+XqXy.K K Y K l.Q.l.Q.l.~ &.:.&.&.*.z.m.W.Q.z.f a m m V {.%X@X@X+X7Xe.J K Y I j.x.z.Q.I.&.&.:.:.&.:.g.m.W.N.1X",
"a V V C a @XtXtXaXaXaXI I J J Y z.z.x.z.l.~ &.*.&.T.T.z.z.m.m.m.e V C C s |.tXtXpXaXaX7.I J K I l.z.N.U.x.*.&.*.&.T.T.f.z.m.m.!.",
"%.Q _ *.;.F.).).).(.H.! d d y d e.U U p.Y ,.&X&X/.*XwXF F , s 7 ! W Q @.;.3.).~.~.(.D.f f y 9 y 7.P P r.I L.oXoX/.&XOXF p , s p ",
"-.;.*.#._ ).).T.(.J.J.} ' ! W / e.e.u.k.e.R 0XrX*X0X*X5 s s e.7 @.>.&.#.O.~.`.T.(.J.J.' ' W W / e.r.u.y.e.^.;X;X*X0X*X6 s s B s ",
"#.@.*.+.O.K.J.J.J.J.Y.| | i ' | y.k.y.e.y.<.;X0XrX'.*X* , H H s +.@.*.O.O.F.J.J.J.J.T...} W W { y.r.r.e.y.^.*X0X0X0X*X< 7 L H L ",
";.@.%._ O.K.Y.J.J.T.(._ ' y d ' e.u.e.y.e.1.rX*X'.`.0Xs 6 l * x &.@.%._ O.D.T.J.J.Y.(._ ' y W ' e.r.r.y.e.|.0X*X'._.*Xs 6 l * x ",
"-.#.} #.*.K.(.Y.J.J.K.n u - u b r.e.w.r.Y 1./.*X6X0X0XI l * 8 6 %.#.@.$.;.H.(.J.J.J.J.' u - u b e.e.e.r.P ^.*X*X*X0XrXP l * M l ",
";.#.@.g.;.F.`.).(.`.nX{ u - - r A P y.e.J 0 &X^.0XrXrXM < s 6 H %.%.@.*.;.3.].(.(.`.nX' r - - r J U y.e.J 3.'.^.0XrXrXM * 8 5 P ",
"p.i.v.M.S.B N h N Z j { 6.w.r.k.hXiXaXyX@X0 b.r.e.r.y.n n n o.d.y.i.c.n.S.N N h N N z 6.w.w.k.a.vXiXtXtX%X7.n.r.e.r.i.n n n o.>X",
"n.i.v.i.S.B A c j B j 6.b.b.r.b.dXdXyXyX%XF i.r.8.r.i.n n b ( n p.i.c.c.A.C U c c B j P b.b.k.b.dXiX8XtX%Xq.q.r.8.i.i.b n b / ( ",
"v.c.v.S..X6.A N j N z 6.b.k.k.B.dXXXXXXXXX<.i.M.r.r.e./ b n n [ p.v.v.S.S.P B N j N z w.r.k.k.B.gX7XXX%X@Xq.M.c.r.r.e./ b b ( t.",
"S.M.S.S.<Xz N U { A A w.w.w.n.N.#X@XXX7XXXq b.c.c.r.r.j. .j.n ! v.v.S.S.XXz B w.{ B A w.w.w.n.b.#XXXXX8XXXi.b.n.b.r.r.j.X.o.b  .",
"XXS.S.S.S.c c U S B w.w.A t.b.r.%X8X8XaX7X, e.e.r.i.e. .[ [ u u |.S.B.S.n.z z P S Z U w.A t.N.r.%XtXtXyX@XA e.8.r.i.r. .X.n u ( ",
"U P U k.r.l.j.z.z.z...S U U U B _ ^ ^ ) ) E _ _ _ / / ].eX'.).).P P U k.r.j.j.m.x.z...P U U P A _ ) Q ) _ } _ _ / / / ].eX'.).kX",
"a.U w.e.e.k.z.j.j.f.d.A B U U S _ _ #.^ _ y  .^ _ _ _ '.'.*X(.(.r.U e.e.e.f.m.9.j.9.9.A B U U A _ _ @.) O._ } ^ _ _  .'.-X'.(.].",
">Xr.<Xr.e.z.j.j...9.f.A U U k h ;.;.#.#.#.9 _ ` _ ` =.`.]._.).).u.r.<Xr.w.f.j.j.....j.A S w.j l l.=.O.@.#.u _ _ _ ` =.].[.[.(.jX",
"vXr.e.e.r.| j.j.j.z.9.P c c l A ;.#.#.#.+.  _  .=.=.#.2X-X[.].[.5Xr.U e.e.| l.j.j.z...U c c z Z -.-.#.#._ w ` l.=.$.#.[.-X[.].kX",
"b.i.e.6.P ..m.Q.E.z.l.z z h N B $./ ) _ ^ : d.l.z.z.=.eXeX].].[.r.y.r.P P 9.m.Q.N.x.z.j z h B Z $.) ) _ ) } $.l.Q.z.l.eX-X].].kX",
"L.4.F.4.h.2.5.4.4.V.2.2.2.q.2.2.o     .   ,.h.4.5.4.4.; : > : o '.*X_.'.^.1.$XOX$X$XV.M.Z.h.v.v.e ] d ; > }.XXXXXX@XC.t i i > u ",
"`.).[.&X_.:X:X:X=XpXtXm.Z..XM.B.uXwXX.n d 1.@X8X9XtX8Xv V w 3 2 ~.).*X_._.OXtX;X=XtXpXM.M..XM.M.xXxXX.n i OX7X7XaXtX8Xv V = w r ",
"T._.)._.&X=X=X@X@X+XoXc.M.M.!.B.f ] ] { n D 6XtXtXuXXXr 3 3 3 = K._.)._.*X|.=X@X@X+X^.v.M.M..X!.f C { ] ( |.7X8XtXuX.Xr r 2 3 v ",
"[.'.].T.~.:XtX+XqXtXwX.X3Xn.M.M.3 2 2 3 r D 8XtXtXXXXXr 3 3 3 t ).'.].T.~.oXtX@XqXpXqX3X3XM.c.b.2 2 2 3 r M.%XtX8XXX.Xu 2 3 3 { ",
"2X[.`._.T.oX=X+XaXpXqX6X3X3X!.S.2 2 > 2 2 q XXXXXX.X%X2 r r v ' '.`.`.).T.V.qX0XpXpXrX.X3X3X.X3X2 2 > 2 > h.@XXXXXXX%X2 r r v { ",
"2XR.).).T.@X6XaXwXtXpX!.XX3XXX4X2 2 2 2 2 ,..XXXXX.XXXw t ' V n `.).).).K.h.0XsXtXtX:X.X3X.X6X.X2 3 2 w = 2..XXX.XXX4X2 V [ V  .",
"u.A.r.p.p.C.A.yX%X#X#XI K K p.s.[.nXlXpXrXT R.T.I.I.I.c.p.y.B.S.y.S.e.n.y.V.XX8X#X#X%XK I K u.p.'.nXlXrXlX*.R.g.I.P.T.i.i.y.S.5X",
"y.p.p.p.e.C.#X%X%X%X%XI K I I Y '.rXlX;X_.T I.I.I.>.I.c.y.A.S.S.I i.c.y.I V.%X%X%X%X%XK K I I I '.rXlX*X&Xg.T.T.P.P.R.p.y.n..X5X",
"0.y.q.I Y  X%X%X%X%X%XK K I I K [.rX;X*X&XR I.I.P.P.I.q.y.i.A.i.7.q.p.K 7.V.%X%X%X%XgXK K I I K *XrX*X*X&Xg.I.P.P.I.G.p.y.v.Z.n.",
"p.7.p.7.7.#XyX8X%X%X%XI I I A.p.eX;X*X;X;X~ T.P.R.H.I.y.i.p.A.7.q.I p.I 0. XyX8X%X#X%X0.0.p.5Xp.;X;X&XrXlXf.U.P.I.G.I.q.y.n.A.u.",
",Xi.7.i.I %XyX%X#X#X#Xp.A.5XA.Y *X;X*XrXlXR g.I.I.I.I.0.A.S.A.y.p.y.8.q.K C.%X#X X#XC.p.s.A.v.q.&X&X&X;XrXf.g.g.H.H.g.0.M.S.v.s.",
"8 4 = 1 4 $ @X:XtXtXtXI y.y.K K d.| ....| @ :.:.:.G.P.W.z.Q././.t a 1 1 g {.tX:XyXpXtXI y.Y I K d...d...$.T :.P.>.Y.I.Q.Q.!.0XwX",
"m m M g j # :XyXtXaXtXI p.I K G $.d.d. .I.@ :.J.P.P.Y.Q.Q./.6X+Xa C 4 g c {.pXaXtXaXtXI p.Y K G 9.9.$.d.U.E P.Y.I.>.I.E.Q./.1XwX",
"t a N C A # tXtXaXtXXXK I Y I K d.d.z.z.z.@ &.:.&.&.*.m.!.!.6XE.e i m A A {.:X:XaXXXXXJ K I Y K $.$.z.z.l.E &.&.&.&.&.m.!./.!.wX",
"e a V m V # qX@X@X.X8XY K K Y I d.U.I.Q.I.9 *.%.&.&.G.l.m.W.W.z.7 a m V m }.:X@X@X+XqXe.G K I I z.Q.x.Q.l.~ &.*.&.&.:.l.z.E.m.1X",
"e C C C a & tXaXaXaXaX7.Y J K Y j.z.x.x.Q.9 :.%.&.I.T.l.z.m.N.c.e V C C C |.7XtXaXaXaX7.I J K I l.z.x.l.U.~ &.&.&.T.T.z.z.m.m.!.",
"9 o 9 W %.$ F.F.F.D.D.o o o O o 8.s s 6.C q L.L.L.L.}.+ + O ; O *.O.$.;.;.F.].].`.).Y.' ] ' d ! e.U e.p.u.R &X*X'.-XpXs L s B C ",
"&.*.O.&.O.# (.(.K.T.Y.} ' ! W / Y e.y.a.r.$ *XrX'.0X+X6 s s P 8 #.*.#.-.O.H.(.T.K.J.J.' ! ! W / e.r.u.y.e.R 0XrX0X2X0X6 s s I C ",
"O.+.;.+.O.& J.J.J.J.Y.' z.W ! ..y.k.y.e.y.& 0XrX0X*X*X< , L H f @.@.&.O.O.F.J.J.J.J.J.z.} W ! [ e.u.r.U r.<.0XrX0X*X&X* , H H L ",
"&.@.#._ _ % T.J.>.Y.(.} ' w } ' e.u.r.r.y.q rX0X'./.0Xs 6 l * x &.@.%._ O.F.T.Y.J.(.(.} ' w '  .w.u.r.y.H 1.rX+X/.`.+Xs l l < U ",
"$.&.@.%.*.$ (.J.J.Y.J.W r - - b e.r.Y e.Y q &X0X'.*XrXP l 5 6 * #.$.O.#.*.g.(.J.J.J.J.u w - u u r.e.e.e.e.1.'.'.*X0XrXP 6 5 H l ",
"#.&.@.*.*.$ ].(.).`.bX| u 2 - r A U y.r.A & +X/.*XrXrXB * s 6 M O.@.@.@.;.+ 3.~ K.).^.! u w e a 7 p s p , X 2.1.4.4.2.F 7 7 6 H ",
"q.y.v.v..Xo N j c B N { 6.9.r.b.iXiXiXtX8X# b.r.e.i.y.n n n o.t.q.y.v.v.A.M N k z Z j 6.w.w.i.k.vXiXyX%X$X, b.r.e.e.t.b n b o.k.",
"p.q.i.p.S.O e.A k A j 6.r.b.b.n.dXyX8XtX%X& y.i.8.r.b.b n b / n v.i.c.p.S.C w.B z A j 6.b.b.k.N.gXaX8XtX:XD y.i.7.r.i.n b n ( ( ",
"v.c.v.S.S.O N c N z z 6.a.k.t.>XdX8XXX@XXXD b.M.r.e.8./ b / n ' p.p.c.S.3XM A N j N z 6.t.k.b.B.dX%XXX%X@XF n.b.r.r.e./ n n n 9.",
"v.v.S.S.<XO c w.w.N B w.w.w.z.N.%X@XXX8XXX+ i.n.c.q.u.j.X.j./ d M.v.S.A.4Xz B w.U A A w.6.w.b.N.%XXX@X%XXXD r.c.M.r.r.o. .X.b [ ",
"Z.|.XXA.S.O c A A Z U e.{ t.c.e.%X%X8XiX8Xo r.w.b.r.e. .[ ( u i Z..XZ.v.v.8 c P A Z U w.w.t.c.e.@XtXyXyX7X; r.7.k.y.i. .[ ( v ( ",
"P A w.a.r.@ f.N.x.l...U U U U A _ ) ) ^ _ @ } _ _ / / ].-X'.).).P S S a.y.j.l.N.x.z...P U J U A _ ) ) ) _ E ` _ / ) ) [.eX'.).jX",
"e.P e.r.e.. N.o.d.d.d.A A U U P _ ) #.Q O.9 _ / / _ } ].].-X).(.r.U w.e.e.9.N.d.d.9.j.A c P U U _ _ @._ _ y _ / _ _ $.'.-X'.).].",
"a.r.r.k.w.o j.f...9.d.S U U h h =.l.#.+.@.o ) } _  .-.'.[._.(.(.r.a.uXa.w.f.j.f.....d.A U w.j h ;.l.#.@.#.9 _ _ `  .=.`.-X[.(.jX",
"xXa.Y e.r.. k.j.j.z...P z c c B ;.-.#.#.+.  } #.=.#.#.[.-X[.[.[.>Xr.r.y.P | z.j.j.z.9.c c c N A ;.-.#.@.` o _ l.=.#.#.2X-X[.].kX",
"r.u.y.6.P o m.Q.E.z.l.l z l z B *.^ ) _ ^ . $.l.U.z.l.eX-X'.].[.r.e.U S 6.| z.Q.N.z.z.z z h z N $.) _ ) ) : $.l.1Xx.;.-X-X[.].kX",
"^.&X^._.^.# $XOXOX$XOXM.M.M.v.v.e m.f 9 > & @XXX XXX Xv t i > > 0XeX`.eX).2.:X=XtX=X:XB..XM.M.c.n wX] y r D tX4XqX9X8X/ ! ] = r ",
"~.~.'.*X_.& :X:X:XtXqXm.M.S.m.M.iXfXX.n d & 7X7X9XtXtXr V 2 = 3 ).~.*X'._.|.=X;X=X=XtXM.M.B.M.!.fXxXZ n d 1.7X7XtXtX9Xv Z = = v ",
"H.R.).~._.$ :X=X*X@X+Xv.M.M.!.|.d V [ { ( $ XXtXyXiXXXv r = r = T.`.~.~.*X{.:X@X@X+X.Xm.M.B.|.!.d d V { [ q 7XqXyXuX3Xv - = = v ",
").'.).T.~.# tX+XqXqXwX.X.XM.M.M.2 > 2 2 r # 7XtXtXXX.Xr 3 3 3 d ).'.].I.~.|.pX@XqXpXtX.X3XN.c.b.2 2 2 3 r q 7X8X8XXXXXr 2 3 = X.",
"`.[.).'.J.# qX6XpXpXtX.X6X3X<X1X2 2 > 2 2 # @X XXX.X%X2 r r t ' '.'.).'.T.h.qX0XaXpXqX+X3X3X.X.X2 2 > 2 = q XXXXXX.X8X> r r n X.",
"`.).).).T.# 7XiXwXpXqX!.3X6X+X.X3 3 2 2 2 + .X.XXXXXXXw v ' [ n _./.~.).I.D 6XaXtXyX%XA..XXX3X.X2 2 w 2 = + .XXXXX.X@X2 n [ ] X.",
"7.S.e.n.i.#  XyX#X#X%XI I K y.s.].nXlXlXrX@ ~.I.I.I.P.p.i.y.S.S.e.S.r.p.i.h.#XyX%X#X%XK I K y.s.'.nXlXrXrXT T.I.I.I.P.v.p.y.A.5X",
"P y.p.y.0.% #X%X%X#X%XK K I I I `.rXlX*X&X@ R.Y.Y.>.R.p.y.A.A.S.I p.p.y.I V.#X%X%X%X%XK K K Y y.'.rXlX*X*X9 ~.T.I.>.~.p.0.A.A.5X",
"7.q.i.I I + %X%X%X%XyXI K I I K '.lX;X*X&X0 I.I.>.Y.I.p.i.p.v.i.7.q.i.I I V.%X%X%X#XyXK K I I K 0XrX*X*X*XR P.P.>.P.I.i.y.p.A.n.",
"q.I i.7.I + gX#X%X%X%X0.Y u.,Xs.[.;X;XeXrXD R.I.I.P.H.y.y.v.A.e.p.I i.7.7.C.yX8X#X#X%XY 0.u.5Xp.[.;X*X;XlX~ U.I.P.I.I.e.y.,Xn.s.",
",X,X,XA.Y % gXgXgXgX9X,X<XgX<Xs.lXzXkXxXxX& R.R.R.2X1Xu.5X5X5X,X<X>Xs.,Xu.%XgXgXgXgX9XA.<XfX<XA.kXzXzXxXxX~ R.R.].1X2Xu.5X9X5X<X"
};
