/* XPM */
static char *result[] = {
/* columns rows colors chars-per-pixel */
"64 64 255 2 ",
"   c #37563A",
".  c #39613E",
"X  c #49593E",
"o  c #466635",
"O  c #3B5042",
"+  c #386E4A",
"@  c #465845",
"#  c #52554D",
"$  c #585A53",
"%  c #605E57",
"&  c #4E6F4C",
"*  c #47665B",
"=  c #5C625C",
"-  c #656E5C",
";  c #4F7468",
":  c #697466",
">  c #6A746B",
",  c #3D9839",
"<  c #3FA13A",
"1  c #4D8934",
"2  c #518D35",
"3  c #549639",
"4  c #48A43E",
"5  c #5AA33A",
"6  c #368849",
"7  c #398C4C",
"8  c #36934D",
"9  c #39934E",
"0  c #358954",
"q  c #3C9B54",
"w  c #39965B",
"e  c #3C9A59",
"r  c #3FA059",
"t  c #3E986E",
"y  c #3DA360",
"u  c #3EA379",
"i  c #5B8B4A",
"p  c #4B9849",
"a  c #589749",
"s  c #4A8A58",
"d  c #528A52",
"f  c #499A59",
"g  c #599856",
"h  c #648E50",
"j  c #659857",
"k  c #4AA544",
"l  c #4DA944",
"z  c #54A948",
"x  c #54AB4B",
"c  c #53AC53",
"v  c #59A956",
"b  c #5CAA5D",
"n  c #5CB153",
"m  c #5CB15C",
"M  c #6AAA4A",
"N  c #67A85A",
"B  c #74AE56",
"V  c #62B45C",
"C  c #69B45A",
"Z  c #75B057",
"A  c #7BB15D",
"S  c #4C9A68",
"D  c #559A69",
"F  c #4D8674",
"G  c #4C8C70",
"H  c #529D71",
"J  c #708774",
"K  c #42A663",
"L  c #43A865",
"P  c #4AAA6A",
"I  c #57A76A",
"U  c #50B56C",
"Y  c #46A574",
"T  c #42A67C",
"R  c #45A97C",
"E  c #4CAC7C",
"W  c #56A976",
"Q  c #59B577",
"!  c #65A766",
"~  c #71AE6A",
"^  c #63B662",
"/  c #6CB563",
"(  c #6DBA65",
")  c #6BB76A",
"_  c #6CBB6A",
"`  c #74B464",
"'  c #7DB363",
"]  c #71BA65",
"[  c #7DB56A",
"{  c #73BB6C",
"}  c #7BBA6A",
"|  c #62AA78",
" . c #74BC73",
".. c #7DBD73",
"X. c #7BB975",
"o. c #77C071",
"O. c #7DC174",
"+. c #7DC27B",
"@. c #898F7C",
"#. c #81B666",
"$. c #83B76A",
"%. c #84BA6C",
"&. c #83AF7B",
"*. c #86B377",
"=. c #84BD73",
"-. c #8ABD74",
";. c #83BD7C",
":. c #8BBC7B",
">. c #90BE7E",
",. c #83C275",
"<. c #8AC376",
"1. c #84C47B",
"2. c #8BC37C",
"3. c #92C37B",
"4. c #3FA981",
"5. c #5F8E81",
"6. c #73938A",
"7. c #4AAC83",
"8. c #48AA85",
"9. c #55AA8A",
"0. c #5BB587",
"q. c #54B18B",
"w. c #5AB38C",
"e. c #59AE96",
"r. c #57B294",
"t. c #5BB393",
"y. c #5CB199",
"u. c #64AE82",
"i. c #6BB585",
"p. c #6CBC83",
"a. c #66B689",
"s. c #6DBA8B",
"d. c #76B48A",
"f. c #72BC8B",
"g. c #6EAD93",
"h. c #64BA94",
"j. c #6ABC94",
"k. c #65B799",
"l. c #7ABB94",
"z. c #6CABA4",
"x. c #79ABA5",
"c. c #6ABCA4",
"v. c #6BBCA6",
"b. c #73BBA4",
"n. c #79BAA7",
"m. c #71B6AE",
"M. c #76B9B3",
"N. c #74BAB2",
"B. c #7BBCB4",
"V. c #6FC287",
"C. c #76C297",
"Z. c #7BC295",
"A. c #7BC59A",
"S. c #6DC0AA",
"D. c #76C1A6",
"F. c #75C2AB",
"G. c #7BC4AC",
"H. c #7DC2B9",
"J. c #8A9A84",
"K. c #969B85",
"L. c #989F93",
"P. c #A49F93",
"I. c #8DBD83",
"U. c #93BD86",
"Y. c #92A490",
"T. c #98A79A",
"R. c #87BE97",
"E. c #9ABA95",
"W. c #A7B99A",
"Q. c #B0B998",
"!. c #81BAAC",
"~. c #94B5AA",
"^. c #85BEB7",
"/. c #A7B9A7",
"(. c #B0B3A7",
"). c #85C582",
"_. c #8BC686",
"`. c #84C983",
"'. c #92C283",
"]. c #97C88A",
"[. c #83C59B",
"{. c #88C699",
"}. c #93C494",
"|. c #9BC995",
" X c #9AC79B",
".X c #93D095",
"XX c #A5CE92",
"oX c #A1CD95",
"OX c #A6C69A",
"+X c #A5CD9B",
"@X c #A5D19B",
"#X c #AAD39D",
"$X c #85C8A4",
"%X c #8CCBA3",
"&X c #97CAA6",
"*X c #94D2A9",
"=X c #88C6B6",
"-X c #85C2BC",
";X c #8BC4BB",
":X c #98C8BA",
">X c #9CD3B4",
",X c #A9CBA8",
"<X c #ADCEAA",
"1X c #B4C9A5",
"2X c #B3CDAC",
"3X c #BBCEAC",
"4X c #A4D3A5",
"5X c #ABD5A3",
"6X c #A5D4AB",
"7X c #AAD6AB",
"8X c #B7D3AA",
"9X c #A7CBB8",
"0X c #B7CAB5",
"qX c #A7D4B8",
"wX c #B4D2B2",
"eX c #BBD3B3",
"rX c #B6D6B9",
"tX c #BBD4BC",
"yX c #BCDBBB",
"uX c #BAE6B2",
"iX c #C0D1AF",
"pX c #C2D3B3",
"aX c #C3DCBC",
"sX c #C9DCBB",
"dX c #C2E0BE",
"fX c #89C7C1",
"gX c #8CCAC3",
"hX c #94CCC4",
"jX c #9CCBC4",
"kX c #95CDC8",
"lX c #9BD1C3",
"zX c #9CD1CB",
"xX c #A3CCC3",
"cX c #AACDC6",
"vX c #B1CFC8",
"bX c #A5D3C2",
"nX c #AAD4C4",
"mX c #AAD7CA",
"MX c #ACD5CB",
"NX c #BED6C1",
"BX c #BCDCC4",
"VX c #B5D9CB",
"CX c #A6D4D1",
"ZX c #B7DCD4",
"AX c #BCE2D0",
"SX c #C3DBC3",
"DX c #C6DCC7",
"FX c #C0DFD9",
"GX c #C7E2C6",
"HX c #CBE2CB",
"JX c #D1E3CB",
"KX c #CEEFD5",
"LX c #E4F8DF",
"PX c #ECFCF1",
"IX c #FDFDFD",
/* pixels */
"k a , , < 0XtXNXJXBXaX#.<.<.B Z s.u.a.i.u.F c.S.S.S.F.*X{.*XqX>Xp p , , , /.tXtXDXSXyX#.-.<.Z Z i.u.u.u.u.k.c.v.v.S.D.*X$X%XqX>X",
"p I g 4 k 0XSXDXSXDXBX#.3.#.Z M i.i.i.j.A.F S.H.S.S.b.%X%X>XqXqXp b b 4 p /.DXDXSXSXSX#.3.#.Z M i.i.i.f.A.z.v.F.v.c.F.$X%X>X9X6X",
"f f c I b 0XNXDXGXNXwXZ #.%.#.Z s.s.A.C.Z.F y.y.e.y.y.Z.&X&X9X%Xs p v ^ V /.NXDXGXyXwXA #.%.#.Z i.s.A.C.C.e.e.y.e.y.y.R.&X&X>X{.",
"g v b v b 0XtXwXwX,XrX=.M A #.#.s.$XA.%XC.F y.y.e.y.c.l.R.&X{.R.g I I v I /.tXwXqX,XtX-.B Z #.#.s.$XA.*XA.e.y.y.y.y.c.l.R.&X&XR.",
"d I b b g 2XaXNXHXDXDX} #.B Z #.f.[.$XA.D.5.e.k.e.G.=Xl.l.R.{.[.d I b b j ,XyXBXHXHXHX[ } M A $.C.A.$XA.A.c.e.e.e.=XH.R.R.R.&XR.",
"9.Y 8.t.k.x.gX;XfX-Xn.D D S s S ..] { 2.} > 9X9X:XnXVXj j h j h H t G 9.j.6.^.^.;XB.x.s s G & s X.` / <.[ T.9X9X:X9X/.h h & h & ",
"9.k.t.q.8.;X;XB.B.M.N.W W H S Y O.,.1.1.O.> qXmXnXbXnX2 h j [ g r.c.r.q.8.~.gX^.B.N.N.W W W S Y ..=.1.<.../.mXmXbXbXnX2 h j C a ",
"9.9.y.q.8.B.N.m.N.N.B.u.W S H | 1.1.2...<.J MXMXnXbX9X1 i ! N h 8.9.k.8.8.!.N.m.m.N.M.u.W S H Q ,.1.1.,.<.~.mXmXnXbXxX1 i ~ N g ",
"t.9.w.8.8.n.H.N.m.M.B.W W s H W ..2.O.,.,.J mXnXhX:XnXg 3 5 1 M t.9.w.8.8.x.M.M.m.M.B.E W s S W O.2.,.,.,.9XmXnX:X:XqXg 3 5 2 a ",
"w.9.9.t.k.B.H.N.N.M.N.P w 0 w y ,...{ ,.#.6.:X9XqXqXVX` 5 2 a 3 t.t.9.w.k.n.H.N.m.M.M.I w 0 w y ,...{ ,.` ~.9X9X>XmXmX' 5 2 M 3 ",
"t.w.9.j.h.T.gX-XfXgXIXW e 0 0 w C ` <...B - 9X:XbXmXVXN 2 j 3 N t.w.9.g.h.6.gXH.fXfXIXW e 0 0 e C ] 2...C 6.:X:XmXMXZXN 2 a 3 j ",
"I.:.'.}.4Xv n 4 x v l  ._ O.V.`.LXHXaXaXeX& .X;...;.;.K L K p.p.*.:.U.}.@Xb n 4 c n k  .{ O.V._.LXGXaXsX0X$.}.1...;.).L L P Q V.",
"U.I.'.'.oXV ( c x V l ) _._.`..XHXGXsXsXpXh ;.;.X.;.).K K y U L I.I.I.'.oXN o.x x V k ) _._.).{.JXGXsXaXpX&.I.+. .I._.L L L P K ",
"U.I.].@X5X_ V x l v z ) `.`.Z..XJXeX2XwX0XJ I..X).;.X.P K P P I U.'.].@X5X/ V n l c z ) `.`.`..XJXpX2XwX0X*._.].;.,.=.P K L P | ",
"|.].oX+X5Xx x o.) V ^  . . ..X.XeX1X8XwX0X: ).]._.;.;.p.Q V.L H }.|.oX@X5Xp n _ ) V V  . .O..X.X0X2X3XeX8X).).].].X.d.V.Q V.K I ",
"+X,X|.@XoXx c ( ) m { _ ) +._...eXeXyXsXuX& O...I.).;.Q Q P y f OX+XoX+X|.z n C ) m o._ ) V._.X.wXaXsXSXeX! O. .I.;.X.Q Q P w f ",
"` / ] `.1.l.f.Z.[.Z.| ( ( ( ] V R u u T T G Y Y E Y u kXCXkXfXfX( C o.1.1.f.s.[.[.Z.u./ _ ( ( ^ R u u T T E E R Y R Y hXCXjXgXhX",
"1.{ o.O.O.C.[.p.f.i.f.V C ] ( / 8.R q.u R G E Y R E U kXkXxX-XB.1.{ o.+.+.d.[.i.s.i.p.^ n ] ] ( 7.R 9.u 8.t E Y E Y 0.kXzXjX^.^.",
").1.5X1...l.f.p.i.i.i.^ _ ] l k h.j.q.q.w.+ R E R E V.gXkXhX^.^.).1.#X+. .d.f.f.i.i.f.C ( o.l 5 s.h.7.q.w.S R E E E V.gXzXkX^.fX",
"KX2.o...1.u.f.f.f.Z.i./ n x l V h.t.0.q.8.+ E 0.h.w.r.lXCXzXzXzXuX1./ X...| f.f.f.Z.Q o.x x x b h.h.q.w.7.w E h.h.0.r.zXCXzXkXkX",
"`.X.X.) ] u.{.%X[.l.Z.k z 4 n C t.u T R T + s.j.A.A.C.CXmXzXgXzX1.2.O.` { u.$X X{.{.Z.z z 4 V n t.R 4.8.u W a.C.*XA.C.CXCXgXkXkX",
"T.Y.T.L.Y.J.P.P.P.T.K.K.K.K.&.@.  . .     J T.K.K.K.K.+ + + + + jXxX:X:X~.J.0X0X0X0X/.E. XE.E.U.d | f & 6 /.0X1X2X2XQ.f s I 6 6 ",
"fX^.cXjXhXNXNX0XtXDXBX}. XoX X XGXAXQ K D J rXeXsXdXdXq I 9 8 7 ;X;XxXjXhX(.NXNXrXyXNX}. X+X X|.KXKXQ S f 0XwXrXBXaXyXq I 8 8 7 ",
"B.gX^.;XxX0XNX9XwX9X9XU.}. X X XD ^ I ^ U > wXyXGXGX5Xq 9 7 8 6 B.:X;X^.jX/.NX9XwX9X9XU.}.|.&X XD ! Q ^ U /.wXyXGXdX<Xe 9 7 8 8 ",
":XlXhXB.;XtXSX9XrXVXBX4X4X.X}.{.7 6 7 p r : rXaXaXwX5Xq 8 8 q f ;XjXgXH.;X0XNX9XBXBXBX4X4X{.}.}.7 6 8 s q E.yXSXrX8X4Xq 7 9 9 I ",
"kXgXhXhXB.,XrXqXHXDXBX6X7X7X@X4X7 6 6 6 6 - <X2X2X,XtX6 q q f P hXhX:XgXB.E.rXqXDXGXBX6X6X7X4X7X6 7 6 6 6 Y.<X2X1X<XtX7 q q f I ",
"jX=X;X=XB.2XqXSXBXBXAX4X5X7X7X#X7 9 6 6 6 J <X<X,X<X2X7 f I P P gX=X;XfX^.L.nXGXVXBXSX,X6X7X7X7X7 8 9 7 6 J.,X<X<X7X8X7 I I P P ",
"<.|.=._.2.W.1XsXeX3X3XA A Z 3.3.zXIXAXZXZX; =XG.$XG.F.'.:.-.oX+X-.oX=.].2.E.5XsX3X3X3XA A A <.3.:XIXFXZXZXk.$Xb.G.b.F.U.:.-.|.+X",
"#.'.'.2.%.1XiXiXeXiXpXA A A #.<.jXMXFXnXxX; G.G.n.v.=X'.-.].#X+X[ :.'.:.' W.3XpXiXiXpXA Z A #.<.lXMXAXcXxXg.H.F.F.v.=X'.-.|.#XoX",
"[ -.:.[ [ 1XpXpXpXiXpXA A #.#.A lXZXcXxXcXF G.D.v.F.b.-.<.'.oX:.[ :.:.A [ W.iXpXpXpXsX#.A #.#.A lXVXcXxXcXg.D.D.v.D.c.3.:.'.oX-.",
"-.[ U.#.[ 3XDXpXiXpXiX%.%.<.XX3.CXvXcXcXvXJ =Xb.$Xn.n.:.:.>.#X%.:.' >.[ [ 1XsXpXpXpXiX%.%.-.iX3.CXcXcXZXZXg.G.G.b.n.n.-.-.].XX$.",
"]._.%.:.` 3XsXpX3X1X1X].].8X3.3.xXnXxXZXZXF l.m.n.B.n.%.oX#XXX-.I.;.[ &.A (.pXiX1XQ.1X>.].#X].:.~.cX9XcXZXg.g.g.n.n.x.$.|.OX|.*.",
"p d , , 8 $ 0X0XDXNXtX#.-.%.#.Z s.W u.u.9.* z.v.v.v.m.&XR.%X6X:Xk g , , < /.tXSXDXGXBX#.%.#.A Z f.Q i.u.a.F c.S.v.S.G.*X$X&XqX>X",
"p g N < k $ DXDXSXSXaX#.3.#.Z M s.s.u.a.Z.* c.F.v.v.F.%X%X*XqX,Xa I p < c /.DXDXNXGXyX#.3.#.A M i.i.i.s.A.F v.F.F.v.n.%X%X>XqX6X",
"p f c I V # NXDXGXBX5XZ #.%.#.Z s.s.C.C.A.* e.y.t.e.y.R.*X&XqX%Xg f v m b /.SXSXSXrX2XB A %.#.Z i.s.A.A.A.F y.e.e.r.y.l.*X6X&X*X",
"d b b b b $ rX2XwX,XaX%.Z Z #.#.i.$XA.*Xl.; y.k.e.y.v.l.R.&X%XR.d g I v b /.0X0XwX<XrX%.B Z #.#.A.$XA.%XA.F e.y.e.y.v.l.[.~.%XR.",
"s j v I v = NXVXHXDXJX=.o.M Z %.l.A.$XA.[.; e.k.e.F.G.Z.{.}.%XR.d g b b g /.yXBXDXHXHX} ' B B #.C.A.%XC.A.H t.y.r.G.N.R.l.R.~.[.",
"+ * + G g.= !.T.x.z.z.@ @ @ o @ ~ j g [ ! - T.~.~.T./.$ @ X o o y.8.a.S.j.x.gXgXfXfXN.W I W D H o.} o.1.2.> bXnXlXmXZXj N j C a ",
"q.y.q.r.8.$ fXM.M.B.N.W W H S W o.O.1.2.O.= MXMXbXbXqX2 h j ` a r.k.q.t.8.!.fXB.B.N.M.W W H S Y ..O.2.,.1.> CXmXbXbXnX3 h j ` a ",
"8.9.h.q.8.$ N.N.N.m.M.W l.S H | ,.2.,.O.<.= nXMXbXbXnX1 i ~ N h q.q.w.8.8.x.N.N.m.N.M.d.W S H | ,.1.2.} 1.> mXmXbXbXxX1 i N N j ",
"9.9.9.T 8.= B.N.m.M.H.W W 0 I W ..<...,.,.: MXMX:X:XbXj 3 5 1 z r.9.9.8.8.x.M.M.m.B.H.W I 0 W W O.1.=.;.Z 6.MXxX:XlX9Xj a 5 1 M ",
"u.e.9.t.h.$ H.N.N.N.N.K w 0 w y ,.,.} ,.} > 9XqXbXbXmX] 5 3 i 3 w.t.8.q.k.x.H.N.m.M.N.S w 0 w y <.1.{ =.=.J :XqXqXbXVX] 5 2 N 3 ",
"9.9.9.h.k.$ gXfX-XgXPX| w 0 0 e B } ,.,.C = :X:XbXMXVXN 2 j 3 v 8.9.9.9.h.# 5.6.B.-X~.W w s s D i h h h i # J.J J.Y.J.j i i 2 a ",
"&.:.U.|.4X@ c k c m b ) X. .V._.HXGXdXdXeX$ ].;.X...I.L L L o.V.:.-.U.E.+XV n l x m l _ {  .).X.PXDXSXpXiX& ].;.X.X.I.y L y p.p.",
":.:.U.'.oXX } / l V l ) `._.)..XHXGXpXsXpX- 1.I.X.;.I.y L y P L U.>.'.'.oXN o.n z V z ) `._.`..XJXsXaXaXpX: ;.).X.1._.y L L U y ",
"I.'.'.#X5XX n x n c x { `.`.V..XJXeX8XwX8X- I..X;.;...P L P P I U.I.}.+X4XN V n l c z ) V.`..X.XJX3X8X0X2XJ ]._.;.;.X.P L P P ! ",
"U.E.oX@X5X@ x o._ c m  . .O.{..XeX1XwXeX5X$ 1.]._.;.;.p.Q V.L H |.].+X+X5Xz b o._ ^ m  . .o..X{.eX2X2XeX8Xh 1.'.}.;.;.p.0.Q L H ",
"E.OX#X#XXX@ x V ) m _ { ) +._.X.eXeXpXGXyX@ +...).I...0.Q U e S OXOXoX].].a c ( _ m o._  .+._. .eXsXGXDXwX& +.X.1.;...Q Q U e e ",
"N / } ).1.# s.[.[.A.i./ ( ] ( V R u u u T * E E Y Y Y kXCXjXfXgX/ / ( 1.;.d.Z.{.[.Z.u.( C o.o.m T u T T R G E R Y Y R kXCXjXgX;X",
" .) O.,. .@ [.s.s.p.f.V C ( ( ( 7.R w.u 7.* E Y E R E lXkXjX^.^.1.]  .1.o.d.[.p.s.i.p.^ n C C } 7.T 9.u 7.G E Y Y R 0.kXCXlX^.^.",
"+.+.1.`. .O f.f.i.i.p.^ _ o.l 4 j.h.q.q.q.@ R E E E h.gXzXhX-X^.1.+.uX`. .d.f.f.i.i.s.^ o.o.4 4 j.j.w.q.w.+ R R E 0.0.kXzXzX-X^.",
"JX1.O.O.*.  [.f.f.Z.i./ z z z V h.t.w.w.7.  7.0.V.w.w.zXCXzXkXzX.X1.O.1.[ W l.f.f.Z. .n x 4 N V h.h.w.7.R + E C.h.0.w.zXCXzXkXzX",
"..).;./ ` @ [.$X$Xl.l.l l 4 n V w.u R T T O 0.C.G.A.V.CXCXkXkXkX1.1._ ( ` | [.$X[.[.A.l z 4 n x t.R R R T + a.C.>XA.C.CXCXkXkXgX",
"~.xX9X:X~.$ 0X0X0X0X0XE.OXE.U.U.d {.s s 6 = 0X1X1XwX3Xf f S 6 6 bXCXlXzX^.J.NXtXtXyXtX X&X X|._.P uXI s 9 > dXeXyXuXrXP I ! 8 8 ",
"!.;XjXjXhX% SX0XtXNXBX}. X X X XGXKXU S D = rXrXdXdXyXq I 8 8 7 ;X=XjX9XhX(.NXNXrXtXBX}. X X&X XKXKXU I D J yXeXdXdXyXf I 8 8 6 ",
"x.-X;X;XjX% tX0XrX<X9XU.}.}.,X XD I ^ ^ U = wXyXdXGX<Xq 8 6 8 7 n.hX-X;XjX/.tX9XwX9X,XR.}. X+X XD f I Q U > wXyXaXGX,Xq 8 7 8 0 ",
"^.hX;XB.^.$ GXqXNXVXBX4X4X}.}.}.7 6 7 7 9 = yXaXyX8X<X9 8 8 8 D fXjXgXB.;X/.BXwXVXBXBX4X7X}.}.}.7 6 7 9 q : yXyXrX8X1Xq 7 8 8 I ",
";XhXhXhXB.# qXqXBXGXBX6X7X7X4X4X6 7 6 6 6 $ 2X1X2X,XtX6 r q f I hXkX;XhX!.E.vXqXGXDXBX6X7X6X4X4X6 7 6 6 6 - <X1X2X,XtX6 q q f I ",
"-X=X;XfX=X# qXGXVXBXBX7X7X7X7X6X7 8 p 0 6 $ ,X5X8X<XwX7 K P I P :X:X;X:X$X- rXHXNXBXpX4X4X7X5X5X7 7 8 7 6 # ,X,X8X<X1X7 v I Q P ",
"$.oX,.'.3.$ 1XsX8X3XwXA A Z <.].zXIXZXZXmX* =Xb.G.F.D.U.3.-.oX+X=.oX=._.2.Y.8XsX3X3X3X#.A A <.3.:XIXFXZXmXF =Xb.G.S.F.'.'.-.|.@X",
"N :.'.-.$.$ eXiXiXiXiXZ A #.#.%.hXMXZXcXxX* $XG.F.c.G.].-.|.#XXX[ :.'.=.[ W.3X3XiXiXpXA B #.%.%.lXMXFXMXxX; G.G.F.k.=X'.=.].#X@X",
"~ -.>.' [ # iXpXpXpXpX#.A A #.Z jXZXvXxXxX- G.S.c.F.b.3.:.>.oX-.#.-.>.` [ W.iXiXpXiXsXA B #.#.#.lXVXcXxXxX> D.S.v.G.b.'.2.U.oX-.",
"*.} >.#.#.# sXsXiXiXiX<.<.<.XX3.zXvXcXCXZX- G.G.D.n.n.-.:.].oX=.'.} '.[ %./.DXpXiXiXiX-.%.-.uX3.CXvXcXMXFXJ G.n.D.n.n.-.:.XXoX$.",
":.'.2.U.#.$ sXiXiX3X3X3.3.8X].<.xXvXxXZXZX$ b.l.!.B.n.%.oX#X+X-.].2.-.'.#.Q.pXpX3X3X1X3.].8X].-.9XvXxXZXFXF j.b.B.$Xb.%.oX#X+X:."
};
