/* XPM */
static char *result[] = {
/* columns rows colors chars-per-pixel */
"64 64 132 2 ",
"   c #97AACB",
".  c #99ABCD",
"X  c #9CAED2",
"o  c #9EB1D2",
"O  c #9FB7D9",
"+  c #A2A5C6",
"@  c #A3A7C9",
"#  c #ABAECD",
"$  c #B1A7C9",
"%  c #B2ACCD",
"&  c #A1B1CE",
"*  c #B9B2CB",
"=  c #A6AFD0",
"-  c #A8AED0",
";  c #B5AFD0",
":  c #B8AED0",
">  c #A3B5D5",
",  c #AAB5D4",
"<  c #A7B8D6",
"1  c #ABBAD6",
"2  c #A5B6D9",
"3  c #A6B9D9",
"4  c #ACBDDB",
"5  c #B4B4D4",
"6  c #BAB4D3",
"7  c #B3B9D6",
"8  c #BCBCD5",
"9  c #B2B7DA",
"0  c #BEB7D8",
"q  c #B3BDDB",
"w  c #BBBDDA",
"e  c #B2BFE0",
"r  c #BDBFE0",
"t  c #CEB4CF",
"y  c #C4B7D4",
"u  c #C3BCD5",
"i  c #CABBD5",
"p  c #C3B7D8",
"a  c #C4BDDC",
"s  c #CABEDB",
"d  c #DEB5D3",
"f  c #D6BCD4",
"g  c #DDBCD6",
"h  c #E4BEDB",
"j  c #C8BEE0",
"k  c #BFC8CF",
"l  c #AFC0DD",
"z  c #B3C2DD",
"x  c #BCC2DE",
"c  c #B7C8DC",
"v  c #BCCADE",
"b  c #AFC1E1",
"n  c #B5C4E1",
"m  c #BCC5E2",
"M  c #B6C9E4",
"N  c #BCCBE4",
"B  c #BCCCE8",
"V  c #BFD0E5",
"C  c #C5C3D6",
"Z  c #CDC5D6",
"A  c #C9C8D5",
"S  c #C4C3DC",
"D  c #CBC5DD",
"F  c #C4C9DE",
"G  c #CCC9DE",
"H  c #D4C2D7",
"J  c #D2C4DD",
"K  c #DCC4DD",
"L  c #D4CADE",
"P  c #DBCADE",
"I  c #D5D1DF",
"U  c #E3C3DE",
"Y  c #E2CBDE",
"T  c #E0D0DF",
"R  c #C2C5E2",
"E  c #CBC5E2",
"W  c #C3CBE4",
"Q  c #CCCCE3",
"!  c #C3CDE9",
"~  c #C9CCE9",
"^  c #D4C6E1",
"/  c #DCC5E1",
"(  c #D3CCE3",
")  c #DBCCE3",
"_  c #D0C6E8",
"`  c #D4CDE8",
"'  c #DACDE9",
"]  c #C5D2E5",
"[  c #CBD4E5",
"{  c #CDD9E6",
"}  c #C4D3EA",
"|  c #CBD5EA",
" . c #CDD9EB",
".. c #D3D3E5",
"X. c #DCD3E5",
"o. c #D3DAE6",
"O. c #DBD9E6",
"+. c #D4D5E9",
"@. c #DBD6EA",
"#. c #D3DCEC",
"$. c #DBDBEC",
"%. c #C1D0F0",
"&. c #CBDAF0",
"*. c #D4DDF1",
"=. c #DCDEF0",
"-. c #E2C6E1",
";. c #EDC6E2",
":. c #E3CCE4",
">. c #EBCDE6",
",. c #E7CEE9",
"<. c #E9CEE8",
"1. c #F0C7E5",
"2. c #F3CAE8",
"3. c #E3D2E5",
"4. c #EAD1E6",
"5. c #E4D9E7",
"6. c #E4D5EA",
"7. c #EAD3EA",
"8. c #E3DBEC",
"9. c #EADBEC",
"0. c #E2DEF1",
"q. c #EADDF1",
"w. c #F1DDF2",
"e. c #D6E0EE",
"r. c #DAE2ED",
"t. c #D5E1F1",
"y. c #DAE3F1",
"u. c #DFE8F7",
"i. c #D9E4F8",
"p. c #E2E1EF",
"a. c #E4E3F2",
"s. c #E9E2F2",
/* pixels */
"k u.[ { o.y.t.t.{  . . .u.y.o.t.#.#.e.e.y.#.[ { e.#.t.t.a.y.#.r.r.y.#.r.$.$.o...@.@.8.@.@.$.8.$.a.p.8.s.9.9.6.I 5.6.) / ) <.5.4.",
"r.y.y.o.e.t.t.t.t.] t. .t.t.t.t.*.r.r.u.y.#. .{ { [ #.e.#.y.$.r.$.#.e.$.$.( @.$.$.$.( ..L G L 8.8.a.5.5.8.8.5.X.L 3.) ) :.<.X.) ",
"e.#.u.{ e.o.t.t.t.{  .{ { e.y.e.t.e.r.e.y.y.#.t.{ { { t.$.#.#.#.y...o...$.$.$.Q C C L ..( ( ) 8.s.s.p.q.s.8.9.6.9.X.P H P 4.P 3.",
"r.#.u.#.{ {  . . .{ { { y.t.e.e.y.e.e.e.u.#.t.y.t.y. .e.$.| o.#.[ [ | ..o.$.$.$.@.$...( @.6.$.Z 9.s.a.q.q.9.8.5.8.6.6.H 6.7.9.7.",
"r.{ e.y.r.e. .{ t.t.y.r.y.r.{ t.t.e.#.e.y.e.e.e.t.t.e.#.{ { Q F Q o.#.o...@.$.$.O...@.q.9.8.6.@.X.s.q.q.8.5.6.5.X.5.6.H 4.<.8.3.",
"r.o.e.o.o.e.e.y.y.o.r.e.y.u.e.e.i.o.o.e.e.y.e.#.e.t.y.t.y.r.o.$.#.+.@.+...+.$.$.@.O.8.@.@.O.8.) 3.9.6.q.6.6.3.6.:.:.7.K 7.>.3.>.",
"I e.e.r.y.r.r.u.y.{ e.e.r.t.#.#.e.e.e.e.e.e.y.e.{ e.e.t.e.#.O.a.$.$.$.$.X.O.$.0.$.@.@.$.@.@.8.) ) ^ ) ) ^ X.5.:.) :.7.Y >.2.3.3.",
"r.r.r.r.y.r.y.y.u.r.u.y.r.e.#.#.#.o.e.{ e.e.r.#.r.e.t.u.r.r.r.y.a.s.8.$...o.....$.O.) 8.6.L ' ( ' ` / 6.) 3.5.7.:.i K Y :.4.3.Y ",
"r.r.y.r.u.r.r.y.r.y.r.r.y.e.r. .{  .e.#.#.#.y.#.#.y.y.y.#.a.a.r.a.a.a.a.a.o.o.O.$.X.X.@.6.$.@.^ ^ ' J ) 6.9.w.7.3.:.:.f :.>.3.4.",
"r.y.e.u.r.y.y.y.y.{ { e.r.r.r.{  .{  .#.#. .t. .#.y.#.#.r.u.y.$.a.a.a.a.s.s.a.$.O.@.X.5.@.5.6.) ' 9.6.3.5.Y 8.9.7.K H K K U 5.4.",
"r.r.{ y.r.y.t.y.y.r.{ e. .t.y.t.#.*. .#.#.{ t.e.#.#.#.y.r.r.y.a.y.a.a.a.p.a.p.8.o.X.X.@.5.O.5.9.9.6.9.9.6.3.5.3.w.>.K :.Y 2.T 7.",
"r.r.{ y.e.{ #.e.t.u.{ {  .{ y.t. .y. . .e.e.t.*.e.#.y.y.y.y.$.$.$.r.u.a.p.O.a.a.$.O.X.X.@.8.6.8.6.q.9.5.5.8.T 4.9.w.U t K 2.T 9.",
"o.e.e.r.e.e. . .{ { &.{ ] { { { *.e.*.t.#.[ { { [  .{ #.#.#.o.+.o.[ [ ....X.$.a.p.8.X.X.X.8.6.X.:.8.6.3.5.7.5.4.7.>.7.U h h 4.7.",
"r.o.e.{ { { ] V &.&.V { { ] { ]  . .t.t.#.] ] ] {  .[ [ | W | +.$.+...+.@.$.a.p.p.p.5.p.I X.5.5.6.6.5.3.7.3.P :.3.7.:.7.K U Y T ",
"r.[ ] ] ] ] { t.&. . . .{  .t.{ t. .*. .t.t.t.*.] ] | #.#.$.+.y.$.#.$.o.$.8.8.p.p.s.8.s.9.5.5.3.3.3.3.:.7.6.:.Y :.7.K Y 4.;.T Y ",
"I F [ [  .t.{ r.t.e.r. . .{  .{ *.{ V | |  .*. .| *.| Q ..o.o.o.....O.O.$.$.$.$.O.O.8.s.s.X.5.) ) 8.4.6.K :.:.Y :.7.Y U U 1.Y ;.",
"r.o.$.y.y.$.#.=.y.*.#. .t. .t.}  .&.] ] ] *.t. .| |  .] W | +.#.#.+.[ @...( @.@...X.) 6.8.^ 6.) X.6.6.6.:.) f K f K >.f g d f 4.",
"O.p.p.#.#.#.$.| #.#. .| ] ]  .| ] | ] V ] {  .*.#.| | ] W F Q Q ....$.$.$.$.@.8.@.@.O.) 5.8.@.5.4.X.6.6.:.9.6.7.<.,.7.>.;.2.:.:.",
"O.o...[ o.#.#.*.#.#.] ] &.{ V { ] ]  .] V ] *. .&.*. . . .+.W [ #.$.$.@.$...$.$.@.5.6.X.8.0.) ) ) 6.8.8.9.9.7.7.:.,.7.>.>.U >.4.",
"I $.$.e...| | +.#.{ [ |  .{ ] | ] ] ] ] ] V *. . . .*.| *.~ | [ Q #.#...O...=.5.@.0.8.8.5.@.X.3.) 6.5.9.9.9.5.3.:.:.:.7.:.1.Y :.",
"I ..+.+.[ #.[ [ [ +.[ { ] ] ] ] { ] ]  .] ]  . .]  . .#.| | | [ =.#.$.$...@.$.p.8.O.X.6.@.@.6.8.6.6.5.5.5.9.9.:.4.:.:.7.>.;.:.Y ",
"G +.+.+...$.+.o.#.] ] [ ] | ] ] &.{ ] }  .| } } ]  . .] Q F #.$.Q $.$.$.$.@.0.$.$.8.$.) 8.6.8.6.4.X.5.5.5.5.9.9.9.:.:.:.U ;.P -.",
"O...[ $.+.@.$.#.#.+.W &.| W ] |  .| | ] | } } | ] { { { [ #.$.[ $.o.$.$.+.@.$.$.5.$.8.8.5.0.8.6.X.3.6.9.4.6.8.3.6.,./ :.U U P -.",
"L #.Q +.$.#.$.y.#.t.F *.t. .] ]  .| ] ] } V V &.] |  .#.#.e.r.#.Q ..[ ....+.0.q.$.$.X.$.8.@.@.6.@.) 6.6.6.6.9.9.3.K :.:.>.U P -.",
"I G $.[ +.#.+.#.o.*.Q *.#.| +.] ] | | ] } } V | v v ] ] [ [ [ #.$.[ $.$.Q O.@.$.$.8.$.s.a.X.8.X.3.X.3.6.7.8.8.9.3.K K -.:.;.) K ",
"A [ ..Q ( +.#.....| ] #.| | | Q | #.] v } } } V V  .e.o.| o.o.$.y.$.$.=.....$.@.) O.8.8.8.@.8.X.) X.3.X.5.7.3.:.6.:.K / -.h H -.",
"O.+.Q $.( [ | +.+.+.| | #. .#.y.#.i.y.*. .V V ] *.{  .#.o.| #.o.#.=.$.a.$...@.$.@.O.8.@.8...X.X.) ) X.4.3.6.) 3.:.:.H K K h J -.",
"L ( ..$.=.$.O.@.#.#.o...$.y.y.#.t.t.*.t. .e.e.#.t.e.e.#.#.#.[ +.#.$.o.$.O.X.$...$.$.0.8.8.L q.) P L ) 6.6.) 6.,.3.4.K K U U ) :.",
"I ..( C Q @.+.....+...#.$.e.r.r. .#.t. .t.t.y.#. .e.y.t.#.r.#.o.#.$.#.r.$.O.O.$.$.@.5.8.@.X.0.q.X.) X.6.) 6.:.@.4.:.K K K >.:.:.",
"I ( @.=.D Q +.$.o.+.#.#.=.#.#.|  . .] #. .e. .r.#.#.#.e.#.y.#.$...o.#.$.#.$.8.$.@.O.5.0.@...q.8.8.P ) ) ) ) 9.:.6.3.:.:.4.>.3.,.",
"o.L Q ..( C F @.+.$.~ | +.[ [ [  .] {  . . . .{ e.e.#.e.#.t.y.y...o.o.$.$.O.$.$.$.$.@.6.@.@.5.) 6.X.J J ) ) 3.@.) 6.7./ :.-.P / ",
"X.G @.$.+...D S ~ =.Q W W | | W [ { t.] { e.e.] #.e.#.e.#.$.#.#.$.[ o.o.$.$.$.O.$.8.8.8.O.3.L ) 6.8.) :.) ) L ) ) 6.9.3.K U ) :.",
"I ) @.@.6.....u a S +.+.+.$.*.*.*.t.t.#.] *.#.] *.#.e.e.#.#.#.@.$.#.#.=.=.+.=.@.$.$.$.$.O.@.@.X.X.5.) X.) ^ / J ) 8.9.' :.:.^ / ",
"L D ^ ( Q +.+.@.=.S ~ ~ Q [ | *.#.]  .{  .e.{ ]  .&.#.*.#.+.| *.$.#.=.=.+.@.@.+.+.@.@.....X...O.X.@.X.6.X.J ^ 6.:.) 7.@.' ,.( :.",
"I J ( ( @.@.+.( Q @.F $.W | +.#.*.t.{ #. .#. .] ] *.| } c c N c R R Q $.*.+.=.+.+.+...( ( X.o...) @.X.L ) 6.:.@.6.) :.:.J :.) ) ",
"L 6.^ J ( S ( Q Q Q ~ Q Q Q [ W *.{ ]  .] {  . .{ N W ! } ! } } | | ] | ~ +.Q ..+.( +.@.....) L L J ..( ' 6.@.6.@.6.@.6.J -.^ ) ",
"Z J ( L Q ( G @.Q Q Q ~ #.Q | #.]  . .] #.] ] } } &.N N N ] ] W ! ! W Q Q Q +.~ +.+.@.@.@.+.+...@.@.@.@.@.6.( 6.@.:.) ) ) -.^ ) ",
"Z L ( J ( ( ..$.E +.~ +.+.W +.W e. .#.{ *. .] c z | V  .&.#. .*.Q [ [ W W w S F R Q E Q ` +.( ( ' ` ..G G ^ J ) P J ) X.J K J H ",
"D ^ ^ D ( G Q +.@...( [ ~ Q #.Q F N v V } c | | | | ] ] ] | N v W } ! ! ~ ! R | Q S F ( ` Q ( ` ( ` ( ^ ^ J ^ J ) ^ ^ ' ) / E J ",
"L @.J E ..( G E $.Q +.G Q ~ | W W q N 1 n V V } ] | ] ] W x N v N N m R m W R Q [ ~ @.Q u x S G Q E Q ( ( ( ) @.^ J J ^ ^ / ^ J ",
"L ^ ' ( E ( Q ( +.` +.W Q R ~ W [ ! z N N z l ] | N c z ] N v B W ] N W W R ! ~ Q Q Q S F Q +.Q Q E ( ( ` @.( ^ ^ ^ ^ ) D / ( ^ ",
"L ) ( ` D Q Q Q Q ( ~ Q 8 R W ~ R N N z 1 4 z 1 4 4 z z } M N B B B N N m m R [ ] W Q Q F W S 6 D D F +.D ( ' ) ) ( ^ ^ L J Q ^ ",
"L ( ( ' Q C D E E R F W ~ x R m | [ } z N V z l n N B 1 N V M N N N N m m m m Q W F W [ Q F G W C Q S Q Q G G D G ( ( G J ^ E ^ ",
"Z ^ ) ^ s u u E D C S S R w [ | ~ N w } N N V z %.B } c v V B M N m B m ! m ! ! R m E ~ Q Q S Q E Q a C E ( E G ( ( G ^ u ^ ( ^ ",
"^ ^ ^ ^ J ^ Q E F D F a R R W W w x &.} N V } B 1 z 4 v V V z B N B m W m N N | R R ! E R W S u C ` Q C u D ( ( E ( Q ( ( J a s ",
"i ^ ^ ^ a D G C G D Q R R F R x W &.} } v N c V n < 4 l B } 1 N n N m M M M z x ! W ! E F W R F w ` +.w E a E Q ( +.( ( Q ' ..^ ",
"i s ' ' D S a u Q Q S Q E W x R ! [ ] } N N V V V 1 4 3 l } B M N N M N m 4 q N W ~ R ! R W W R R Q F S F C D D S S D Q E ^ G D ",
"i p j j s * a D E Q Q R Q 7 R W W N v V V N V B ] W > 2 4 z B m N n z M ! N B v B m W ! R R E m a R W S R S ( ..Q G E ....D F ( ",
"y p ' j s E 6 D 8 u S F a W Q N Q W B B | B V V V V n 2 3 4 4 M v z M n V M M N N x x m ! R R m x R W Q S w D [ ..+.Q Q S ^ Q Q ",
"y s s ) a a F a a 5 w w w x m R R N V ] ] V ] N B V B z 3 3 > n M z N c M N z N N ! w q m R ! R w R w w m w w 8 8 S F a C S R ~ ",
"y s y ^ ` s 0 : 8 w w 5 m w x 7 1 z m N V ] ] V V } ] N n l 4 > B M N M z z n l N B ! q q w w q 7 w ! w ~ E ! E E F F Q Q R R E ",
"i y D D ( ( Q R 8 0 j , R 7 x 7 7 4 4 , l v ] ] N ] { ] m & 4 o 3 4 4 > < l n n m N N R m q w n q q R w w m R F x R R Q Q Q R S ",
"s s s p E D S ( R 0 0 9 r R 9 9 7 4 4 e z z z ! } } ! } M N 4 X . O O o > 3 3 4 n N N B ! ! z W q M W m R w m w x w w w R E W R ",
"^ J : p a ( F 6 E ~ w r w q r q 9 3 4 e e z z 4 l 4 M B } q B 3 O O o o . O 2 3 b B B ] W } N B z x w R m w R R x m R m ! Q w R ",
"s _ a 0 # a E 6 6 w E w q q n m 7 z 4 n e 3 4 e l 4 n M m B 4 z > & 3 4 > < 4 1 1 n c V ] N N ! N 1 } M N N W ! W x w R m ~ x m ",
"* : % p 6 % E w w 5 ~ m w w 9 q M M 4 3 e 4 3 4 l l l n n 4 n , M > l l l l < < 4 l 4 l 1 M B B c z ! z N R m R ~ W x x R W x w ",
"0 ; : ; 5 % 6 R S 7 x w m r n e n 1 & 1 > > 4 4 4 l b n n z z 4 N 4 > l b 4 4 > e > > 2 4 3 3 4 n e n N m M M R ! ! ! R w w [ ! ",
"s j _ j 0 % ; # w 5 7 m m m r 4 z z 1 < 4 3 3 > 4 b 4 l q z , 1 n q 4 4 l < < 4 4 3 3 2 > 4 4 B n 4 > q q m w m ! R N ! N m W ! ",
"* 6 j j E a 5 5 9 9 9 q > q , 4 & c l 4 4 3 4 3 l 4 4 4 4 l < 1 q n > n 1 > > 4 l 1 4 l 4 4 z M n e o 2 n B e m W W ! W W m ! m ",
"y : $ a R j r ; 5 # 9 m W z n z 1 l n l e b n 4 4 l 4 n l q < < z M > 4 l n 1 < 1 1 1 4 1 q m N 4 4   2 2 n n n B N M W ! W B m ",
"6 0 % ; 0 a w 9 + @ 9 5 9 ! ! ! N M z B z z n z 4 > 1 n z l 3 3 l b 3 3 3 3 3 l z 4 q q M B m M n n n = 2 4 n e M N b c n z M B ",
"6 6 6 # % 5 m R r q - q 9 > 4 n N z z V z z B M < 1 z 1 1 < 4 > n l l o o 3 3 < 4 4 n M e q M N n M n n X X 2 2 M M n c z z l M ",
"5 6 a 9 0 w w 5 9 r > , 1 q , n l z z M } V z z B ] } l z l O b M z l n 3 . > n B B n N 4 l z n l B z n e X 2 o o 4 l l l l z M ",
"6 0 ; a 5 9 q q q , q , q 4 4 q l z z z N M c z 1 > 1 z > M >   l N ! n B B z 1 q n n 4 4 z n M 4 n c n n 3 4 2 o > 3 M M z n M "
};
