<svg width="21" height="20" viewBox="0 0 21 20" fill="none" xmlns="http://www.w3.org/2000/svg">
<path d="M17.15 19V13M14.3 16H20M10.5 13H6.7C4.92942 13 4.04413 13 3.3458 13.3045C2.4147 13.7105 1.67493 14.4892 1.28926 15.4693C1 16.2044 1 17.1362 1 19M13.825 1.29076C15.2176 1.88415 16.2 3.32131 16.2 5C16.2 6.67869 15.2176 8.11585 13.825 8.70924M11.925 5C11.925 7.20914 10.2237 9 8.125 9C6.02632 9 4.325 7.20914 4.325 5C4.325 2.79086 6.02632 1 8.125 1C10.2237 1 11.925 2.79086 11.925 5Z" stroke="white" stroke-opacity="0.7" stroke-width="2" stroke-linecap="round" stroke-linejoin="round"/>
</svg>
