<?xml version="1.0" encoding="UTF-8"?>
<!DOCTYPE svg PUBLIC "-//W3C//DTD SVG 1.1//EN" "http://www.w3.org/Graphics/SVG/1.1/DTD/svg11.dtd">
<svg xmlns="http://www.w3.org/2000/svg" version="1.1" width="72px" height="83px" style="shape-rendering:geometricPrecision; text-rendering:geometricPrecision; image-rendering:optimizeQuality; fill-rule:evenodd; clip-rule:evenodd" xmlns:xlink="http://www.w3.org/1999/xlink">
<g><path style="opacity:0.901" fill="#6404b0" d="M 1.5,-0.5 C 9.83333,-0.5 18.1667,-0.5 26.5,-0.5C 29.2371,4.63799 32.2371,9.63799 35.5,14.5C 38.7629,9.63799 41.7629,4.63799 44.5,-0.5C 52.8333,-0.5 61.1667,-0.5 69.5,-0.5C 69.8333,0.5 70.5,1.16667 71.5,1.5C 71.5,2.83333 71.5,4.16667 71.5,5.5C 65.8047,13.8798 60.4714,22.5465 55.5,31.5C 53.9731,31.573 52.9731,30.9063 52.5,29.5C 53.3764,29.6309 54.0431,29.2975 54.5,28.5C 58.3333,22.1667 62.1667,15.8333 66,9.5C 67.7068,7.09121 68.5402,4.42455 68.5,1.5C 61.1591,1.33368 53.8258,1.50034 46.5,2C 41.5122,9.14663 37.1789,16.6466 33.5,24.5C 32.5,24.5 31.5,24.5 30.5,24.5C 31.6082,22.2185 32.9415,20.0519 34.5,18C 31.417,12.4985 28.0836,7.16516 24.5,2C 17.1742,1.50034 9.8409,1.33368 2.5,1.5C 2.37201,3.65472 2.87201,5.65472 4,7.5C 8.60848,15.0699 13.4418,22.4032 18.5,29.5C 18.0269,30.9063 17.0269,31.573 15.5,31.5C 10.5286,22.5465 5.19527,13.8798 -0.5,5.5C -0.5,4.16667 -0.5,2.83333 -0.5,1.5C 0.5,1.16667 1.16667,0.5 1.5,-0.5 Z"/></g>
<g><path style="opacity:1" fill="#800dd9" d="M 30.5,24.5 C 26.333,25.578 22.333,27.2446 18.5,29.5C 13.4418,22.4032 8.60848,15.0699 4,7.5C 2.87201,5.65472 2.37201,3.65472 2.5,1.5C 9.8409,1.33368 17.1742,1.50034 24.5,2C 28.0836,7.16516 31.417,12.4985 34.5,18C 32.9415,20.0519 31.6082,22.2185 30.5,24.5 Z"/></g>
<g><path style="opacity:1" fill="#9c31ef" d="M 52.5,29.5 C 46.6736,26.126 40.3403,24.4594 33.5,24.5C 37.1789,16.6466 41.5122,9.14663 46.5,2C 53.8258,1.50034 61.1591,1.33368 68.5,1.5C 68.5402,4.42455 67.7068,7.09121 66,9.5C 62.1667,15.8333 58.3333,22.1667 54.5,28.5C 54.0431,29.2975 53.3764,29.6309 52.5,29.5 Z"/></g>
<g><path style="opacity:0.979" fill="#c28045" d="M 30.5,24.5 C 31.5,24.5 32.5,24.5 33.5,24.5C 40.3403,24.4594 46.6736,26.126 52.5,29.5C 52.9731,30.9063 53.9731,31.573 55.5,31.5C 63.878,39.814 66.7113,49.814 64,61.5C 60.3146,71.6842 53.4813,78.6842 43.5,82.5C 38.1667,82.5 32.8333,82.5 27.5,82.5C 7.55465,73.592 1.72132,58.9253 10,38.5C 11.6665,36.0043 13.4998,33.671 15.5,31.5C 17.0269,31.573 18.0269,30.9063 18.5,29.5C 22.333,27.2446 26.333,25.578 30.5,24.5 Z"/></g>
<g><path style="opacity:1" fill="#da9f67" d="M 28.5,26.5 C 53.6259,25.7864 64.4592,37.7864 61,62.5C 54.7643,76.5969 43.9309,82.4302 28.5,80C 9.44238,71.3809 4.27572,57.5476 13,38.5C 17.1839,33.1398 22.3505,29.1398 28.5,26.5 Z"/></g>
<g><path style="opacity:1" fill="#c58348" d="M 29.5,31.5 C 42.672,30.0012 51.8387,35.3345 57,47.5C 59.0582,61.2189 53.5582,70.3856 40.5,75C 27.1529,76.7434 18.3196,71.2434 14,58.5C 12.4664,45.5588 17.633,36.5588 29.5,31.5 Z"/></g>
<g><path style="opacity:1" fill="#f5b881" d="M 31.5,33.5 C 48.446,33.2791 56.2794,41.6124 55,58.5C 50.0489,71.3918 40.8823,75.8918 27.5,72C 16.2069,65.2402 13.0402,55.7402 18,43.5C 21.5603,38.7561 26.0603,35.4228 31.5,33.5 Z"/></g>
<g><path style="opacity:1" fill="#c7864b" d="M 31.5,42.5 C 41.4453,41.7902 45.4453,46.4568 43.5,56.5C 41.7199,62.5594 37.7199,64.726 31.5,63C 27.9489,61.239 26.9489,58.5723 28.5,55C 29.448,54.5172 30.448,54.3505 31.5,54.5C 31.5,53.1667 31.5,51.8333 31.5,50.5C 30.1667,50.5 28.8333,50.5 27.5,50.5C 27.2776,46.9441 28.6109,44.2774 31.5,42.5 Z"/></g>
<g><path style="opacity:1" fill="#f9cda3" d="M 31.5,44.5 C 37.9857,42.8346 40.819,45.168 40,51.5C 39.5,52 39,52.5 38.5,53C 42.4759,55.6174 42.4759,58.2841 38.5,61C 36.1667,61.6667 33.8333,61.6667 31.5,61C 29.9632,59.8904 29.2965,58.3904 29.5,56.5C 32.0037,57.6392 34.6703,58.3059 37.5,58.5C 37.5,57.1667 37.5,55.8333 37.5,54.5C 36.1667,54.5 34.8333,54.5 33.5,54.5C 33.5,53.5 33.5,52.5 33.5,51.5C 36.5,51.8333 37.8333,50.5 37.5,47.5C 35.4534,47.5111 33.4534,47.8444 31.5,48.5C 30.8333,48.1667 30.1667,47.8333 29.5,47.5C 30.1925,46.4822 30.8592,45.4822 31.5,44.5 Z"/></g>
</svg>
