<?xml version="1.0" encoding="UTF-8"?>
<!DOCTYPE svg PUBLIC "-//W3C//DTD SVG 1.1//EN" "http://www.w3.org/Graphics/SVG/1.1/DTD/svg11.dtd">
<svg xmlns="http://www.w3.org/2000/svg" version="1.1" width="82px" height="83px" style="shape-rendering:geometricPrecision; text-rendering:geometricPrecision; image-rendering:optimizeQuality; fill-rule:evenodd; clip-rule:evenodd" xmlns:xlink="http://www.w3.org/1999/xlink">
<g><path style="opacity:0.901" fill="#6404b0" d="M 11.5,-0.5 C 19.8333,-0.5 28.1667,-0.5 36.5,-0.5C 39.2371,4.63799 42.2371,9.63799 45.5,14.5C 48.7629,9.63799 51.7629,4.63799 54.5,-0.5C 62.8333,-0.5 71.1667,-0.5 79.5,-0.5C 79.8333,0.5 80.5,1.16667 81.5,1.5C 81.5,2.83333 81.5,4.16667 81.5,5.5C 75.8047,13.8798 70.4714,22.5465 65.5,31.5C 63.9731,31.573 62.9731,30.9063 62.5,29.5C 63.3764,29.6309 64.0431,29.2975 64.5,28.5C 68.3333,22.1667 72.1667,15.8333 76,9.5C 77.7068,7.09121 78.5402,4.42455 78.5,1.5C 71.1591,1.33368 63.8258,1.50034 56.5,2C 51.5122,9.14663 47.1789,16.6466 43.5,24.5C 42.5,24.5 41.5,24.5 40.5,24.5C 41.6082,22.2185 42.9415,20.0519 44.5,18C 41.417,12.4985 38.0836,7.16516 34.5,2C 27.1742,1.50034 19.8409,1.33368 12.5,1.5C 14.1542,7.14605 16.6542,12.4794 20,17.5C 20.7589,19.0629 21.9256,20.0629 23.5,20.5C 23.1436,22.1898 22.1436,23.1898 20.5,23.5C 17.264,17.3635 13.764,11.3635 10,5.5C 9.25164,3.15994 9.75164,1.15994 11.5,-0.5 Z"/></g>
<g><path style="opacity:1" fill="#800ed8" d="M 40.5,24.5 C 38.0336,25.6341 35.367,25.8007 32.5,25C 30.8495,22.1869 28.8495,19.6869 26.5,17.5C 25.1451,18.1882 24.1451,19.1882 23.5,20.5C 21.9256,20.0629 20.7589,19.0629 20,17.5C 16.6542,12.4794 14.1542,7.14605 12.5,1.5C 19.8409,1.33368 27.1742,1.50034 34.5,2C 38.0836,7.16516 41.417,12.4985 44.5,18C 42.9415,20.0519 41.6082,22.2185 40.5,24.5 Z"/></g>
<g><path style="opacity:1" fill="#9c31ef" d="M 62.5,29.5 C 56.6649,26.0004 50.3316,24.3338 43.5,24.5C 47.1789,16.6466 51.5122,9.14663 56.5,2C 63.8258,1.50034 71.1591,1.33368 78.5,1.5C 78.5402,4.42455 77.7068,7.09121 76,9.5C 72.1667,15.8333 68.3333,22.1667 64.5,28.5C 64.0431,29.2975 63.3764,29.6309 62.5,29.5 Z"/></g>
<g><path style="opacity:0.922" fill="#e89c0b" d="M 40.5,24.5 C 41.5,24.5 42.5,24.5 43.5,24.5C 50.3316,24.3338 56.6649,26.0004 62.5,29.5C 62.9731,30.9063 63.9731,31.573 65.5,31.5C 73.878,39.814 76.7113,49.814 74,61.5C 70.3146,71.6842 63.4813,78.6842 53.5,82.5C 48.1667,82.5 42.8333,82.5 37.5,82.5C 23.9459,77.6083 16.9459,67.9417 16.5,53.5C 16.6765,47.2306 17.3432,41.0639 18.5,35C 15.1078,32.7146 13.4411,29.548 13.5,25.5C 16.1522,25.5905 18.4855,24.9238 20.5,23.5C 22.1436,23.1898 23.1436,22.1898 23.5,20.5C 24.1451,19.1882 25.1451,18.1882 26.5,17.5C 28.8495,19.6869 30.8495,22.1869 32.5,25C 35.367,25.8007 38.0336,25.6341 40.5,24.5 Z"/></g>
<g><path style="opacity:1" fill="#feec96" d="M 32.5,33.5 C 32.7989,35.604 32.4656,37.604 31.5,39.5C 28.1667,36.8333 24.8333,36.8333 21.5,39.5C 20.7025,39.0431 20.3691,38.3764 20.5,37.5C 20.8571,33.336 19.1905,30.1693 15.5,28C 17.5,27.6667 19.5,27.3333 21.5,27C 23.0569,24.7045 24.7236,22.5378 26.5,20.5C 28.0267,22.1933 29.3601,24.0266 30.5,26C 32.7148,27.0438 35.0481,27.7105 37.5,28C 35.6266,29.7038 33.9599,31.5372 32.5,33.5 Z"/></g>
<g><path style="opacity:1" fill="#f6c44e" d="M 32.5,33.5 C 34.0295,34.0668 35.5295,34.7334 37,35.5C 38.3561,34.6198 39.8561,34.2865 41.5,34.5C 43.288,34.2148 44.9547,34.5481 46.5,35.5C 39.9861,36.3352 34.8194,39.3352 31,44.5C 29.3084,47.6438 28.1418,50.9771 27.5,54.5C 26.5344,52.604 26.2011,50.604 26.5,48.5C 26.8664,46.095 27.5331,43.7617 28.5,41.5C 28.4573,40.5836 28.1239,39.9169 27.5,39.5C 25.7162,39.8925 24.0495,40.5592 22.5,41.5C 21.791,40.596 20.791,40.2627 19.5,40.5C 19.2627,39.209 19.596,38.209 20.5,37.5C 20.3691,38.3764 20.7025,39.0431 21.5,39.5C 24.8333,36.8333 28.1667,36.8333 31.5,39.5C 32.4656,37.604 32.7989,35.604 32.5,33.5 Z"/></g>
<g><path style="opacity:1" fill="#fdda26" d="M 41.5,34.5 C 55.6822,32.6277 63.6822,38.9611 65.5,53.5C 63.0353,69.9063 53.7019,76.073 37.5,72C 27.9443,66.802 24.2777,58.9687 26.5,48.5C 26.2011,50.604 26.5344,52.604 27.5,54.5C 28.1418,50.9771 29.3084,47.6438 31,44.5C 34.8194,39.3352 39.9861,36.3352 46.5,35.5C 44.9547,34.5481 43.288,34.2148 41.5,34.5 Z"/></g>
<g><path style="opacity:1" fill="#fbb70c" d="M 22.5,41.5 C 24.0495,40.5592 25.7162,39.8925 27.5,39.5C 19.6332,55.4002 23.6332,67.2335 39.5,75C 55.8862,76.6116 65.2195,69.2783 67.5,53C 63.8211,35.1603 53.1544,28.4936 35.5,33C 37.9229,31.4293 39.2562,29.2626 39.5,26.5C 61.7922,25.626 72.6256,36.2927 72,58.5C 67.1447,75.336 55.978,82.5027 38.5,80C 23.3762,73.926 16.8762,62.7593 19,46.5C 19.6972,44.4156 20.8639,42.7489 22.5,41.5 Z"/></g>
<g><path style="opacity:1" fill="#e99f0f" d="M 45.5,42.5 C 46.8333,42.5 48.1667,42.5 49.5,42.5C 49.5,49.5 49.5,56.5 49.5,63.5C 47.2075,63.7564 45.0408,63.4231 43,62.5C 42.5014,58.8484 42.3347,55.1817 42.5,51.5C 38.7747,51.2204 37.608,49.2204 39,45.5C 41.294,44.5783 43.4606,43.5783 45.5,42.5 Z"/></g>
<g><path style="opacity:1" fill="#feed98" d="M 46.5,44.5 C 47.4889,49.9753 47.8222,55.642 47.5,61.5C 46.5,61.5 45.5,61.5 44.5,61.5C 44.8256,57.1161 44.4922,52.7828 43.5,48.5C 42.1374,49.8793 41.1374,49.7126 40.5,48C 42.2227,46.2509 44.2227,45.0842 46.5,44.5 Z"/></g>
</svg>
