<svg width="35" height="36" viewBox="0 0 35 36" fill="none" xmlns="http://www.w3.org/2000/svg">
<g filter="url(#filter0_d_883_1819)">
<path d="M11.25 15.4464H11.2639M17.5 15.4464H17.5139M23.75 15.4464H23.7639M14.5833 27.5643L16.6111 30.2757C16.9127 30.6789 17.0634 30.8805 17.2483 30.9526C17.4102 31.0158 17.5898 31.0158 17.7517 30.9526C17.9366 30.8805 18.0873 30.6789 18.3889 30.2757L20.4167 27.5643C20.8238 27.0199 21.0274 26.7477 21.2757 26.5398C21.6068 26.2627 21.9977 26.0667 22.4174 25.9674C22.7321 25.8929 23.0714 25.8929 23.75 25.8929C25.6914 25.8929 26.6621 25.8929 27.4278 25.5748C28.4488 25.1507 29.2599 24.3372 29.6828 23.3134C30 22.5455 30 21.572 30 19.625V11.6857C30 9.34549 30 8.17539 29.5459 7.28154C29.1464 6.49529 28.509 5.85605 27.725 5.45544C26.8337 5 25.6669 5 23.3333 5H11.6667C9.33311 5 8.16634 5 7.27504 5.45544C6.49103 5.85605 5.85361 6.49529 5.45414 7.28154C5 8.17539 5 9.34549 5 11.6857V19.625C5 21.572 5 22.5455 5.31717 23.3134C5.74006 24.3372 6.5512 25.1507 7.57215 25.5748C8.33787 25.8929 9.30858 25.8929 11.25 25.8929C11.9286 25.8929 12.2679 25.8929 12.5826 25.9674C13.0023 26.0667 13.3932 26.2627 13.7243 26.5398C13.9726 26.7477 14.1762 27.0199 14.5833 27.5643ZM11.9444 15.4464C11.9444 15.8311 11.6335 16.1429 11.25 16.1429C10.8665 16.1429 10.5556 15.8311 10.5556 15.4464C10.5556 15.0618 10.8665 14.75 11.25 14.75C11.6335 14.75 11.9444 15.0618 11.9444 15.4464ZM18.1944 15.4464C18.1944 15.8311 17.8835 16.1429 17.5 16.1429C17.1165 16.1429 16.8056 15.8311 16.8056 15.4464C16.8056 15.0618 17.1165 14.75 17.5 14.75C17.8835 14.75 18.1944 15.0618 18.1944 15.4464ZM24.4444 15.4464C24.4444 15.8311 24.1335 16.1429 23.75 16.1429C23.3665 16.1429 23.0556 15.8311 23.0556 15.4464C23.0556 15.0618 23.3665 14.75 23.75 14.75C24.1335 14.75 24.4444 15.0618 24.4444 15.4464Z" stroke="white" stroke-width="2" stroke-linecap="round" stroke-linejoin="round" shape-rendering="crispEdges"/>
</g>
<defs>
<filter id="filter0_d_883_1819" x="0" y="0" width="35" height="36" filterUnits="userSpaceOnUse" color-interpolation-filters="sRGB">
<feFlood flood-opacity="0" result="BackgroundImageFix"/>
<feColorMatrix in="SourceAlpha" type="matrix" values="0 0 0 0 0 0 0 0 0 0 0 0 0 0 0 0 0 0 127 0" result="hardAlpha"/>
<feOffset/>
<feGaussianBlur stdDeviation="2"/>
<feComposite in2="hardAlpha" operator="out"/>
<feColorMatrix type="matrix" values="0 0 0 0 1 0 0 0 0 0.952052 0 0 0 0 0.520524 0 0 0 1 0"/>
<feBlend mode="normal" in2="BackgroundImageFix" result="effect1_dropShadow_883_1819"/>
<feBlend mode="normal" in="SourceGraphic" in2="effect1_dropShadow_883_1819" result="shape"/>
</filter>
</defs>
</svg>
