<?xml version="1.0" encoding="UTF-8"?>
<!DOCTYPE svg PUBLIC "-//W3C//DTD SVG 1.1//EN" "http://www.w3.org/Graphics/SVG/1.1/DTD/svg11.dtd">
<svg xmlns="http://www.w3.org/2000/svg" version="1.1" width="72px" height="83px" style="shape-rendering:geometricPrecision; text-rendering:geometricPrecision; image-rendering:optimizeQuality; fill-rule:evenodd; clip-rule:evenodd" xmlns:xlink="http://www.w3.org/1999/xlink">
<g><path style="opacity:0.901" fill="#6404b0" d="M 1.5,-0.5 C 9.83333,-0.5 18.1667,-0.5 26.5,-0.5C 29.2371,4.63799 32.2371,9.63799 35.5,14.5C 38.7629,9.63799 41.7629,4.63799 44.5,-0.5C 52.8333,-0.5 61.1667,-0.5 69.5,-0.5C 69.8333,0.5 70.5,1.16667 71.5,1.5C 71.5,2.83333 71.5,4.16667 71.5,5.5C 65.8047,13.8798 60.4714,22.5465 55.5,31.5C 54.5084,31.6716 53.8417,31.3382 53.5,30.5C 57.4403,23.3866 61.607,16.3866 66,9.5C 67.7068,7.09121 68.5402,4.42455 68.5,1.5C 60.9809,1.17503 53.6476,1.50837 46.5,2.5C 42.7487,6.99457 39.7487,11.9946 37.5,17.5C 35.412,19.3356 34.0787,21.6689 33.5,24.5C 32.5,24.5 31.5,24.5 30.5,24.5C 31.6082,22.2185 32.9415,20.0519 34.5,18C 31.417,12.4985 28.0836,7.16516 24.5,2C 17.1742,1.50034 9.8409,1.33368 2.5,1.5C 2.37201,3.65472 2.87201,5.65472 4,7.5C 8.60848,15.0699 13.4418,22.4032 18.5,29.5C 18.0269,30.9063 17.0269,31.573 15.5,31.5C 10.5286,22.5465 5.19527,13.8798 -0.5,5.5C -0.5,4.16667 -0.5,2.83333 -0.5,1.5C 0.5,1.16667 1.16667,0.5 1.5,-0.5 Z"/></g>
<g><path style="opacity:1" fill="#7f0dda" d="M 30.5,24.5 C 26.3088,25.7837 22.3088,27.4504 18.5,29.5C 13.4418,22.4032 8.60848,15.0699 4,7.5C 2.87201,5.65472 2.37201,3.65472 2.5,1.5C 9.8409,1.33368 17.1742,1.50034 24.5,2C 28.0836,7.16516 31.417,12.4985 34.5,18C 32.9415,20.0519 31.6082,22.2185 30.5,24.5 Z"/></g>
<g><path style="opacity:1" fill="#9a2eef" d="M 46.5,2.5 C 53.6476,1.50837 60.9809,1.17503 68.5,1.5C 68.5402,4.42455 67.7068,7.09121 66,9.5C 61.607,16.3866 57.4403,23.3866 53.5,30.5C 47.5375,26.2915 40.8708,24.2915 33.5,24.5C 34.0787,21.6689 35.412,19.3356 37.5,17.5C 37.3691,18.3764 37.7025,19.0431 38.5,19.5C 42.3198,14.5393 45.6532,9.20593 48.5,3.5C 48.0431,2.70245 47.3764,2.36912 46.5,2.5 Z"/></g>
<g><path style="opacity:1" fill="#ad50f7" d="M 46.5,2.5 C 47.3764,2.36912 48.0431,2.70245 48.5,3.5C 45.6532,9.20593 42.3198,14.5393 38.5,19.5C 37.7025,19.0431 37.3691,18.3764 37.5,17.5C 39.7487,11.9946 42.7487,6.99457 46.5,2.5 Z"/></g>
<g><path style="opacity:0.828" fill="#83a5b1" d="M 30.5,24.5 C 31.5,24.5 32.5,24.5 33.5,24.5C 40.8708,24.2915 47.5375,26.2915 53.5,30.5C 53.8417,31.3382 54.5084,31.6716 55.5,31.5C 63.878,39.814 66.7113,49.814 64,61.5C 60.3146,71.6842 53.4813,78.6842 43.5,82.5C 38.1667,82.5 32.8333,82.5 27.5,82.5C 7.55465,73.592 1.72132,58.9253 10,38.5C 11.6665,36.0043 13.4998,33.671 15.5,31.5C 17.0269,31.573 18.0269,30.9063 18.5,29.5C 22.3088,27.4504 26.3088,25.7837 30.5,24.5 Z"/></g>
<g><path style="opacity:1" fill="#b7c9cf" d="M 30.5,26.5 C 52.3402,26.1725 62.8402,36.8391 62,58.5C 56.7472,76.5473 44.9138,83.3807 26.5,79C 11.7642,72.0258 6.26423,60.5258 10,44.5C 14.1753,35.3498 21.0086,29.3498 30.5,26.5 Z"/></g>
<g><path style="opacity:1" fill="#86a8b3" d="M 29.5,31.5 C 42.672,30.0012 51.8387,35.3345 57,47.5C 58.5,67.3333 49.3333,76.5 29.5,75C 14.2746,67.9927 10.1079,56.8261 17,41.5C 20.4894,37.1621 24.6561,33.8287 29.5,31.5 Z"/></g>
<g><path style="opacity:1" fill="#c5d3d7" d="M 31.5,33.5 C 47.959,33.1251 55.7923,41.1251 55,57.5C 51.2155,70.1518 42.7155,75.3185 29.5,73C 16.836,66.6823 13.0026,56.849 18,43.5C 21.416,38.5577 25.916,35.2244 31.5,33.5 Z"/></g>
<g><path style="opacity:1" fill="#86a9b3" d="M 31.5,42.5 C 42.7645,41.9286 45.4312,46.4286 39.5,56C 43.1899,56.6904 44.3566,58.8571 43,62.5C 38.2523,63.6349 33.419,63.8015 28.5,63C 27.2404,61.1862 27.2404,59.3529 28.5,57.5C 30.0404,55.6132 31.7071,53.7799 33.5,52C 31.5273,51.5045 29.5273,51.3379 27.5,51.5C 27.3398,49.8008 27.5065,48.1341 28,46.5C 29.3756,45.2949 30.5423,43.9616 31.5,42.5 Z"/></g>
<g><path style="opacity:1" fill="#d3e5ea" d="M 32.5,44.5 C 39.9315,43.7602 42.0981,46.7602 39,53.5C 37.5,55 36,56.5 34.5,58C 36.8098,58.4966 39.1432,58.6633 41.5,58.5C 41.5,59.5 41.5,60.5 41.5,61.5C 37.5,61.5 33.5,61.5 29.5,61.5C 30.6076,57.8689 32.7742,54.8689 36,52.5C 37.0086,50.9751 37.5086,49.3084 37.5,47.5C 35.0459,47.3205 32.8792,47.9872 31,49.5C 30.5,49.1667 30,48.8333 29.5,48.5C 30.1716,46.8405 31.1716,45.5072 32.5,44.5 Z"/></g>
</svg>
