/* XPM */
static char *result[] = {
/* columns rows colors chars-per-pixel */
"64 64 199 2 ",
"   c #8B2FBE",
".  c #8B31BD",
"X  c #8B34BC",
"o  c #8B3BB8",
"O  c #8C699F",
"+  c #8C6A9E",
"@  c #8C6A9F",
"#  c #8C6C9D",
"$  c #8C7E93",
"%  c #8C7F93",
"&  c #8C7B95",
"*  c #8C7A96",
"=  c #8C7C95",
"-  c #8C709B",
";  c #8C7598",
":  c #8C7599",
">  c #8B4CAE",
",  c #8C5AA7",
"<  c #8C5DA5",
"1  c #8C5DA6",
"2  c #8B52AB",
"3  c #8C59A8",
"4  c #8C43B4",
"5  c #8C4AB0",
"6  c #8C63A2",
"7  c #8C62A3",
"8  c #8B65A1",
"9  c #8C65A1",
"0  c #8C67A0",
"q  c #8B11CE",
"w  c #8B12CE",
"e  c #8B13CE",
"r  c #8B16CC",
"t  c #8B1BC9",
"y  c #8B19CA",
"u  c #8B18CB",
"i  c #8B02D7",
"p  c #8B06D4",
"a  c #8B07D4",
"s  c #8B06D5",
"d  c #8B04D6",
"f  c #8B08D4",
"g  c #8B00D8",
"h  c #8B01D8",
"j  c #8C01D8",
"k  c #8C02D8",
"l  c #8C03D8",
"z  c #8D04D9",
"x  c #8D05D9",
"c  c #8E06D9",
"v  c #8E07D9",
"b  c #8F08D9",
"n  c #8F09D9",
"m  c #900BDA",
"M  c #910CDA",
"N  c #910DDA",
"B  c #910EDA",
"V  c #920FDA",
"C  c #9210DA",
"Z  c #9210DB",
"A  c #9414DB",
"S  c #9415DB",
"D  c #9516DB",
"F  c #9719DC",
"G  c #981CDC",
"H  c #981DDC",
"J  c #991FDD",
"K  c #8B22C5",
"L  c #8B21C6",
"P  c #8B25C4",
"I  c #9A21DD",
"U  c #9A22DD",
"Y  c #9B22DD",
"T  c #9C25DE",
"R  c #9C26DE",
"E  c #9D28DE",
"W  c #9E29DE",
"Q  c #9E2ADE",
"!  c #9F2DDF",
"~  c #A02DDF",
"^  c #A232E0",
"/  c #A335E0",
"(  c #A436E0",
")  c #A437E0",
"_  c #A63BE1",
"`  c #A73EE1",
"'  c #A83FE2",
"]  c #A840E2",
"[  c #AA45E3",
"{  c #AD4AE3",
"}  c #AD4BE4",
"|  c #AE4CE4",
" . c #AF4EE4",
".. c #B051E4",
"X. c #B154E5",
"o. c #B357E5",
"O. c #B55DE6",
"+. c #B65EE6",
"@. c #B65FE6",
"#. c #B863E7",
"$. c #B965E7",
"%. c #BA66E8",
"&. c #BA67E8",
"*. c #BB69E8",
"=. c #BD6DE9",
"-. c #BD6FE9",
";. c #BF72E9",
":. c #C074EA",
">. c #C278EA",
",. c #C37BEB",
"<. c #C47DEB",
"1. c #C47EEB",
"2. c #C57FEB",
"3. c #8C868F",
"4. c #8B8B8B",
"5. c #8C8B8C",
"6. c #8C8B8D",
"7. c #8C888E",
"8. c gray55",
"9. c #8C8291",
"0. c #8C8292",
"q. c #8C8490",
"w. c #8C8590",
"e. c #C580EC",
"r. c #C683EC",
"t. c #C886ED",
"y. c #C887ED",
"u. c #C987ED",
"i. c #C988ED",
"p. c #C989ED",
"a. c #CA8AED",
"s. c #CB8DEE",
"d. c #CC8EEE",
"f. c #CC90EE",
"g. c #CE93EE",
"h. c #CF96EF",
"j. c #D097EF",
"k. c #D098EF",
"l. c #D19AF0",
"z. c #D4A0F0",
"x. c #D4A1F1",
"c. c #D5A2F1",
"v. c #D7A6F1",
"b. c #D8A9F2",
"n. c #D9ABF2",
"m. c #DAADF2",
"M. c #DBB0F3",
"N. c #DCB1F3",
"B. c #DEB6F4",
"V. c #E0BAF4",
"C. c #E0BBF5",
"Z. c #E1BDF5",
"A. c #E2BFF5",
"S. c #E3C0F5",
"D. c #E4C3F6",
"F. c #E5C6F6",
"G. c #E6C7F6",
"H. c #E7CAF7",
"J. c #E7CBF7",
"K. c #E8CCF7",
"L. c #E9CEF7",
"P. c #EBD3F8",
"I. c #ECD4F8",
"U. c #ECD5F9",
"Y. c #EDD8F9",
"T. c #EED9F9",
"R. c #EFDCFA",
"E. c #F0DDFA",
"W. c #F1DFFA",
"Q. c #F2E2FB",
"!. c #F2E3FB",
"~. c #F4E6FB",
"^. c #F5E9FC",
"/. c #F5EAFC",
"(. c #F6EAFC",
"). c #F6EBFC",
"_. c #F6ECFC",
"`. c #F7EDFC",
"'. c #F7EEFC",
"]. c #F8EFFC",
"[. c #F8F0FD",
"{. c #F8F1FD",
"}. c #F9F1FD",
"|. c #F9F2FD",
" X c #F9F3FD",
".X c #FAF3FD",
"XX c #FAF4FD",
"oX c #FAF5FD",
"OX c #FBF6FE",
"+X c #FBF7FE",
"@X c #FCF8FE",
"#X c #FCF9FE",
"$X c #FDFAFE",
"%X c #FDFBFE",
"&X c #FEFCFF",
"*X c #FEFDFF",
"=X c #FEFEFF",
"-X c #FFFEFF",
";X c white",
/* pixels */
"4.4.4.4.4.4.4.4.4.4.4.4.4.4.4.4.4.4.4.4.4.4.4.4.4.4.4.4.4.4.4.4.4.4.4.4.4.4.4.4.4.4.4.4.4.4.4.4.4.4.4.4.4.4.4.4.4.4.4.4.4.4.4.4.",
"4.8.8.6.= 8 , 3 3 3 3 3 3 3 3 3 3 3 3 3 3 3 3 3 3 3 3 3 3 3 3 3 3 3 3 3 3 3 3 3 3 3 3 3 3 3 3 3 3 3 3 3 3 3 3 3 3 3 1 - w.8.8.8.",
"4.8.0.5 K r w w w w w w w w w w w w w w w w w w w w w w w w w w w w w w w w w w w w w w w w w w w w w w w w w w w w e y . - 6.8.",
"4.5.> e i g g g g g g g g g g g g g g g g g g g g g g g g g g g g g g g g g g g g g g g g g g g g g g g g g g g g g g g s o * 8.",
"4.; P i g g g g g g g g g g g g g g g g g g g g g g g g g g g g g g g g g g g g g g g g g g g g g g g g g g g g g g g g g q @ 8.",
"4.7 u g g g g g g g g g g g g g g g g g g g g g g g g g g g g g g g g g g g g g g g g g g g g g g g g g g g g g g g g g g i 6 8.",
"4.1 r g g g g g g g g g g g g g g g g g g g g g g g g g g g g g g g g g g g g g g g g g g g g g g g g g g g g g g g g g g g 7 8.",
"4.1 r g g g g g g g g g g g g g g g g g g g g g g g g g g g g g g g g g g g g g g g g g g g g g g g g g g g g g g g g g g g 7 8.",
"4.1 r g g g g g g g g g g g g g g g g g g g g g g g g g g g g g g g g g g g g g g g g g g g g g g g g g g g g g g g g g g g 7 8.",
"4.1 r g g g g g g g g g g g g g g g g g g g g g g g g g g g g g g g g g g g g g g g g g g g g g g g g g g g g g g g g g g g 7 8.",
"4.1 r g g g g g g g g g g g g g g g g g g g g g g g g g g g g g g g g g g g g g g g g g g g g g g g g g g g g g g g g g g g 7 8.",
"4.1 r g g g g g g g g g g g g g g g g g g g g g g g g g g g g g g g g g g g g g g g g g g g g g g g g g g g g g g g g g g g 7 8.",
"4.1 r g g g g g g g g g g g g g g g g g g g g g g g g g g g g g g g g g g g g g g g g g g g g g g g g g g g g g g g g g g g 7 8.",
"4.1 r g g g g g g g g g g g g g g g g g g g g g g g g g g g g g g g g g g g g g g g g g g g g g g g g g g g g g g g g g g g 7 8.",
"4.1 r g g g g g g g g g g g g g g g g g g g g g g g g g g g g g g g g g g g g g g g g g g g g g g g g g g g g g g g g g g g 7 8.",
"4.1 r g g g g g g g g g g g g g g g g g g g h v V V V V V V V V C V V V V V V M x g g g g g g g g g g g g g g g g g g g g g 7 8.",
"4.1 r g g g g g g g g g g g g g g g g g g g W h.P.P.P.P.P.P.P.K.G.P.P.P.P.P.P.K.<.g g g g g g g g g g g g g g g g g g g g g 7 8.",
"4.1 r g g g g g g g g g g g g g g g g g g g D ,..X;X;X;X;X;X;X+X{.;X;X;X;X;X;XY.O.g g g g g g g g g g g g g g g g g g g g g 7 8.",
"4.1 r g g g g g g g g g g g g g g g g g g g l I t.XX;X;X;X;X;X+X{.;X;X;X;X;XT.&.V g g g g g g g g g g g g g g g g g g g g g 7 8.",
"4.1 r g g g g g g g g g g g g g g g g g g g g l I u.XX;X;X;X;X+X{.;X;X;X;XT.&.V g g g g g g g g g g g g g g g g g g g g g g 7 8.",
"4.1 r g g g g g g g g g g g g g g g g g g g g g l U i.XX;X;X;X+X{.;X;X;XT.&.V g g g g g g g g g g g g g g g g g g g g g g g 7 8.",
"4.1 r g g g g g g g g g g g g g g g g g g g g g g l Y p.oX;X;X+X{.;X;XT.&.V g g g g g g g g g g g g g g g g g g g g g g g g 7 8.",
"4.1 r g g g g g g g g g g g g g g g c ) ,.,.,.,.,.,.2.h.L.%X;X%X@X;X[.Z.a.,.,.,.,.,.,.,...g g g g g g g g g g g g g g g g g 7 8.",
"4.1 r g g g g g g g g g g g g g g g N *._._._._._._._.`.XX-X;X-X=X;X%X|._._._._._._._._.l.g g g g g g g g g g g g g g g g g 7 8.",
"4.1 r g g g g g g g g g g g g g g g B ;.;X;X;X;X;X;X;X;X;X;X;X;X;X;X;X;X;X;X;X;X;X;X;X;Xv.g g g g g g g g g g g g g g g g g 7 8.",
"4.1 r g g g g g g g g g g g g g g g B ;.;X;X;X;X;X;X;X;X;X;X;X;X;X;X;X;X;X;X;X;X;X;X;X;Xv.g g g g g g g g g g g g g g g g g 7 8.",
"4.1 r g g g g g g g g g g g g g g g B ;.;X;X;X;X;X;X;X;X;X;X;X;X;X;X;X;X;X;X;X;X;X;X;X;Xv.g g g g g g g g g g g g g g g g g 7 8.",
"4.1 r g g g g g g g g g g g g g g g n ..A.U.!.~.~.~.).OX@X%X;X;X;X;X*X#X.X^.~.~.~.!.U.S.:.g g g g g g g g g g g g g g g g g 7 8.",
"4.1 r g g g g g g g g g g g g g g g k B I E ` =.c.U.OX*X#X+X;X;X;X;X=X&X&X[.H.k.%._ R I A g g g g g g g g g g g g g g g g g 7 8.",
"4.1 r g g g g g g g g g g g g g g g g g g g x V G Q $.U.$XoX;X;X;X;X#X.XG.| T F B z g g g g g g g g g g g g g g g g g g g g 7 8.",
"4.1 r g g g g g g g g g g g g g g g g g g g g g g h ! n.#X.X;X;X;X;X[.!.m.N g g g g g g g g g g g g g g g g g g g g g g g g 7 8.",
"4.1 r g g g g g g g g g g g g g g g g g g g g g g g J g.@X X;X;X;X;X].R.z.j g g g g g g g g g g g g g g g g g g g g g g g g 7 8.",
"4.1 r g g g g g g g g g g g g g g g g g g g g g g g A 1.@X X;X;X;X;X].I.f.g g g g g g g g g g g g g g g g g g g g g g g g g 7 8.",
"4.1 r g g g g g g g g g g g g g g g g g g g g g g g n *.@X X;X;X;X;X].K.e.g g g g g g g g g g g g g g g g g g g g g g g g g 7 8.",
"4.1 r g g g g g g g g g g g g g g g g g g g g g g g j o.}. X;X;X;X;X].D.-.g g g g g g g g g g g g g g g g g g g g g g g g g 7 8.",
"4.1 r g g g g g g g g g g g g g g g g g g g g g g g g } W. X;X;X;X;X].V.+.g g g g g g g g g g g g g g g g g g g g g g g g g 7 8.",
"4.1 r g g g g g g g g g g g g g g g g g g g g g g g g ] J. X;X;X;X;X].N. .g g g g g g g g g g g g g g g g g g g g g g g g g 7 8.",
"4.1 r g g g g g g g g g g g g g g g g g g g g g g g g / B. X;X;X;X;X].b.` g g g g g g g g g g g g g g g g g g g g g g g g g 7 8.",
"4.1 r g g g g g g g g g g g g g g g g g g g g g g g g Q x. X;X;X;X;X].z.~ g g g g g g g g g g g g g g g g g g g g g g g g g 7 8.",
"4.1 r g g g g g g g g g g g g g g g g g g g g g g g g J s. X;X;X;X;X].j.H g g g g g g g g g g g g g g g g g g g g g g g g g 7 8.",
"4.1 r g g g g g g g g g g g g g g g g g g g g g g g g A >. X;X;X;X;X].d.M g g g g g g g g g g g g g g g g g g g g g g g g g 7 8.",
"4.1 r g g g g g g g g g g g g g g g g g g g g g g g g n #. X;X;X;X;X'.u.k g g g g g g g g g g g g g g g g g g g g g g g g g 7 8.",
"4.1 r g g g g g g g g g g g g g g g g g g g g g g g g j X.|.;X;X;X;X_.r.g g g g g g g g g g g g g g g g g g g g g g g g g g 7 8.",
"4.1 r g g g g g g g g g g g g g g g g g g g g g g g g g ..[.;X;X;X;X/.2.g g g g g g g g g g g g g g g g g g g g g g g g g g 7 8.",
"4.1 r g g g g g g g g g g g g g g g g g g g g g g g g g ' F.~.Q.E.Q.F.@.g g g g g g g g g g g g g g g g g g g g g g g g g g 7 8.",
"4.1 r g g g g g g g g g g g g g g g g g g g g g g g g g m [ M.(.T.C.{ Z g g g g g g g g g g g g g g g g g g g g g g g g g g 7 8.",
"4.1 r g g g g g g g g g g g g g g g g g g g g g g g g g g b ( y.a.^ n g g g g g g g g g g g g g g g g g g g g g g g g g g g 7 8.",
"4.1 r g g g g g g g g g g g g g g g g g g g g g g g g g g g x S D z g g g g g g g g g g g g g g g g g g g g g g g g g g g g 7 8.",
"4.1 r g g g g g g g g g g g g g g g g g g g g g g g g g g g g g g g g g g g g g g g g g g g g g g g g g g g g g g g g g g g 7 8.",
"4.1 r g g g g g g g g g g g g g g g g g g g g g g g g g g g g g g g g g g g g g g g g g g g g g g g g g g g g g g g g g g g 7 8.",
"4.1 r g g g g g g g g g g g g g g g g g g g g g g g g g g g g g g g g g g g g g g g g g g g g g g g g g g g g g g g g g g g 7 8.",
"4.1 r g g g g g g g g g g g g g g g g g g g g g g g g g g g g g g g g g g g g g g g g g g g g g g g g g g g g g g g g g g g 7 8.",
"4.1 r g g g g g g g g g g g g g g g g g g g g g g g g g g g g g g g g g g g g g g g g g g g g g g g g g g g g g g g g g g g 7 8.",
"4.1 r g g g g g g g g g g g g g g g g g g g g g g g g g g g g g g g g g g g g g g g g g g g g g g g g g g g g g g g g g g g 7 8.",
"4.1 r g g g g g g g g g g g g g g g g g g g g g g g g g g g g g g g g g g g g g g g g g g g g g g g g g g g g g g g g g g g 7 8.",
"4.1 r g g g g g g g g g g g g g g g g g g g g g g g g g g g g g g g g g g g g g g g g g g g g g g g g g g g g g g g g g g g 7 8.",
"4.1 r g g g g g g g g g g g g g g g g g g g g g g g g g g g g g g g g g g g g g g g g g g g g g g g g g g g g g g g g g g g 7 8.",
"4.< r g g g g g g g g g g g g g g g g g g g g g g g g g g g g g g g g g g g g g g g g g g g g g g g g g g g g g g g g g g g 7 8.",
"4.O t g g g g g g g g g g g g g g g g g g g g g g g g g g g g g g g g g g g g g g g g g g g g g g g g g g g g g g g g g g p 9 8.",
"4.9.  d g g g g g g g g g g g g g g g g g g g g g g g g g g g g g g g g g g g g g g g g g g g g g g g g g g g g g g g g g L - 8.",
"4.5.9 y g g g g g g g g g g g g g g g g g g g g g g g g g g g g g g g g g g g g g g g g g g g g g g g g g g g g g g g g f 2 q.8.",
"4.8.3.0 4 L a g g g g g g g g g g g g g g g g g g g g g g g g g g g g g g g g g g g g g g g g g g g g g g g g g g h e X 3 $ 5.8.",
"4.8.8.7.% : # + + + + + + + + + + + + + + + + + + + + + + + + + + + + + + + + + + + + + + + + + + + + + + + + + + + - & 3.6.8.8.",
"4.8.8.8.8.8.8.8.8.8.8.8.8.8.8.8.8.8.8.8.8.8.8.8.8.8.8.8.8.8.8.8.8.8.8.8.8.8.8.8.8.8.8.8.8.8.8.8.8.8.8.8.8.8.8.8.8.8.8.8.8.8.8.8."
};
