/* XPM */
static char *result[] = {
/* columns rows colors chars-per-pixel */
"64 64 57 1 ",
"  c #265ED7",
". c #275ED7",
"X c #275FD7",
"o c #285FD7",
"O c #295FD7",
"+ c #215BD9",
"@ c #225BD9",
"# c #235CD9",
"$ c #235DD9",
"% c #245EDA",
"& c #265FDA",
"* c #2960D6",
"= c #2960D7",
"- c #2C61D5",
"; c #2C62D5",
": c #2E63D5",
"> c #2F63D5",
", c #2B63DB",
"< c #3365D3",
"1 c #3064D4",
"2 c #3164D4",
"3 c #4A73CB",
"4 c #5E7EC5",
"5 c #6583C2",
"6 c #6582C3",
"7 c #6784C1",
"8 c #6784C2",
"9 c #949DB2",
"0 c #9EA4AF",
"q c #9FA5AF",
"w c #A0A5AE",
"e c #A0A4AF",
"r c #A0A5AF",
"t c #A2A6AE",
"y c #A3A6AE",
"u c #A5A7AC",
"i c #A5A7AD",
"p c #A5A8AD",
"a c #A5A9AD",
"s c #A6A8AD",
"d c #AAAAAA",
"f c #AAAAAB",
"g c gray67",
"h c #AAAAAC",
"j c #AAAAAD",
"k c #ACACAC",
"l c #89A8EB",
"z c #94B0ED",
"x c #97B2ED",
"c c #C0D0F4",
"v c #F2F5FD",
"b c #F4F7FD",
"n c #F6F8FD",
"m c #FCFCFE",
"M c #FCFDFF",
"N c #FDFEFF",
"B c white",
/* pixels */
"kggggggggggggggggggggggggggggggggggggggggggggggggggggggggggggggk",
"gi42::::::::::::::::::::::::::::::::::::::::::::::::::::::::<8sg",
"g4*+++++++++++++++++++++++++++++++++++++++++++++++++++++++++@.7a",
"g1++++++++++++++++++++++++++++++++++++++++++++++++++++++++++++1w",
"f;++++++++++++++++++++++++++++++++++++++++++++++++++++++++++++oq",
"f;++++++++++++++++++++++++++++++++++++++++++++++++++++++++++++.q",
"f;++++++++++++++++++++++++++++++++++++++++++++++++++++++++++++.q",
"f;++++++++++++++++++++++++++++++++++++++++++++++++++++++++++++.q",
"f;++++++++++++++++++++++++++++++++++++++++++++++++++++++++++++.q",
"f;++++++++++++++++++++++++++++++++++++++++++++++++++++++++++++.q",
"f;++++++++++++++++++++++++++++++++++++++++++++++++++++++++++++.q",
"f;++++++++++++++++++++++++++++++++++++++++++++++++++++++++++++.q",
"f-++++++++++++++++++++++++++++++++++++++++++++++++++++++++++++.q",
"f-++++++++++++++++++++++++++++++++++++++++++++++++++++++++++++.q",
"f-++++++++++++++++++++++++++++++++++++++++++++++++++++++++++++.q",
"f-++++++++++++$cbbbbbbbbbbbbbbbbbbbbbbbbbbbbbbbvl+++++++++++++.q",
"f-++++++++++++%MBBBBBBBBBBBBBBBBBBBBBBBBBBBBBBBBn+++++++++++++.q",
"f-++++++++++++%BBBBBBBBBBBBBBBBBBBBBBBBBBBBBBBBBm+++++++++++++.q",
"f-++++++++++++%BBBBBBBBBBBBBBBBBBBBBBBBBBBBBBBBBm+++++++++++++.q",
"f-++++++++++++%BBBBBBBBBBBBBBBBBBBBBBBBBBBBBBBBBm+++++++++++++.q",
"f-++++++++++++%BBBBBBBBBBBBBBBBBBBBBBBBBBBBBBBBBm+++++++++++++.q",
"f-++++++++++++%BBBBBBBBBBBBBBBBBBBBBBBBBBBBBBBBBm+++++++++++++.q",
"f-++++++++++++%BBBBBBBBBBBBBBBBBBBBBBBBBBBBBBBBBm+++++++++++++.q",
"f-++++++++++++%BBBBBBBBBBBBBBBBBBBBBBBBBBBBBBBBBm+++++++++++++.q",
"f-++++++++++++%BBBBBBBBBBBBBBBBBBBBBBBBBBBBBBBBBm+++++++++++++.q",
"f-++++++++++++%BBBBBBBBBBBBBBBBBBBBBBBBBBBBBBBBBm+++++++++++++.q",
"f-++++++++++++%BBBBBBBBBBBBBBBBBBBBBBBBBBBBBBBBBm+++++++++++++.q",
"f-++++++++++++%BBBBBBBBBBBBBBBBBBBBBBBBBBBBBBBBBm+++++++++++++.q",
"f-++++++++++++%BBBBBBBBBBBBBBBBBBBBBBBBBBBBBBBBBm+++++++++++++.q",
"f-++++++++++++%BBBBBBBBBBBBBBBBBBBBBBBBBBBBBBBBBm+++++++++++++.q",
"f-++++++++++++%BBBBBBBBBBBBBBBBBBBBBBBBBBBBBBBBBm+++++++++++++.q",
"f-++++++++++++%BBBBBBBBBBBBBBBBBBBBBBBBBBBBBBBBBm+++++++++++++.q",
"f-++++++++++++%BBBBBBBBBBBBBBBBBBBBBBBBBBBBBBBBBm+++++++++++++.q",
"f-++++++++++++%BBBBBBBBBBBBBBBBBBBBBBBBBBBBBBBBBm+++++++++++++.q",
"f-++++++++++++%BBBBBBBBBBBBBBBBBBBBBBBBBBBBBBBBBm+++++++++++++.q",
"f-++++++++++++%BBBBBBBBBBBBBBBBBBBBBBBBBBBBBBBBBm+++++++++++++.q",
"f-++++++++++++%BBBBBBBBBBBBBBBBBBBBBBBBBBBBBBBBBm+++++++++++++.q",
"f-++++++++++++%BBBBBBBBBBBBBBBBBBBBBBBBBBBBBBBBBm+++++++++++++.q",
"f-++++++++++++%BBBBBBBBBBBBBBBBBBBBBBBBBBBBBBBBBm+++++++++++++.q",
"f-++++++++++++%BBBBBBBBBBBBBBBBBBBBBBBBBBBBBBBBBm+++++++++++++.q",
"f-++++++++++++%BBBBBBBBBBBBBBBBBBBBBBBBBBBBBBBBBm+++++++++++++.q",
"f-++++++++++++%BBBBBBBBBBBBBBBBBBBBBBBBBBBBBBBBBm+++++++++++++.q",
"f-++++++++++++%BBBBBBBBBBBBBBBBBBBBBBBBBBBBBBBBBm+++++++++++++.q",
"f-++++++++++++%BBBBBBBBBBBBBBBBBBBBBBBBBBBBBBBBBm+++++++++++++.q",
"f-++++++++++++%BBBBBBBBBBBBBBBBBBBBBBBBBBBBBBBBBm+++++++++++++.q",
"f-++++++++++++%BBBBBBBBBBBBBBBBBBBBBBBBBBBBBBBBBm+++++++++++++.q",
"f-++++++++++++%BBBBBBBBBBBBBBBBBBBBBBBBBBBBBBBBBm+++++++++++++.q",
"f-++++++++++++%BBBBBBBBBBBBBBBBBBBBBBBBBBBBBBBBBm+++++++++++++.q",
"f-++++++++++++#xBBBBBBBBBBBBBBBBBBBBBBBBBBBBBBBNz+++++++++++++.q",
"f-+++++++++++++&,,,,,,,,,,,,,,,,,,,,,,,,,,,,,,,,&+++++++++++++.q",
"f-++++++++++++++++++++++++++++++++++++++++++++++++++++++++++++.q",
"f-++++++++++++++++++++++++++++++++++++++++++++++++++++++++++++.q",
"f-++++++++++++++++++++++++++++++++++++++++++++++++++++++++++++.q",
"f-++++++++++++++++++++++++++++++++++++++++++++++++++++++++++++.q",
"f-++++++++++++++++++++++++++++++++++++++++++++++++++++++++++++.q",
"f-++++++++++++++++++++++++++++++++++++++++++++++++++++++++++++.q",
"f-++++++++++++++++++++++++++++++++++++++++++++++++++++++++++++.q",
"f-++++++++++++++++++++++++++++++++++++++++++++++++++++++++++++.q",
"f-++++++++++++++++++++++++++++++++++++++++++++++++++++++++++++.q",
"f-++++++++++++++++++++++++++++++++++++++++++++++++++++++++++++.q",
"g2++++++++++++++++++++++++++++++++++++++++++++++++++++++++++++=r",
"g6 +++++++++++++++++++++++++++++++++++++++++++++++++++++++++++3y",
"gp5>XXXXXXXXXXXXXXXXXXXXXXXXXXXXXXXXXXXXXXXXXXXXXXXXXXXXXXXXO39j",
"dgue000000000000000000000000000000000000000000000000000000000thg"
};
