/* XPM */
static char *result[] = {
/* columns rows colors chars-per-pixel */
"64 64 39 1 ",
"  c #ACACAC",
". c gray67",
"X c #A3A9A6",
"o c #439D68",
"O c #0A9544",
"+ c #099543",
"@ c #119748",
"# c #57A075",
"$ c #A8ABA9",
"% c #429D68",
"& c #059540",
"* c #00943D",
"= c #01943D",
"- c #049540",
"; c #589F76",
": c #AAABAA",
"> c #119648",
", c #A5AAA7",
"< c #079541",
"1 c #089543",
"2 c #0D9646",
"3 c #0B9544",
"4 c #539F72",
"5 c #03943F",
"6 c #379B60",
"7 c #A6AAA8",
"8 c #A7AAA8",
"9 c #559F74",
"0 c #0F9647",
"q c #089542",
"w c #0A9643",
"e c #97A89E",
"r c #AAABAB",
"t c #AAAAAA",
"y c #A6AAA7",
"u c #A2AAA5",
"i c #A4AAA6",
"p c #A9AAAA",
"a c white",
/* pixels */
" ...............................................................",
".XoO++++++++++++++++++++++++++++++++++++++++++++++++++++++++@#$.",
".%&*********************************************************=-;$",
":+************************************************************>,",
":<************************************************************+,",
":<************************************************************1,",
":<************************************************************1,",
":<************************************************************1,",
":<************************************************************1,",
":<************************************************************1,",
":<************************************************************1,",
":<************************************************************1,",
":<************************************************************1,",
":<************************************************************1,",
":<************************************************************1,",
":<************************************************************1,",
":<************************************************************1,",
":<************************************************************1,",
":<************************************************************1,",
":<************************************************************1,",
":<************************************************************1,",
":<************************************************************1,",
":<************************************************************1,",
":<************************************************************1,",
":<************************************************************1,",
":<************************************************************1,",
":<************************************************************1,",
":<************************************************************1,",
":<************************************************************1,",
":<************************************************************1,",
":<************************************************************1,",
":<************************************************************1,",
":<************************************************************1,",
":<************************************************************1,",
":<************************************************************1,",
":<************************************************************1,",
":<************************************************************1,",
":<************************************************************1,",
":<************************************************************1,",
":<************************************************************1,",
":<************************************************************1,",
":<************************************************************1,",
":<************************************************************1,",
":<************************************************************1,",
":<************************************************************1,",
":<************************************************************1,",
":<************************************************************1,",
":<************************************************************1,",
":<************************************************************1,",
":<************************************************************1,",
":<************************************************************1,",
":<************************************************************1,",
":<************************************************************1,",
":<************************************************************1,",
":<************************************************************1,",
":<************************************************************1,",
":<************************************************************1,",
":<************************************************************1,",
":<************************************************************1,",
":<************************************************************1,",
".2************************************************************3,",
".45***********************************************************67",
".890qqqqqqqqqqqqqqqqqqqqqqqqqqqqqqqqqqqqqqqqqqqqqqqqqqqqqqqqw6er",
".tyuuuuuuuuuuuuuuuuuuuuuuuuuuuuuuuuuuuuuuuuuuuuuuuuuuuuuuuuuuip."
};
