/* XPM */
static char *result[] = {
/* columns rows colors chars-per-pixel */
"64 64 207 2 ",
"   c #8B3FB6",
".  c #8B36BB",
"X  c #8B33BC",
"o  c #8C6A9E",
"O  c #8C6B9E",
"+  c #8C6C9D",
"@  c #8C7F93",
"#  c #8C7B95",
"$  c #8C7E94",
"%  c #8C719A",
"&  c #8C709B",
"*  c #8C719B",
"=  c #8C7598",
"-  c #8C7499",
";  c #8C7599",
":  c #8C59A7",
">  c #8C5AA7",
",  c #8C5BA7",
"<  c #8C5DA5",
"1  c #8C5EA4",
"2  c #8B58A8",
"3  c #8C59A8",
"4  c #8B47B1",
"5  c #8C46B2",
"6  c #8C41B5",
"7  c #8C62A3",
"8  c #8B64A2",
"9  c #8C64A1",
"0  c #8C66A1",
"q  c #8B1FC7",
"w  c #8B13CD",
"e  c #8B10CF",
"r  c #8B12CE",
"t  c #8B13CE",
"y  c #8B15CC",
"u  c #8B14CD",
"i  c #8B16CC",
"p  c #8B19CA",
"a  c #8B01D7",
"s  c #8B03D6",
"d  c #8B02D7",
"f  c #8B07D4",
"g  c #8B06D5",
"h  c #8B08D4",
"j  c #8B00D8",
"k  c #8B01D8",
"l  c #8C01D8",
"z  c #8C02D8",
"x  c #8C03D9",
"c  c #8D03D9",
"v  c #8D04D9",
"b  c #8D05D9",
"n  c #8E06D9",
"m  c #8E07D9",
"M  c #8E08D9",
"N  c #8F08D9",
"B  c #8F09D9",
"V  c #900ADA",
"C  c #900BDA",
"Z  c #900CDA",
"A  c #910DDA",
"S  c #910EDA",
"D  c #920EDA",
"F  c #920FDA",
"G  c #9210DA",
"H  c #9312DB",
"J  c #9515DB",
"K  c #9516DB",
"L  c #9517DC",
"P  c #9617DC",
"I  c #9619DC",
"U  c #971BDC",
"Y  c #981CDC",
"T  c #8B21C6",
"R  c #8B24C5",
"E  c #8B29C2",
"W  c #9A21DD",
"Q  c #9B24DD",
"!  c #9B24DE",
"~  c #9C24DE",
"^  c #9C25DE",
"/  c #9C26DE",
"(  c #9D28DE",
")  c #9E2ADE",
"_  c #9F2BDF",
"`  c #A02FDF",
"'  c #A12FDF",
"]  c #A131E0",
"[  c #A334E0",
"{  c #A539E1",
"}  c #A53AE1",
"|  c #A63BE1",
" . c #A73DE1",
".. c #A73EE1",
"X. c #A840E2",
"o. c #AB46E3",
"O. c #AC47E3",
"+. c #AC49E3",
"@. c #AD4AE3",
"#. c #AD4BE3",
"$. c #B255E5",
"%. c #B256E5",
"&. c #B257E5",
"*. c #B357E5",
"=. c #B45AE6",
"-. c #B65EE6",
";. c #B760E7",
":. c #B761E7",
">. c #B864E7",
",. c #B964E7",
"<. c #B965E8",
"1. c #BC6BE8",
"2. c #BC6CE9",
"3. c #BD6EE9",
"4. c #BE70E9",
"5. c #BF72E9",
"6. c #C074EA",
"7. c #C075EA",
"8. c #C076EA",
"9. c #C178EA",
"0. c #C37BEB",
"q. c #C47CEB",
"w. c #C47EEB",
"e. c #C57FEB",
"r. c #8C868F",
"t. c #8B8B8B",
"y. c #8C8B8C",
"u. c #8C8B8D",
"i. c #8C888E",
"p. c gray55",
"a. c #8C8192",
"s. c #8C8292",
"d. c #8C8590",
"f. c #C682EC",
"g. c #C784EC",
"h. c #C989ED",
"j. c #CA8AED",
"k. c #CB8DEE",
"l. c #CC8EEE",
"z. c #CC8FEE",
"x. c #CD90EE",
"c. c #CD91EE",
"v. c #CE92EE",
"b. c #CF95EF",
"n. c #CF96EF",
"m. c #D098EF",
"M. c #D199EF",
"N. c #D19BF0",
"B. c #D29CF0",
"V. c #D4A0F1",
"C. c #D5A2F1",
"Z. c #D6A5F1",
"A. c #D7A8F2",
"S. c #D9ACF2",
"D. c #DCB2F3",
"F. c #DDB3F3",
"G. c #DEB6F4",
"H. c #DFB9F4",
"J. c #E0BAF5",
"K. c #E2BFF5",
"L. c #E3C1F5",
"P. c #E3C1F6",
"I. c #E6C8F7",
"U. c #E6C9F7",
"Y. c #E7CBF7",
"T. c #E8CBF7",
"R. c #E8CDF7",
"E. c #EAD1F8",
"W. c #EBD3F8",
"Q. c #ECD4F8",
"!. c #ECD5F9",
"~. c #ECD6F9",
"^. c #EDD7F9",
"/. c #EDD8F9",
"(. c #EFDBF9",
"). c #F0DEFA",
"_. c #F1E0FA",
"`. c #F1E1FA",
"'. c #F2E2FB",
"]. c #F2E3FB",
"[. c #F4E6FB",
"{. c #F5E8FB",
"}. c #F5E9FC",
"|. c #F6EBFC",
" X c #F6ECFC",
".X c #F7EDFC",
"XX c #F7EEFC",
"oX c #F9F1FD",
"OX c #F9F2FD",
"+X c #F9F3FD",
"@X c #FAF3FD",
"#X c #FAF4FD",
"$X c #FAF5FD",
"%X c #FBF5FE",
"&X c #FBF6FE",
"*X c #FBF7FE",
"=X c #FCF7FE",
"-X c #FCF8FE",
";X c #FCF9FE",
":X c #FDFAFE",
">X c #FDFBFE",
",X c #FDFCFE",
"<X c #FEFCFF",
"1X c #FEFDFF",
"2X c #FEFEFF",
"3X c #FFFEFF",
"4X c white",
/* pixels */
"t.t.t.t.t.t.t.t.t.t.t.t.t.t.t.t.t.t.t.t.t.t.t.t.t.t.t.t.t.t.t.t.t.t.t.t.t.t.t.t.t.t.t.t.t.t.t.t.t.t.t.t.t.t.t.t.t.t.t.t.t.t.t.t.",
"p.p.p.y.s.0 : 3 3 3 3 3 3 3 3 3 3 3 3 3 3 3 3 3 3 3 3 3 3 3 3 3 3 3 3 3 3 3 3 3 3 3 3 3 3 3 3 3 3 3 3 3 3 3 3 3 3 : 1 - y.p.p.t.",
"p.p.r.7 E i r r r r r r r r r r r r r r r r r r r r r r r r r r r r r r r r r r r r r r r r r r r r r r r r r r r r w q 4 a.p.t.",
"p.i.9 u s j j j j j j j j j j j j j j j j j j j j j j j j j j j j j j j j j j j j j j j j j j j j j j j j j j j j j j d e 5 u.t.",
"p.@ 6 j j j j j j j j j j j j j j j j j j j j j j j j j j j j j j j j j j j j j j j j j j j j j j j j j j j j j j j j j a T # t.",
"p.- q j j j j j j j j j j j j j j j j j j j j j j j j j j j j j j j j j j j j j j j j j j j j j j j j j j j j j j j j j j y 8 t.",
"p.+ g j j j j j j j j j j j j j j j j j j j j j j j j j j j j j j j j j j j j j j j j j j j j j j j j j j j j j j j j j j r > t.",
"p.o j j j j j j j j j j j j j j j j j j j j j j j j j j j j j j j j j j j j j j j j j j j j j j j j j j j j j j j j j j j r 3 t.",
"p.o j j j j j j j j j j j j j j j j j j j j j j j j j j j j j j j j j j j j j j j j j j j j j j j j j j j j j j j j j j j r 3 t.",
"p.o j j j j j j j j j j j j j j j j j j j j j j j j j j j j j j j j j j j j j j j j j j j j j j j j j j j j j j j j j j j r 3 t.",
"p.o j j j j j j j j j j j j j j j j j j j j j j j j j j j j j j j j j j j j j j j j j j j j j j j j j j j j j j j j j j j r 3 t.",
"p.o j j j j j j j j j j j j j j j j j j j j j j j j j j j j j j j j j j j j j j j j j j j j j j j j j j j j j j j j j j j r 3 t.",
"p.o j j j j j j j j j j j j j j j j j j j j j j j j j j j j j j j j j j j j j j j j j j j j j j j j j j j j j j j j j j j r 3 t.",
"p.o j j j j j j j j j j j j j j j j j j j j j j j j j j j j j j j j j j j j j j j j j j j j j j j j j j j j j j j j j j j r 3 t.",
"p.o j j j j j j j j j j j j j j j j j j j j j j j j j j j j j j j j j j j j j j j j j j j j j j j j j j j j j j j j j j j r 3 t.",
"p.o j j j j j j j j j j j j j j j j j j j j j j j j j j j j j j j j j j j j j j j j j j j j j j j j j j j j j j j j j j j r 3 t.",
"p.o j j j j j j j j j j j j j j j j j j j j j j j j j j j j j j j j j j j j j j j j j j j j j j j j j j j j j j j j j j j r 3 t.",
"p.o j j j j j j j j j j j j j j j j j j j j j j j j j j j j j j j j j j j j j j j j j j j j j j j j j j j j j j j j j j j r 3 t.",
"p.o j j j j j j j j j j j j j j j j j j j j j j j j j j j j j j j j j z C G G G D M j j j j j j j j j j j j j j j j j j j r 3 t.",
"p.o j j j j j j j j j j j j j j j j j j j j j j j j j j j j j j j j j F =.w.w.w.6. .j j j j j j j j j j j j j j j j j j j r 3 t.",
"p.o j j j j j j j j j j j j j j j j j j j j j j j j j j j j j j j j j W L.4X4X4X X0.j j j j j j j j j j j j j j j j j j j r 3 t.",
"p.o j j j j j j j j j j j j j j j j j j j j j j j j j j j j j j j j j ( ~.4X4X4X X0.j j j j j j j j j j j j j j j j j j j r 3 t.",
"p.o j j j j j j j j j j j j j j j j j j j j j j j j j j j j j j j j b X.].4X4X4X X0.j j j x I ' k j j j j j j j j j j j j r 3 t.",
"p.o j j j j j j j j j j j j j j j j j j j j j j j j j j j j j j j j G 4.[.4X4X4X X0.j j c ^ g.N.m j j j j j j j j j j j j r 3 t.",
"p.o j j j j j j j j j j j j j j j j j j j j j j j j j j j j j j j j Y Z.[.4X4X4X X0.j c ^ z.#XW.F j j j j j j j j j j j j r 3 t.",
"p.o j j j j j j j j j j j j j j j j j j j j j j j j j j j j j j j k _ ^.[.4X4X4X X0.c / x.$X4XW.F j j j j j j j j j j j j r 3 t.",
"p.o j j j j j j j j j j j j j j j j j j j j j j j j j j j l V L Q [ 2.*X X4X4X4X Xe./ c.%X4X4XW.F j j j j j j j j j j j j r 3 t.",
"p.o j j j j j j j j j j j j j j j j j j j z V P ! ] ..@.*.,.8.h.B.D./.1X&X4X4X4X.XM.c.%X4X4X4XW.F j j j j j j j j j j j j r 3 t.",
"p.o j j j j j j j j j j j j j j j j A +.-.:.3.f.b.A.J.R._.oX*X*X*X-X;X;X-X4X4X4X$XE.&X4X4X4X4XW.F j j j j j j j j j j j j r 3 t.",
"p.o j j j j j j j j j j j j j j j B #.U.OX@X#X#X#X#X#X#X#X#X#X#X#X#X&X=X,X4X4X4X3X>X4X4X4X4X4XW.F j j j j j j j j j j j j r 3 t.",
"p.o j j j j j j j j j j j j j j n | G.[.4X4X4X4X4X4X4X4X4X4X4X4X4X4X4X4X4X4X4X4X4X4X4X4X4X4X4XW.F j j j j j j j j j j j j r 3 t.",
"p.o j j j j j j j j j j j j j j K j.{.`.4X4X4X4X4X4X4X4X4X4X4X4X4X4X4X4X4X4X4X4X3X:X&X&X&X&X&XT.F j j j j j j j j j j j j r 3 t.",
"p.o j j j j j j j j j j j j j j J g.(.).4X4X4X4X4X4X4X4X4X4X4X4X4X4X4X4X4X4X4X4X2X-XOXOXOXOXOXI.G j j j j j j j j j j j j r 3 t.",
"p.o j j j j j j j j j j j j j j c ` F.'.4X4X4X4X4X4X4X4X4X4X4X4X4X4X4X4X4X4X4X4X4X4X4X4X4X4X4XW.F j j j j j j j j j j j j r 3 t.",
"p.o j j j j j j j j j j j j j j j N o.P.[.}.|. X X X X X X X X X XXX-X1X1X4X4X4X>X.X4X4X4X4X4XW.F j j j j j j j j j j j j r 3 t.",
"p.o j j j j j j j j j j j j j j j j F &.6.9.q.g.l.m.C.S.G.L.Y.!.).[.#X<X;X4X4X4XoXH.W.4X4X4X4XW.F j j j j j j j j j j j j r 3 t.",
"p.o j j j j j j j j j j j j j j j j j j j j z C U ) { O.%.<.7.g.v.V.K.<X+X4X4X4X Xh.;.W.4X4X4XW.F j j j j j j j j j j j j r 3 t.",
"p.o j j j j j j j j j j j j j j j j j j j j j j j j j j j j j j l Z +.XX}.4X4X4X X0.S ;.W.4X4XW.F j j j j j j j j j j j j r 3 t.",
"p.o j j j j j j j j j j j j j j j j j j j j j j j j j j j j j j j j ~ I.[.4X4X4X X0.j S ;.W.4XW.F j j j j j j j j j j j j r 3 t.",
"p.o j j j j j j j j j j j j j j j j j j j j j j j j j j j j j j j j I n.[.4X4X4X X0.j j S ;.E.Y.Z j j j j j j j j j j j j r 3 t.",
"p.o j j j j j j j j j j j j j j j j j j j j j j j j j j j j j j j j A >.[.4X4X4X X0.j j j S $.5.v j j j j j j j j j j j j r 3 t.",
"p.o j j j j j j j j j j j j j j j j j j j j j j j j j j j j j j j j v } '.4X4X4X X0.j j j j j j j j j j j j j j j j j j j r 3 t.",
"p.o j j j j j j j j j j j j j j j j j j j j j j j j j j j j j j j j j / Q.4X4X4X X0.j j j j j j j j j j j j j j j j j j j r 3 t.",
"p.o j j j j j j j j j j j j j j j j j j j j j j j j j j j j j j j j j W K.4X4X4X X0.j j j j j j j j j j j j j j j j j j j r 3 t.",
"p.o j j j j j j j j j j j j j j j j j j j j j j j j j j j j j j j j j H 1.m.m.m.k.@.j j j j j j j j j j j j j j j j j j j r 3 t.",
"p.o j j j j j j j j j j j j j j j j j j j j j j j j j j j j j j j j j j j j j j j j j j j j j j j j j j j j j j j j j j j r 3 t.",
"p.o j j j j j j j j j j j j j j j j j j j j j j j j j j j j j j j j j j j j j j j j j j j j j j j j j j j j j j j j j j j r 3 t.",
"p.o j j j j j j j j j j j j j j j j j j j j j j j j j j j j j j j j j j j j j j j j j j j j j j j j j j j j j j j j j j j r 3 t.",
"p.o j j j j j j j j j j j j j j j j j j j j j j j j j j j j j j j j j j j j j j j j j j j j j j j j j j j j j j j j j j j r 3 t.",
"p.o j j j j j j j j j j j j j j j j j j j j j j j j j j j j j j j j j j j j j j j j j j j j j j j j j j j j j j j j j j j r 3 t.",
"p.o j j j j j j j j j j j j j j j j j j j j j j j j j j j j j j j j j j j j j j j j j j j j j j j j j j j j j j j j j j j r 3 t.",
"p.o j j j j j j j j j j j j j j j j j j j j j j j j j j j j j j j j j j j j j j j j j j j j j j j j j j j j j j j j j j j r 3 t.",
"p.o j j j j j j j j j j j j j j j j j j j j j j j j j j j j j j j j j j j j j j j j j j j j j j j j j j j j j j j j j j j r 3 t.",
"p.o j j j j j j j j j j j j j j j j j j j j j j j j j j j j j j j j j j j j j j j j j j j j j j j j j j j j j j j j j j j r 3 t.",
"p.o j j j j j j j j j j j j j j j j j j j j j j j j j j j j j j j j j j j j j j j j j j j j j j j j j j j j j j j j j j j r 3 t.",
"p.o j j j j j j j j j j j j j j j j j j j j j j j j j j j j j j j j j j j j j j j j j j j j j j j j j j j j j j j j j j j r 3 t.",
"p.o j j j j j j j j j j j j j j j j j j j j j j j j j j j j j j j j j j j j j j j j j j j j j j j j j j j j j j j j j j j r 3 t.",
"p.o a j j j j j j j j j j j j j j j j j j j j j j j j j j j j j j j j j j j j j j j j j j j j j j j j j j j j j j j j j j r 3 t.",
"p.* u j j j j j j j j j j j j j j j j j j j j j j j j j j j j j j j j j j j j j j j j j j j j j j j j j j j j j j j j j j t < t.",
"p.# . j j j j j j j j j j j j j j j j j j j j j j j j j j j j j j j j j j j j j j j j j j j j j j j j j j j j j j j j j j p % t.",
"p.r., h j j j j j j j j j j j j j j j j j j j j j j j j j j j j j j j j j j j j j j j j j j j j j j j j j j j j j j j j g X r.t.",
"p.y.a.2 R f j j j j j j j j j j j j j j j j j j j j j j j j j j j j j j j j j j j j j j j j j j j j j j j j j j j j d t   ; p.t.",
"p.p.y.d.= + o o o o o o o o o o o o o o o o o o o o o o o o o o o o o o o o o o o o o o o o o o o o o o o o o o o o O & $ u.p.t.",
"p.p.p.p.p.p.p.p.p.p.p.p.p.p.p.p.p.p.p.p.p.p.p.p.p.p.p.p.p.p.p.p.p.p.p.p.p.p.p.p.p.p.p.p.p.p.p.p.p.p.p.p.p.p.p.p.p.p.p.p.p.p.p.t."
};
