/* XPM */
static char *result[] = {
/* columns rows colors chars-per-pixel */
"64 64 213 2 ",
"   c #8B2EBF",
".  c #8B3EB7",
"X  c #8C3EB7",
"o  c #8B37BA",
"O  c #8B30BE",
"+  c #8C6F9B",
"@  c #8C6B9E",
"#  c #8C6A9F",
"$  c #8C7797",
"%  c #8C7B95",
"&  c #8C7D94",
"*  c #8C7C95",
"=  c #8C7E94",
"-  c #8C709B",
";  c #8C729A",
":  c #8C7798",
">  c #8B4FAD",
",  c #8C4EAE",
"<  c #8C5DA5",
"1  c #8C5EA5",
"2  c #8C5DA6",
"3  c #8C53AB",
"4  c #8B50AD",
"5  c #8C61A3",
"6  c #8C62A2",
"7  c #8C63A2",
"8  c #8C62A3",
"9  c #8C63A3",
"0  c #8C65A1",
"q  c #8C64A2",
"w  c #8C60A4",
"e  c #8B68A0",
"r  c #8C68A0",
"t  c #8B1FC7",
"y  c #8B17CB",
"u  c #8B13CD",
"i  c #8B12CF",
"p  c #8B15CC",
"a  c #8B16CC",
"s  c #8B18CB",
"d  c #8B1ACA",
"f  c #8B01D7",
"g  c #8B03D6",
"h  c #8B02D7",
"j  c #8B07D4",
"k  c #8B06D5",
"l  c #8B04D6",
"z  c #8B00D8",
"x  c #8B01D8",
"c  c #8C02D8",
"v  c #8D04D9",
"b  c #8D05D9",
"n  c #8E06D9",
"m  c #8E07D9",
"M  c #8F09D9",
"N  c #8F0AD9",
"B  c #8F0ADA",
"V  c #900ADA",
"C  c #900BDA",
"Z  c #910CDA",
"A  c #910DDA",
"S  c #910EDA",
"D  c #920EDA",
"F  c #920FDA",
"G  c #9312DB",
"H  c #9413DB",
"J  c #9414DB",
"K  c #9415DB",
"L  c #9515DB",
"P  c #9617DC",
"I  c #9719DC",
"U  c #971BDC",
"Y  c #981DDC",
"T  c #991EDD",
"R  c #8B26C3",
"E  c #8B29C2",
"W  c #9920DD",
"Q  c #9A20DD",
"!  c #9A21DD",
"~  c #9B24DE",
"^  c #9C26DE",
"/  c #9D27DE",
"(  c #9E2BDF",
")  c #9F2BDF",
"_  c #A02EDF",
"`  c #A130DF",
"'  c #A131E0",
"]  c #A233E0",
"[  c #A335E0",
"{  c #A336E0",
"}  c #A63BE1",
"|  c #A73DE1",
" . c #A83FE2",
".. c #A840E2",
"X. c #A941E2",
"o. c #AB46E3",
"O. c #AC48E3",
"+. c #AD4BE4",
"@. c #AE4CE4",
"#. c #AE4DE4",
"$. c #AF4FE4",
"%. c #B051E4",
"&. c #B153E5",
"*. c #B255E5",
"=. c #B357E5",
"-. c #B358E6",
";. c #B65FE7",
":. c #B761E7",
">. c #B964E7",
",. c #BA67E8",
"<. c #BB6AE8",
"1. c #BD6EE9",
"2. c #BD6FE9",
"3. c #BE6FE9",
"4. c #BE70E9",
"5. c #BF72E9",
"6. c #BF73EA",
"7. c #C075EA",
"8. c #C177EA",
"9. c #C278EA",
"0. c #C279EB",
"q. c #C57FEB",
"w. c #8C868F",
"e. c #8B8B8B",
"r. c #8C8B8C",
"t. c #8C8B8D",
"y. c #8C888E",
"u. c gray55",
"i. c #8C8391",
"p. c #8C8192",
"a. c #8C8490",
"s. c #8C8590",
"d. c #C580EC",
"f. c #C783EC",
"g. c #C886ED",
"h. c #C988ED",
"j. c #CB8CED",
"k. c #CB8EEE",
"l. c #CC8EEE",
"z. c #CC8FEE",
"x. c #CC90EE",
"c. c #CD91EE",
"v. c #CE93EF",
"b. c #CE94EF",
"n. c #CF96EF",
"m. c #D098EF",
"M. c #D29DF0",
"N. c #D4A0F1",
"B. c #D5A3F1",
"V. c #D7A6F1",
"C. c #D8A9F2",
"Z. c #DAADF2",
"A. c #DAAEF3",
"S. c #DCB2F3",
"D. c #DDB4F3",
"F. c #DEB7F4",
"G. c #E0BAF5",
"H. c #E0BBF5",
"J. c #E1BDF5",
"K. c #E1BEF5",
"L. c #E2BFF5",
"P. c #E2C0F5",
"I. c #E4C3F6",
"U. c #E4C4F6",
"Y. c #E4C5F6",
"T. c #E5C6F6",
"R. c #E6C8F7",
"E. c #E6C9F7",
"W. c #E7CBF7",
"Q. c #E8CCF7",
"!. c #EAD0F8",
"~. c #ECD5F9",
"^. c #ECD6F9",
"/. c #EDD7F9",
"(. c #EDD8F9",
"). c #EED9F9",
"_. c #EEDAF9",
"`. c #EFDCFA",
"'. c #EFDDFA",
"]. c #F1DFFA",
"[. c #F1E0FA",
"{. c #F3E4FB",
"}. c #F3E5FB",
"|. c #F4E6FB",
" X c #F4E7FB",
".X c #F4E8FB",
"XX c #F5E9FC",
"oX c #F5EAFC",
"OX c #F6EBFC",
"+X c #F6ECFC",
"@X c #F7EEFC",
"#X c #F8EFFC",
"$X c #F8EFFD",
"%X c #F8F0FD",
"&X c #F8F1FD",
"*X c #F9F1FD",
"=X c #F9F2FD",
"-X c #F9F3FD",
";X c #FAF3FD",
":X c #FAF4FD",
">X c #FAF5FD",
",X c #FBF6FE",
"<X c #FBF7FE",
"1X c #FCF8FE",
"2X c #FCF9FE",
"3X c #FDFAFE",
"4X c #FDFBFE",
"5X c #FDFCFE",
"6X c #FEFCFF",
"7X c #FEFDFF",
"8X c #FEFEFF",
"9X c #FFFEFF",
"0X c white",
/* pixels */
"e.u.u.u.u.u.u.u.u.u.u.u.u.u.u.u.u.u.u.u.u.u.u.u.u.u.u.u.u.u.u.u.u.u.u.u.u.u.u.u.u.u.u.u.u.u.u.u.u.u.u.u.u.u.u.u.u.u.u.u.u.u.u.u.",
"e.u.t.% @ q 8 8 8 8 8 8 8 8 8 8 8 8 8 8 8 8 8 8 8 8 8 8 8 8 8 8 8 8 8 8 8 8 8 8 8 8 8 8 8 8 8 8 8 8 8 8 8 8 8 8 8 8 0 - i.t.u.u.",
"e.u.; . u g z z z z z z z z z z z z z z z z z z z z z z z z z z z z z z z z z z z z z z z z z z z z z z z z z z z z k t > * t.u.",
"e.w.o j z z z z z z z z z z z z z z z z z z z z z z z z z z z z z z z z z z z z z z z z z z z z z z z z z z z z z z z z j 3 a.u.",
"e.; t z z z z z z z z z z z z z z z z z z z z z z z z z z z z z z z z z z z z z z z z z z z z z z z z z z z z z z z z z z O : u.",
"e.w y z z z z z z z z z z z z z z z z z z z z z z z z z z z z z z z z z z z z z z z z z z z z z z z z z z z z z z z z z z i # u.",
"e.2 a z z z z z z z z z z z z z z z z z z z z z z z z z z z z z z z z z z z z z z z z z z z z z z z z z z z z z z z z z z f 7 u.",
"e.2 a z z z z z z z z z z z z z z z z z z z z z z z z z z z z z z z z z z z z z z z z z z z z z z z z z z z z z z z z z z z 8 u.",
"e.2 a z z z z z z z z z z z z z z z z z z z z z z z z z z z z z z z z z z z z z z z z z z z z z z z z z z z z z z z z z z z 8 u.",
"e.2 a z z z z z z z z z z z z z z z z z z z z z z z z z z z z z z z z z z z z z z z z z z z z z z z z z z z z z z z z z z z 8 u.",
"e.2 a z z z z z z z z z z z z z z z z z z z z z z z z z z z z z z z z z z z z z z z z z z z z z z z z z z z z z z z z z z z 8 u.",
"e.2 a z z z z z z z z z z z z z z z z z z z z z z z z z z z z z z z z z z z z z z z z z z z z z z z z z z z z z z z z z z z 8 u.",
"e.2 a z z z z z z z z z z z z z z z z z z z z z z z z z z z z z z z z z z z z z z z z z z z z z z z z z z z z z z z z z z z 8 u.",
"e.2 a z z z z z z z z z z z z z z z z z z z z z z z z z z z z z z z z z z z z z z z z z z z z z z z z z z z z z z z z z z z 8 u.",
"e.2 a z z z z z z z z z z z z z z z z z z z z z z z z z z z z z z z z z z z z z z z z z z z z z z z z z z z z z z z z z z z 8 u.",
"e.2 a z z z z z z z z z z z z z z z z z z z z z z z z z z z z z z z z z z z z z z z z z z z z z z z z z z z z z z z z z z z 8 u.",
"e.2 a z z z z z z z z z z z z z z z z z z z z z z z z z z z z z z z z z z z z z z z z z z z z z z z z z z z z z z z z z z z 8 u.",
"e.2 a z z z z z z z z z z z z z z z z z z z z z z z z z z z z z z z z z z z z z z z z z z z z z z z z z z z z z z z z z z z 8 u.",
"e.2 a z z z z z z z z z z z z z z z z z z z z z z z z z z z z z z z z z z z z z z z z z z z z z z z z z z z z z z z z z z z 8 u.",
"e.2 a z z z z z z z z z z z z z z z z z z z +.n.V.V.V.9.I z z z z z z z z z z z z z z z z z z z z z z z z z z z z z z z z z 8 u.",
"e.2 a z z z z z z z z z z z z z z z z z z z 6.|.0X0X0XY.) z z z z z z z z z z z z z z z z z z z z z z z z z z z z z z z z z 8 u.",
"e.2 a z z z z z z z z z z z z z z z z z z z 6.|.0X0X0X(.' z z z z z z z z z z z z z z z z z z z z z z z z z z z z z z z z z 8 u.",
"e.2 a z z z z z z z z z z z z z z z z z z z 6.|.0X0X0X}.o.b z z z z z z z z z z z z z z z z z z z z z z z z z z z z z z z z 8 u.",
"e.2 a z z z z z z z z z z z z v 7.:.H z z z 6.|.0X0X0X X2.G z z z z z z z z z z z z z z z z z z z z z z z z z z z z z z z z 8 u.",
"e.2 a z z z z z z z z z z z z C L._.1.H z z 6.|.0X0X0X XM.! z z z z z z z z z z z z z z z z z z z z z z z z z z z z z z z z 8 u.",
"e.2 a z z z z z z z z z z z z S T.0X`.1.H z 6.|.0X0X0X XQ.` z z z z z z z z z z z z z z z z z z z z z z z z z z z z z z z z 8 u.",
"e.2 a z z z z z z z z z z z z S T.0X0X`.1.H 6.|.0X0X0XOX$X=.F c z z z z z z z z z z z z z z z z z z z z z z z z z z z z z z 8 u.",
"e.2 a z z z z z z z z z z z z S T.0X0X0X`.1.g.|.0X0X0X:X5XW.A.N.c.d.4.;.$. ._ T A c z z z z z z z z z z z z z z z z z z z z 8 u.",
"e.2 a z z z z z z z z z z z z S T.0X0X0X0X`.K.@X0X0X0X2X5X:X{.'.~.Q.I.G.S.C.N.m.z.h.f.q.:.L z z z z z z z z z z z z z z z z 8 u.",
"e.2 a z z z z z z z z z z z z S T.0X0X0X0X0X&X3X0X0X0X7X8X2X*X#X#X#X#X#X#X#X#X#X#X@X+XoXR.%.C z z z z z z z z z z z z z z z 8 u.",
"e.2 a z z z z z z z z z z z z S T.0X0X0X0X0X0X0X0X0X0X0X0X0X0X0X0X0X0X0X0X0X0X0X0X0X0X0X{.J.} b z z z z z z z z z z z z z z 8 u.",
"e.2 a z z z z z z z z z z z z F H.&X&X&X&X&X<X8X0X0X0X0X0X0X0X0X0X0X0X0X0X0X0X0X0X0X0X0X].).x.Y z z z z z z z z z z z z z z 8 u.",
"e.2 a z z z z z z z z z z z z S P.<X<X<X<X<X4X9X0X0X0X0X0X0X0X0X0X0X0X0X0X0X0X0X0X0X0X0X{.XXk.U z z z z z z z z z z z z z z 8 u.",
"e.2 a z z z z z z z z z z z z S T.0X0X0X0X0X0X0X0X0X0X0X0X0X0X0X0X0X0X0X0X0X0X0X0X0X0X0X XD.| m z z z z z z z z z z z z z z 8 u.",
"e.2 a z z z z z z z z z z z z S T.0X0X0X0X0X4X8X0X0X0X5X<X>X;X-X-X-X-X-X-X-X-X-X-X-X=X%XE.#.V z z z z z z z z z z z z z z z 8 u.",
"e.2 a z z z z z z z z z z z z S T.0X0X0X0X,X!.*X0X0X0X2X2X3X2X1X1X1X=X[.Q.F.B.l.0.>.*.%...D z z z z z z z z z z z z z z z z 8 u.",
"e.2 a z z z z z z z z z z z z S T.0X0X0X>Xx.v..X0X0X0X,X6X/.Z.b.q.<.-.@.X.{ ) Q K B c z z z z z z z z z z z z z z z z z z z 8 u.",
"e.2 a z z z z z z z z z z z z S T.0X0X>Xz./ 8.|.0X0X0X+X>X3._ W J M c z z z z z z z z z z z z z z z z z z z z z z z z z z z 8 u.",
"e.2 a z z z z z z z z z z z z S T.0X>Xz./ v 6.|.0X0X0X X^.[ x z z z z z z z z z z z z z z z z z z z z z z z z z z z z z z z 8 u.",
"e.2 a z z z z z z z z z z z z S T.:Xk./ v z 6.|.0X0X0X XV.~ z z z z z z z z z z z z z z z z z z z z z z z z z z z z z z z z 8 u.",
"e.2 a z z z z z z z z z z z z n j.q.^ v z z 6.|.0X0X0X X7.J z z z z z z z z z z z z z z z z z z z z z z z z z z z z z z z z 8 u.",
"e.2 a z z z z z z z z z z z z x ^ P v z z z 6.|.0X0X0X}.O.n z z z z z z z z z z z z z z z z z z z z z z z z z z z z z z z z 8 u.",
"e.2 a z z z z z z z z z z z z z z z z z z z 6.|.0X0X0X(.] x z z z z z z z z z z z z z z z z z z z z z z z z z z z z z z z z 8 u.",
"e.2 a z z z z z z z z z z z z z z z z z z z 6.|.0X0X0XU.( z z z z z z z z z z z z z z z z z z z z z z z z z z z z z z z z z 8 u.",
"e.2 a z z z z z z z z z z z z z z z z z z z ] ,.5.5.5.&.G z z z z z z z z z z z z z z z z z z z z z z z z z z z z z z z z z 8 u.",
"e.2 a z z z z z z z z z z z z z z z z z z z n Z S S S N c z z z z z z z z z z z z z z z z z z z z z z z z z z z z z z z z z 8 u.",
"e.2 a z z z z z z z z z z z z z z z z z z z z z z z z z z z z z z z z z z z z z z z z z z z z z z z z z z z z z z z z z z z 8 u.",
"e.2 a z z z z z z z z z z z z z z z z z z z z z z z z z z z z z z z z z z z z z z z z z z z z z z z z z z z z z z z z z z z 8 u.",
"e.2 a z z z z z z z z z z z z z z z z z z z z z z z z z z z z z z z z z z z z z z z z z z z z z z z z z z z z z z z z z z z 8 u.",
"e.2 a z z z z z z z z z z z z z z z z z z z z z z z z z z z z z z z z z z z z z z z z z z z z z z z z z z z z z z z z z z z 8 u.",
"e.2 a z z z z z z z z z z z z z z z z z z z z z z z z z z z z z z z z z z z z z z z z z z z z z z z z z z z z z z z z z z z 8 u.",
"e.2 a z z z z z z z z z z z z z z z z z z z z z z z z z z z z z z z z z z z z z z z z z z z z z z z z z z z z z z z z z z z 8 u.",
"e.2 a z z z z z z z z z z z z z z z z z z z z z z z z z z z z z z z z z z z z z z z z z z z z z z z z z z z z z z z z z z z 8 u.",
"e.2 a z z z z z z z z z z z z z z z z z z z z z z z z z z z z z z z z z z z z z z z z z z z z z z z z z z z z z z z z z z z 8 u.",
"e.2 a z z z z z z z z z z z z z z z z z z z z z z z z z z z z z z z z z z z z z z z z z z z z z z z z z z z z z z z z z z z 8 u.",
"e.2 a z z z z z z z z z z z z z z z z z z z z z z z z z z z z z z z z z z z z z z z z z z z z z z z z z z z z z z z z z z z 8 u.",
"e.2 a z z z z z z z z z z z z z z z z z z z z z z z z z z z z z z z z z z z z z z z z z z z z z z z z z z z z z z z z z z z 9 u.",
"e.1 a z z z z z z z z z z z z z z z z z z z z z z z z z z z z z z z z z z z z z z z z z z z z z z z z z z z z z z z z z z j 0 u.",
"e.e d z z z z z z z z z z z z z z z z z z z z z z z z z z z z z z z z z z z z z z z z z z z z z z z z z z z z z z z z z z t + u.",
"e.= E h z z z z z z z z z z z z z z z z z z z z z z z z z z z z z z z z z z z z z z z z z z z z z z z z z z z z z z z z z X & u.",
"e.t., p h z z z z z z z z z z z z z z z z z z z z z z z z z z z z z z z z z z z z z z z z z z z z z z z z z z z z z z l s 5 y.u.",
"e.u.i.4 R s a a a a a a a a a a a a a a a a a a a a a a a a a a a a a a a a a a a a a a a a a a a a a a a a a a a a d   5 s.u.u.",
"e.u.u.r.$ 6 < 2 2 2 2 2 2 2 2 2 2 2 2 2 2 2 2 2 2 2 2 2 2 2 2 2 2 2 2 2 2 2 2 2 2 2 2 2 2 2 2 2 2 2 2 2 2 2 2 2 2 < r p.r.u.u.u.",
"u.e.e.e.e.e.e.e.e.e.e.e.e.e.e.e.e.e.e.e.e.e.e.e.e.e.e.e.e.e.e.e.e.e.e.e.e.e.e.e.e.e.e.e.e.e.e.e.e.e.e.e.e.e.e.e.e.e.e.e.e.e.e.e."
};
