/* XPM */
static char *result[] = {
/* columns rows colors chars-per-pixel */
"64 64 236 2 ",
"   c #00943D",
".  c #01943D",
"X  c #01943E",
"o  c #01953E",
"O  c #02953E",
"+  c #02953F",
"@  c #03953F",
"#  c #039540",
"$  c #069541",
"%  c #079541",
"&  c #049640",
"*  c #059640",
"=  c #059641",
"-  c #079542",
";  c #069742",
":  c #079742",
">  c #079743",
",  c #089542",
"<  c #089543",
"1  c #0A9543",
"2  c #0A9544",
"3  c #0D9646",
"4  c #0E9646",
"5  c #0F9647",
"6  c #099844",
"7  c #0B9945",
"8  c #0C9946",
"9  c #0E9A48",
"0  c #0F9A48",
"q  c #0F9A49",
"w  c #109647",
"e  c #109648",
"r  c #119648",
"t  c #139749",
"y  c #13964A",
"u  c #14974A",
"i  c #16974B",
"p  c #109B49",
"a  c #119B4A",
"s  c #129C4B",
"d  c #139C4C",
"f  c #149C4C",
"g  c #149D4C",
"h  c #159D4D",
"j  c #189E4F",
"k  c #189E50",
"l  c #199E50",
"z  c #329B5D",
"x  c #1CA052",
"c  c #1DA053",
"v  c #1EA054",
"b  c #1FA155",
"n  c #20A155",
"m  c #22A257",
"M  c #23A257",
"N  c #24A358",
"B  c #27A45B",
"V  c #28A55B",
"C  c #2AA55D",
"Z  c #2AA65D",
"A  c #2BA65E",
"S  c #2CA65E",
"D  c #30A862",
"F  c #32A963",
"G  c #34AA64",
"H  c #35AA66",
"J  c #39AC68",
"K  c #3BAD6A",
"L  c #3CAD6A",
"P  c #3DAE6B",
"I  c #3EAE6C",
"U  c #3FAE6D",
"Y  c #3FAF6D",
"T  c #4B9E6E",
"R  c #4C9E6D",
"E  c #549F73",
"W  c #559F74",
"Q  c #579F75",
"!  c #41AF6E",
"~  c #41AF6F",
"^  c #42B06F",
"/  c #57A075",
"(  c #43B070",
")  c #45B172",
"_  c #46B172",
"`  c #47B273",
"'  c #48B274",
"]  c #50B67A",
"[  c #51B67B",
"{  c #52B67B",
"}  c #52B67C",
"|  c #53B77C",
" . c #54B77D",
".. c #55B87E",
"X. c #5ABA81",
"o. c #5DBB84",
"O. c #5EBB84",
"+. c #62BD87",
"@. c #62BD88",
"#. c #63BD88",
"$. c #64BE89",
"%. c #65BE8A",
"&. c #6FC392",
"*. c #70C392",
"=. c #71C493",
"-. c #72C494",
";. c #78C698",
":. c #79C799",
">. c #7AC79A",
",. c #7CC89C",
"<. c #7EC99D",
"1. c #8EA798",
"2. c #9BA8A1",
"3. c #9CA8A2",
"4. c #9DA9A2",
"5. c #9EA9A2",
"6. c #A0AAA3",
"7. c #A1ABA5",
"8. c #A3AAA6",
"9. c #A4AAA6",
"0. c #A4AAA7",
"q. c #A5AAA7",
"w. c #A4ABA7",
"e. c #A9ABAA",
"r. c #AAAAAA",
"t. c #AAABAA",
"y. c gray67",
"u. c #ACACAC",
"i. c #80CA9E",
"p. c #81CA9F",
"a. c #82CAA0",
"s. c #82CBA0",
"d. c #83CBA0",
"f. c #84CBA1",
"g. c #85CCA2",
"h. c #86CCA3",
"j. c #87CDA4",
"k. c #88CDA5",
"l. c #8ACEA6",
"z. c #8BCEA7",
"x. c #8CCFA7",
"c. c #8CCFA8",
"v. c #8DCFA8",
"b. c #91D1AB",
"n. c #91D1AC",
"m. c #92D1AC",
"M. c #93D2AD",
"N. c #99D4B1",
"B. c #99D4B2",
"V. c #9ED6B5",
"C. c #9FD7B6",
"Z. c #A0D7B7",
"A. c #A1D8B8",
"S. c #A5D9BA",
"D. c #A9DBBD",
"F. c #A9DBBE",
"G. c #ABDCBF",
"H. c #AEDDC2",
"J. c #AFDEC2",
"K. c #B1DEC4",
"L. c #B2DFC5",
"P. c #B3DFC5",
"I. c #B5E0C7",
"U. c #B8E1C9",
"Y. c #B9E1C9",
"T. c #BBE3CB",
"R. c #BCE3CC",
"E. c #BDE3CD",
"W. c #BEE4CE",
"Q. c #BFE4CE",
"!. c #C0E4CF",
"~. c #C2E6D1",
"^. c #C4E6D2",
"/. c #C6E7D4",
"(. c #C7E7D4",
"). c #C7E8D5",
"_. c #C9E8D6",
"`. c #CFEBDB",
"'. c #D0EBDC",
"]. c #D1ECDC",
"[. c #D3EDDE",
"{. c #D5EDDF",
"}. c #D6EEE0",
"|. c #D7EEE1",
" X c #D8EEE1",
".X c #D8EFE1",
"XX c #DAF0E3",
"oX c #DCF0E4",
"OX c #DCF0E5",
"+X c #DEF1E6",
"@X c #DFF2E7",
"#X c #E1F2E8",
"$X c #E1F3E8",
"%X c #E1F3E9",
"&X c #E2F3E9",
"*X c #E3F3EA",
"=X c #E4F4EA",
"-X c #E4F4EB",
";X c #E6F4EC",
":X c #E6F5EC",
">X c #E7F5ED",
",X c #E8F5EE",
"<X c #E9F6EF",
"1X c #EAF6EF",
"2X c #EBF6EF",
"3X c #EBF6F0",
"4X c #EBF7F0",
"5X c #ECF7F0",
"6X c #ECF7F1",
"7X c #EDF7F1",
"8X c #EDF8F1",
"9X c #EDF8F2",
"0X c #EEF8F2",
"qX c #EFF8F2",
"wX c #EFF8F3",
"eX c #F0F9F3",
"rX c #F0F9F4",
"tX c #F1F9F4",
"yX c #F2F9F5",
"uX c #F2FAF5",
"iX c #F3FAF6",
"pX c #F4FAF7",
"aX c #F4FBF7",
"sX c #F5FBF7",
"dX c #F5FBF8",
"fX c #F6FBF8",
"gX c #F7FCF9",
"hX c #F8FCFA",
"jX c #F9FCFA",
"kX c #F9FDFB",
"lX c #FAFDFB",
"zX c #FBFDFC",
"xX c #FCFEFD",
"cX c #FDFEFD",
"vX c #FEFFFE",
"bX c white",
/* pixels */
"r.y.y.y.t.t.t.t.t.t.t.t.t.t.t.t.t.t.t.t.t.t.t.t.t.t.t.t.t.t.t.t.t.t.t.t.t.t.t.t.t.t.t.t.t.t.t.t.t.t.t.t.t.t.t.t.t.t.t.t.y.y.y.u.",
"y.0.E y 3 3 3 3 3 3 3 3 3 3 3 3 3 3 3 3 3 3 3 3 3 3 3 3 3 3 3 3 3 3 3 3 3 3 3 3 3 3 3 3 3 3 3 3 3 3 3 3 4 4 4 4 4 4 4 4 t T 9.y.",
"8.W $ .                                                                                                                 . 2 R y.",
"3.r                                                                                                                       . u y.",
"2.,                                                                                                                         w y.",
"2.-                                                                                                                         e y.",
"2.-                                                                                                                         e y.",
"2.-                                                                                                                         e y.",
"2.-                                                                                                                         e y.",
"2.-                                                                                                                         e y.",
"2.-                                                                                                                         e y.",
"2.-                                                                                                                         e y.",
"2.-                                                                                                                         e y.",
"2.-                                                                                                                         e y.",
"2.-                                                   @                                                                     e y.",
"2.-                                       S c.V.V.V.V.Z.h                                                                   e y.",
"2.-                                       >.0XbXbXbXbX&XK *                                                                 e y.",
"2.-                                       v.iXbXbXbXbX].;.9                                                                 e y.",
"2.-                                       g.yXbXbXbXbX].Q.k                                                                 e y.",
"2.-                                       g.yXbXbXbXbX].7XU =                                                               e y.",
"2.-                                       g.yXbXbXbXbX].hXp.9                                                               e y.",
"2.-                                       g.yXbXbXbXbX].hX).l                                                               e y.",
"2.-                   F n.%.p .           g.yXbXbXbXbX].hXpX! =                                                             e y.",
"2.-                   $.7XoXh.A &         g.yXbXbXbXbX].hXbXd.9                                                             e y.",
"2.-                   &.qXbX1XH.' >       g.yXbXbXbXbX].hXbX_.l                                                             e y.",
"2.-                   &.qXbXbXjX_.#.7     g.yXbXbXbXbX].hXbXsX^ =                                                           e y.",
"2.-                   &.qXbXbXbXbX X,.m @ g.yXbXbXbXbX.XkXbXbXG.O.) G M a O                                                 e y.",
"2.-                   &.qXbXbXbXbXbX:XS.Y x.yXbXbXbXbXoXlXbXbXuX}._.W.P.D.C.m.s.-.@.} ^ F m s +                             e y.",
"2.-                   &.qXbXbXbXbXbXbXfX^.Y.fXbXbXbXbXoXlXbXbXbXbXbXbXbXbXbXgX0X-XXX'.(.E.P.F.f.^ >                         e y.",
"2.-                   &.qXbXbXbXbXbXbXbXbX0XxXbXbXbXbXoXlXbXbXbXbXbXbXbXbXbXbXbXbXbXbXbXbXbXbX0X(.+.7                       e y.",
"2.-                   &.qXbXbXbXbXbXbXbXbXbXbXbXbXbXbXoXlXbXbXbXbXbXbXbXbXbXbXbXbXbXbXbXbXbXbXbXbX|.:.j O                   e y.",
"2.-                   l.$X4X4X4X4X4X4X4X4XdXvXbXbXbXbX%XzXbXbXbXbXdXwX0X7X5X2X<X,X>X;X-X*X&X#X@X+XoX!.j.n +                 e y.",
"2.-                   *.-XiXiXiXiXiXiXiXiXkXvXbXbXbXbX@XlXbXbXbXbXjXfXsXpXiXiXyXtXrXeXwX0X8X6X4X2X<XQ.o.f o                 e y.",
"2.-                   ..3XbXbXbXbXbXbXbXbXbXbXbXbXbXbXoXlXbXbXbXbXbXbXbXbXbXbXbXbXbXbXbXbXbXbXbXbX^.| 8                     e y.",
"2.-                   ..3XbXbXbXbXbXbXbXbX4XxXbXbXbXbXoXlXbXbXbXbXbXbXbXbXbXbXbXbXbXbXbXbXbXbXtXU.` :                       e y.",
"2.-                   ..3XbXbXbXbXbXbXbXI.K.sXbXbXbXbXoXlXbXbXbXbXbXbXbXbXbXpX=X[.~.L.A.b.i.&.X.H ;                         e y.",
"2.-                   ..3XbXbXbXbXbXwXN.J z.yXbXbXbXbXoXlXbXbXwXT.S.M.a.*.@.X.] _ L F V c d 6 X                             e y.",
"2.-                   ..3XbXbXbXbX{.=.N # g.yXbXbXbXbX{.jXbXbXV.U C b g 6 X                                                 e y.",
"2.-                   ..3XbXbXbXR.{ p X   g.yXbXbXbXbX].hXbXvX) =                                                           e y.",
"2.-                   ..3XbXfXA.I ;       g.yXbXbXbXbX].hXbX].v .                                                           e y.",
"2.-                    .1XOX<.Z &         g.yXbXbXbXbX].hXbXl.p                                                             e y.",
"2.-                   b p.[ h O           g.yXbXbXbXbX].hXcX( =                                                             e y.",
"2.-                     k &               g.yXbXbXbXbX].hX`.c                                                               e y.",
"2.-                                       g.yXbXbXbXbX].hXk.q                                                               e y.",
"2.-                                       g.yXbXbXbXbX].aX~ =                                                               e y.",
"2.-                                       g.yXbXbXbXbX]./.x                                                                 e y.",
"2.-                                       g.yXbXbXbXbX].i.0                                                                 e y.",
"2.-                                       -.wXbXbXbXbX9XP *                                                                 e y.",
"2.-                                       B j.N.B.B.B.J.k                                                                   e y.",
"2.-                                         x m m m m D ;                                                                   e y.",
"2.-                                                                                                                         5 y.",
"2.-                                                                                                                         5 y.",
"2.-                                                                                                                         5 y.",
"2.-                                                                                                                         5 y.",
"2.-                                                                                                                         5 y.",
"2.-                                                                                                                         5 y.",
"2.-                                                                                                                         5 y.",
"2.-                                                                                                                         5 y.",
"2.-                                                                                                                         5 y.",
"2.-                                                                                                                         5 y.",
"2.1                                                                                                                       X i y.",
"6.z                                                                                                                       % / y.",
"e.1.z 2 , , , , , , , , , , , , , , , , , , , , , , , , , , , , , , , , , , , , , , , , , , , , , , , , , , , , , , , < t Q q.y.",
"y.e.7.4.4.4.4.4.4.4.4.4.4.4.4.4.4.4.4.4.4.4.4.4.4.4.4.4.4.4.4.4.4.4.4.4.4.4.4.4.4.4.4.4.4.4.4.4.4.4.4.4.4.4.4.4.4.4.4.4.5.w.y.u."
};
