/* XPM */
static char *result[] = {
/* columns rows colors chars-per-pixel */
"64 64 232 2 ",
"   c #ACACAC",
".  c gray67",
"X  c #A4AAA6",
"o  c #4C9E6D",
"O  c #14974A",
"+  c #109647",
"@  c #109648",
"#  c #0F9647",
"$  c #16974B",
"%  c #57A075",
"&  c #A5AAA7",
"*  c #4B9E6E",
"=  c #0A9544",
"-  c #01943D",
";  c #00943D",
":  c #01943E",
">  c #079541",
",  c #579F75",
"<  c #A4ABA7",
"1  c #139749",
"2  c #9EA9A2",
"3  c #AAABAA",
"4  c #0E9646",
"5  c #089543",
"6  c #9DA9A2",
"7  c #089542",
"8  c #0D9646",
"9  c #169D4D",
"0  c #85CCA2",
"q  c #85CCA3",
"w  c #23A358",
"e  c #72C494",
"r  c #E0F2E7",
"t  c #ECF7F1",
"y  c #70C392",
"u  c #129C4B",
"i  c #159D4D",
"p  c #B1DEC4",
"a  c #FBFDFC",
"s  c white",
"d  c #CBE9D7",
"f  c #37AB67",
"g  c #67BF8C",
"h  c #DEF1E6",
"j  c #F8FCF9",
"k  c #80CA9E",
"l  c #189E4F",
"z  c #1A9F51",
"x  c #B0DEC3",
"c  c #FAFDFB",
"v  c #DAEFE3",
"b  c #45B172",
"n  c #039540",
"m  c #5EBB85",
"M  c #DAF0E3",
"N  c #93D2AD",
"B  c #1FA155",
"V  c #21A256",
"C  c #F8FCFA",
"Z  c #EAF6EF",
"A  c #5BBA83",
"S  c #0A9845",
"D  c #63BE88",
"F  c #DDF1E5",
"G  c #A8DABD",
"H  c #28A55B",
"J  c #27A45B",
"K  c #B3DFC5",
"L  c #F9FCFA",
"P  c #EFF8F2",
"I  c #6DC290",
"U  c #119B4A",
"Y  c #069742",
"T  c #2DA75F",
"R  c #95D3AF",
"E  c #EBF6EF",
"W  c #D1ECDC",
"Q  c #64BE89",
"!  c #02953F",
"~  c #4DB477",
"^  c #7AC79A",
"/  c #A9DBBD",
"(  c #CCEAD8",
")  c #EDF7F1",
"_  c #FDFEFD",
"`  c #BEE4CE",
"'  c #91D1AC",
"]  c #62BD87",
"[  c #32A963",
"{  c #0B9945",
"}  c #199E50",
"|  c #43B070",
" . c #71C393",
".. c #9ED6B5",
"X. c #C5E7D3",
"o. c #E8F5EE",
"O. c #F6FBF8",
"+. c #FEFEFE",
"@. c #F0F9F3",
"#. c #E1F2E8",
"$. c #D2ECDD",
"%. c #ADDDC1",
"&. c #7EC99D",
"*. c #4FB579",
"=. c #059641",
"-. c #39AC68",
";. c #89CEA6",
":. c #C0E5CF",
">. c #D7EEE1",
",. c #E5F4EB",
"<. c #F3FAF6",
"1. c #F7FCF9",
"2. c #DBF0E3",
"3. c #C7E8D5",
"4. c #98D4B0",
"5. c #38AC68",
"6. c #079742",
"7. c #76C697",
"8. c #FCFEFD",
"9. c #F1F9F4",
"0. c #6FC392",
"q. c #4BB476",
"w. c #CEEADA",
"e. c #FDFEFE",
"r. c #45B171",
"t. c #0E9A47",
"y. c #54B77D",
"u. c #C8E8D6",
"i. c #CDEAD9",
"p. c #0C9946",
"a. c #49B375",
"s. c #BDE3CD",
"d. c #CAE9D6",
"f. c #51B67B",
"g. c #099844",
"h. c #3FAF6D",
"j. c #B2DFC5",
"k. c #F4FAF7",
"l. c #C6E7D4",
"z. c #0B9946",
"x. c #35AA66",
"c. c #A7DABC",
"v. c #C2E6D1",
"b. c #4CB477",
"n. c #2BA65E",
"m. c #9CD6B4",
"M. c #EEF8F2",
"N. c #BFE4CE",
"B. c #03953F",
"V. c #9AD4B2",
"C. c #50B67A",
"Z. c #0A9844",
"A. c #DCF0E4",
"S. c #A2D8B9",
"D. c #25A459",
"F. c #6CC18F",
"G. c #E0F2E8",
"H. c #8ACEA6",
"J. c #84CCA2",
"K. c #EBF7F0",
"L. c #95D3AE",
"P. c #F7FBF9",
"I. c #AADCBF",
"U. c #29A55C",
"Y. c #B2DEC4",
"T. c #BFE4CF",
"R. c #20A155",
"E. c #D4EDDE",
"W. c #3CAD6A",
"Q. c #E9F6EF",
"!. c #52B77C",
"~. c #D5EDDF",
"^. c #C1E5D0",
"/. c #75C596",
"(. c #B8E1C9",
"). c #F2F9F5",
"_. c #01953E",
"`. c #D7EEE0",
"'. c #86CCA3",
"]. c #149D4C",
"[. c #7BC89A",
"{. c #DBF0E4",
"}. c #63BD88",
"|. c #A6DABB",
" X c #48B273",
".X c #179E4E",
"XX c #049640",
"oX c #A1D7B7",
"OX c #78C698",
"+X c #C4E6D2",
"@X c #65BF8A",
"#X c #26A45A",
"$X c #079743",
"%X c #089743",
"&X c #68C08C",
"*X c #8DCFA8",
"=X c #1CA052",
"-X c #97D3B0",
";X c #F4FAF6",
":X c #8BCEA7",
">X c #3AAC69",
",X c #0E9A48",
"<X c #02953E",
"1X c #109B49",
"2X c #35AA65",
"3X c #89CEA5",
"4X c #E4F4EB",
"5X c #A2D8B8",
"6X c #44B171",
"7X c #6AC08D",
"8X c #40AF6D",
"9X c #57B97F",
"0X c #8FD0AA",
"qX c #0F9A48",
"wX c #1A9F50",
"eX c #13964A",
"rX c #549F73",
"tX c #069541",
"yX c #329B5D",
"uX c #A1ABA5",
"iX c #A4AAA7",
"pX c #559F74",
"aX c #119648",
"sX c #079542",
"dX c #0A9543",
"fX c #8EA798",
"gX c #A9ABAA",
"hX c #AAAAAA",
"jX c #A3AAA6",
"kX c #9CA8A2",
"lX c #9BA8A1",
"zX c #A0AAA3",
/* pixels */
"  . . . . . . . . . . . . . . . . . . . . . . . . . . . . . . . . . . . . . . . . . . . . . . . . . . . . . . . . . . . . . .   ",
". X o O + @ @ @ @ @ @ @ @ @ @ @ @ @ @ @ @ @ @ @ @ @ @ @ @ @ @ @ @ @ @ @ @ @ @ @ @ @ @ @ @ @ @ @ @ @ # # # # # # # # # # $ % & . ",
". * = - ; ; ; ; ; ; ; ; ; ; ; ; ; ; ; ; ; ; ; ; ; ; ; ; ; ; ; ; ; ; ; ; ; ; ; ; ; ; ; ; ; ; ; ; ; ; ; ; ; ; ; ; ; ; ; ; : > , < ",
". 1 - ; ; ; ; ; ; ; ; ; ; ; ; ; ; ; ; ; ; ; ; ; ; ; ; ; ; ; ; ; ; ; ; ; ; ; ; ; ; ; ; ; ; ; ; ; ; ; ; ; ; ; ; ; ; ; ; ; ; ; 1 2 ",
"3 4 ; ; ; ; ; ; ; ; ; ; ; ; ; ; ; ; ; ; ; ; ; ; ; ; ; ; ; ; ; ; ; ; ; ; ; ; ; ; ; ; ; ; ; ; ; ; ; ; ; ; ; ; ; ; ; ; ; ; ; ; 5 6 ",
"3 4 ; ; ; ; ; ; ; ; ; ; ; ; ; ; ; ; ; ; ; ; ; ; ; ; ; ; ; ; ; ; ; ; ; ; ; ; ; ; ; ; ; ; ; ; ; ; ; ; ; ; ; ; ; ; ; ; ; ; ; ; 7 6 ",
"3 4 ; ; ; ; ; ; ; ; ; ; ; ; ; ; ; ; ; ; ; ; ; ; ; ; ; ; ; ; ; ; ; ; ; ; ; ; ; ; ; ; ; ; ; ; ; ; ; ; ; ; ; ; ; ; ; ; ; ; ; ; 7 6 ",
"3 4 ; ; ; ; ; ; ; ; ; ; ; ; ; ; ; ; ; ; ; ; ; ; ; ; ; ; ; ; ; ; ; ; ; ; ; ; ; ; ; ; ; ; ; ; ; ; ; ; ; ; ; ; ; ; ; ; ; ; ; ; 7 6 ",
"3 4 ; ; ; ; ; ; ; ; ; ; ; ; ; ; ; ; ; ; ; ; ; ; ; ; ; ; ; ; ; ; ; ; ; ; ; ; ; ; ; ; ; ; ; ; ; ; ; ; ; ; ; ; ; ; ; ; ; ; ; ; 7 6 ",
"3 4 ; ; ; ; ; ; ; ; ; ; ; ; ; ; ; ; ; ; ; ; ; ; ; ; ; ; ; ; ; ; ; ; ; ; ; ; ; ; ; ; ; ; ; ; ; ; ; ; ; ; ; ; ; ; ; ; ; ; ; ; 7 6 ",
"3 4 ; ; ; ; ; ; ; ; ; ; ; ; ; ; ; ; ; ; ; ; ; ; ; ; ; ; ; ; ; ; ; ; ; ; ; ; ; ; ; ; ; ; ; ; ; ; ; ; ; ; ; ; ; ; ; ; ; ; ; ; 7 6 ",
"3 4 ; ; ; ; ; ; ; ; ; ; ; ; ; ; ; ; ; ; ; ; ; ; ; ; ; ; ; ; ; ; ; ; ; ; ; ; ; ; ; ; ; ; ; ; ; ; ; ; ; ; ; ; ; ; ; ; ; ; ; ; 7 6 ",
"3 8 ; ; ; ; ; ; ; ; ; ; ; ; ; ; ; ; ; ; ; ; ; ; ; ; ; ; ; ; ; ; ; ; ; ; ; ; ; ; ; ; ; ; ; ; ; ; ; ; ; ; ; ; ; ; ; ; ; ; ; ; 7 6 ",
"3 8 ; ; ; ; ; ; ; ; ; ; ; ; ; ; ; ; ; ; ; ; ; ; ; ; ; ; ; ; ; ; ; ; ; ; ; ; ; ; ; ; ; ; ; ; ; ; ; ; ; ; ; ; ; ; ; ; ; ; ; ; 7 6 ",
"3 8 ; ; ; ; ; ; ; ; ; ; ; ; ; ; ; ; ; ; ; ; ; ; ; ; ; ; ; ; ; ; ; ; ; ; ; ; ; ; ; ; ; ; ; ; ; ; ; ; ; ; ; ; ; ; ; ; ; ; ; ; 7 6 ",
"3 8 ; ; ; ; ; ; ; ; ; ; ; ; ; ; ; ; ; ; ; ; ; ; ; ; ; ; ; ; 9 0 q w ; ; ; ; ; ; ; ; ; ; ; ; ; ; ; ; ; ; ; ; ; ; ; ; ; ; ; ; 7 6 ",
"3 8 ; ; ; ; ; ; ; ; ; ; ; ; ; ; ; ; ; ; ; ; ; ; ; ; ; ; ; ; e r t y u ; ; ; ; ; ; ; ; ; ; ; ; ; ; ; ; ; ; ; ; ; ; ; ; ; ; ; 7 6 ",
"3 8 ; ; ; ; ; ; ; ; ; ; ; ; ; ; ; ; ; ; ; ; ; ; ; ; ; ; ; i p a s d f ; ; ; ; ; ; ; ; ; ; ; ; ; ; ; ; ; ; ; ; ; ; ; ; ; ; ; 7 6 ",
"3 8 ; ; ; ; ; ; ; ; ; ; ; ; ; ; ; ; ; ; ; ; ; ; ; ; ; ; ; g h s s j k l ; ; ; ; ; ; ; ; ; ; ; ; ; ; ; ; ; ; ; ; ; ; ; ; ; ; 7 6 ",
"3 8 ; ; ; ; ; ; ; ; ; ; ; ; ; ; ; ; ; ; ; ; ; ; ; ; ; ; z x c s s s v b n ; ; ; ; ; ; ; ; ; ; ; ; ; ; ; ; ; ; ; ; ; ; ; ; ; 7 6 ",
"3 8 ; ; ; ; ; ; ; ; ; ; ; ; ; ; ; ; ; ; ; ; ; ; ; ; ; ; m M s s s s a N B ; ; ; ; ; ; ; ; ; ; ; ; ; ; ; ; ; ; ; ; ; ; ; ; ; 7 6 ",
"3 8 ; ; ; ; ; ; ; ; ; ; ; ; ; ; ; ; ; ; ; ; ; ; ; ; ; V x C s s s s s Z A S ; ; ; ; ; ; ; ; ; ; ; ; ; ; ; ; ; ; ; ; ; ; ; ; 7 6 ",
"3 8 ; ; ; ; ; ; ; ; ; ; ; ; ; ; ; ; ; ; ; ; ; ; ; ; ; D F s s s s s s s G H ; ; ; ; ; ; ; ; ; ; ; ; ; ; ; ; ; ; ; ; ; ; ; ; 7 6 ",
"3 8 ; ; ; ; ; ; ; ; ; ; ; ; ; ; ; ; ; ; ; ; ; ; ; ; J K L s s s s s s s P I U ; ; ; ; ; ; ; ; ; ; ; ; ; ; ; ; ; ; ; ; ; ; ; 7 6 ",
"3 8 ; ; ; ; ; ; ; ; ; ; ; ; ; ; ; ; ; ; ; ; ; ; Y T R E s s s s s s s s s W Q l ! ; ; ; ; ; ; ; ; ; ; ; ; ; ; ; ; ; ; ; ; ; 7 6 ",
"3 8 ; ; ; ; ; ; ; ; ; ; ; ; ; ; ; ; ; ; ; B ~ ^ / ( ) _ s s s s s s s s s c r ` ' ] [ { ; ; ; ; ; ; ; ; ; ; ; ; ; ; ; ; ; ; 7 6 ",
"3 8 ; ; ; ; ; ; ; ; ; ; ; ; ; ; ; } |  ...X.M o.O.+.s s s s s s s s s s s s s a @.#.$.%.&.*.B =.; ; ; ; ; ; ; ; ; ; ; ; ; ; 7 6 ",
"3 8 ; ; ; ; ; ; ; ; ; ; ; ; ; -.;.:.>.,.<._ s s s s s s s s s s s s s s s s s s s s s 1.Z 2.3.4.5.6.; ; ; ; ; ; ; ; ; ; ; ; 7 6 ",
"3 8 ; ; ; ; ; ; ; ; ; ; ; ; ; 7.h 8.s s s s s s s s s s s s s s s s s s s s s s s s s s s s +.9.0.U ; ; ; ; ; ; ; ; ; ; ; ; 7 6 ",
"3 8 ; ; ; ; ; ; ; ; ; ; ; ; ; q.w.e.s s s s s s s s s s s s s s s s s s s s s s s s s s s s s W r.=.; ; ; ; ; ; ; ; ; ; ; ; 7 6 ",
"3 8 ; ; ; ; ; ; ; ; ; ; ; ; ; t.y.u.c s s s s s s s s s s s s s s s s s s s s s s s s s s s i.y.p.; ; ; ; ; ; ; ; ; ; ; ; ; 7 6 ",
"3 8 ; ; ; ; ; ; ; ; ; ; ; ; ; ; p.a.s.1.s s s s s s s s s s s s s s s s s s s s s s s s s d.f.p.; ; ; ; ; ; ; ; ; ; ; ; ; ; 7 6 ",
"3 8 ; ; ; ; ; ; ; ; ; ; ; ; ; ; ; g.h.j.k.s s s s s s s s s s s s s s s s s s s s s s s l.*.z.; ; ; ; ; ; ; ; ; ; ; ; ; ; ; 7 6 ",
"3 8 ; ; ; ; ; ; ; ; ; ; ; ; ; ; ; ; 6.x.c.9.s s s s s s s s s s s s s s s s s s s s s v.b.{ ; ; ; ; ; ; ; ; ; ; ; ; ; ; ; ; 7 6 ",
"3 8 ; ; ; ; ; ; ; ; ; ; ; ; ; ; ; ; ; =.n.m.M.s s s s s s s s s s s s s s s s s s s N.a.S ; ; ; ; ; ; ; ; ; ; ; ; ; ; ; ; ; 7 6 ",
"3 8 ; ; ; ; ; ; ; ; ; ; ; ; ; ; ; ; ; ; B.V V.M.s s s s s s s s s s s s s s s s s $.C.Z.; ; ; ; ; ; ; ; ; ; ; ; ; ; ; ; ; ; 7 6 ",
"3 8 ; ; ; ; ; ; ; ; ; ; ; ; ; ; ; ; ; ; ; ; ] A.s s s s s s s s s s s s s s s s s S.D.; ; ; ; ; ; ; ; ; ; ; ; ; ; ; ; ; ; ; 7 6 ",
"3 8 ; ; ; ; ; ; ; ; ; ; ; ; ; ; ; ; ; ; ; ; F.G.s s s s s s s s s s s s s s s s s H.z ; ; ; ; ; ; ; ; ; ; ; ; ; ; ; ; ; ; ; 7 6 ",
"3 8 ; ; ; ; ; ; ; ; ; ; ; ; ; ; ; ; ; ; ; ; J.K.s s s s s s s s s s s s s s s s s L.B ; ; ; ; ; ; ; ; ; ; ; ; ; ; ; ; ; ; ; 7 6 ",
"3 8 ; ; ; ; ; ; ; ; ; ; ; ; ; ; ; ; ; ; ; ; ..P.s s s s s s s s s s s s s s s s s I.U.; ; ; ; ; ; ; ; ; ; ; ; ; ; ; ; ; ; ; 7 6 ",
"3 8 ; ; ; ; ; ; ; ; ; ; ; ; ; ; ; ; ; ; ; Z.Y.+.s s s s s s s s s s s s s s s s s T.[ ; ; ; ; ; ; ; ; ; ; ; ; ; ; ; ; ; ; ; 7 6 ",
"3 8 ; ; ; ; ; ; ; ; ; ; ; ; ; ; ; ; ; ; ; R.N.s s s s s s s s s s s s s s s s s s E.W.; ; ; ; ; ; ; ; ; ; ; ; ; ; ; ; ; ; ; 7 6 ",
"3 8 ; ; ; ; ; ; ; ; ; ; ; ; ; ; ; ; ; ; ; -.d.s s s s s s s s s s s s s s s s s s Q.b ; ; ; ; ; ; ; ; ; ; ; ; ; ; ; ; ; ; ; 7 6 ",
"3 8 ; ; ; ; ; ; ; ; ; ; ; ; ; ; ; ; ; ; ; !.~.s s s s s s s ^.&./.(.).s s s s s s a C._.; ; ; ; ; ; ; ; ; ; ; ; ; ; ; ; ; ; 7 6 ",
"3 8 ; ; ; ; ; ; ; ; ; ; ; ; ; ; ; ; ; ; ; F.G.s s s s s `.'.f ].U H [.{._ s s s s s }.g.; ; ; ; ; ; ; ; ; ; ; ; ; ; ; ; ; ; 7 6 ",
"3 8 ; ; ; ; ; ; ; ; ; ; ; ; ; ; ; ; ; ; ; J.K.s s s ) |. X.XXX; ; - i q.oXK.s s s s OXu ; ; ; ; ; ; ; ; ; ; ; ; ; ; ; ; ; ; 7 6 ",
"3 8 ; ; ; ; ; ; ; ; ; ; ; ; ; ; ; ; ; ; ; ..P.s s +X@X#X$X; ; ; ; ; ; %XB &XX.O.s s *X=X; ; ; ; ; ; ; ; ; ; ; ; ; ; ; ; ; ; 7 6 ",
"3 8 ; ; ; ; ; ; ; ; ; ; ; ; ; ; ; ; ; ; ; -X;Xv :X>X,X<X; ; ; ; ; ; ; ; ; 1X2X3X4Xs 5XD.; ; ; ; ; ; ; ; ; ; ; ; ; ; ; ; ; ; 7 6 ",
"3 8 ; ; ; ; ; ; ; ; ; ; ; ; ; ; ; ; ; ; ; 6X7X8Xl =.; ; ; ; ; ; ; ; ; ; ; ; n } 9X0Xb g.; ; ; ; ; ; ; ; ; ; ; ; ; ; ; ; ; ; 7 6 ",
"3 8 ; ; ; ; ; ; ; ; ; ; ; ; ; ; ; ; ; ; ; S qX=.; ; ; ; ; ; ; ; ; ; ; ; ; ; ; ; { wXg.; ; ; ; ; ; ; ; ; ; ; ; ; ; ; ; ; ; ; 7 6 ",
"3 8 ; ; ; ; ; ; ; ; ; ; ; ; ; ; ; ; ; ; ; ; ; ; ; ; ; ; ; ; ; ; ; ; ; ; ; ; ; ; ; ; ; ; ; ; ; ; ; ; ; ; ; ; ; ; ; ; ; ; ; ; 7 6 ",
"3 8 ; ; ; ; ; ; ; ; ; ; ; ; ; ; ; ; ; ; ; ; ; ; ; ; ; ; ; ; ; ; ; ; ; ; ; ; ; ; ; ; ; ; ; ; ; ; ; ; ; ; ; ; ; ; ; ; ; ; ; ; 7 6 ",
"3 8 ; ; ; ; ; ; ; ; ; ; ; ; ; ; ; ; ; ; ; ; ; ; ; ; ; ; ; ; ; ; ; ; ; ; ; ; ; ; ; ; ; ; ; ; ; ; ; ; ; ; ; ; ; ; ; ; ; ; ; ; 7 6 ",
"3 8 ; ; ; ; ; ; ; ; ; ; ; ; ; ; ; ; ; ; ; ; ; ; ; ; ; ; ; ; ; ; ; ; ; ; ; ; ; ; ; ; ; ; ; ; ; ; ; ; ; ; ; ; ; ; ; ; ; ; ; ; 7 6 ",
"3 8 ; ; ; ; ; ; ; ; ; ; ; ; ; ; ; ; ; ; ; ; ; ; ; ; ; ; ; ; ; ; ; ; ; ; ; ; ; ; ; ; ; ; ; ; ; ; ; ; ; ; ; ; ; ; ; ; ; ; ; ; 7 6 ",
"3 8 ; ; ; ; ; ; ; ; ; ; ; ; ; ; ; ; ; ; ; ; ; ; ; ; ; ; ; ; ; ; ; ; ; ; ; ; ; ; ; ; ; ; ; ; ; ; ; ; ; ; ; ; ; ; ; ; ; ; ; ; 7 6 ",
"3 8 ; ; ; ; ; ; ; ; ; ; ; ; ; ; ; ; ; ; ; ; ; ; ; ; ; ; ; ; ; ; ; ; ; ; ; ; ; ; ; ; ; ; ; ; ; ; ; ; ; ; ; ; ; ; ; ; ; ; ; ; 7 6 ",
"3 8 ; ; ; ; ; ; ; ; ; ; ; ; ; ; ; ; ; ; ; ; ; ; ; ; ; ; ; ; ; ; ; ; ; ; ; ; ; ; ; ; ; ; ; ; ; ; ; ; ; ; ; ; ; ; ; ; ; ; ; ; 7 6 ",
"3 8 ; ; ; ; ; ; ; ; ; ; ; ; ; ; ; ; ; ; ; ; ; ; ; ; ; ; ; ; ; ; ; ; ; ; ; ; ; ; ; ; ; ; ; ; ; ; ; ; ; ; ; ; ; ; ; ; ; ; ; ; 7 6 ",
"3 8 ; ; ; ; ; ; ; ; ; ; ; ; ; ; ; ; ; ; ; ; ; ; ; ; ; ; ; ; ; ; ; ; ; ; ; ; ; ; ; ; ; ; ; ; ; ; ; ; ; ; ; ; ; ; ; ; ; ; ; ; 7 6 ",
". eX- ; ; ; ; ; ; ; ; ; ; ; ; ; ; ; ; ; ; ; ; ; ; ; ; ; ; ; ; ; ; ; ; ; ; ; ; ; ; ; ; ; ; ; ; ; ; ; ; ; ; ; ; ; ; ; ; ; ; ; = 6 ",
". rXtX; ; ; ; ; ; ; ; ; ; ; ; ; ; ; ; ; ; ; ; ; ; ; ; ; ; ; ; ; ; ; ; ; ; ; ; ; ; ; ; ; ; ; ; ; ; ; ; ; ; ; ; ; ; ; ; ; ; ; yXuX",
". iXpXaX7 sXsXsXsXsXsXsXsXsXsXsXsXsXsXsXsXsXsXsXsXsXsXsXsXsXsXsXsXsXsXsXsXsXsXsXsXsXsXsXsXsXsXsXsXsXsXsXsXsXsXsXsXsXsXsXdXyXfXgX",
"hX. jXkXlXlXlXlXlXlXlXlXlXlXlXlXlXlXlXlXlXlXlXlXlXlXlXlXlXlXlXlXlXlXlXlXlXlXlXlXlXlXlXlXlXlXlXlXlXlXlXlXlXlXlXlXlXlXlXlXlXzXgX. "
};
