/* XPM */
static char *result[] = {
/* columns rows colors chars-per-pixel */
"64 64 211 2 ",
"   c #8C3CB7",
".  c #8B32BD",
"X  c #8B39B9",
"o  c #8C6A9E",
"O  c #8C6B9E",
"+  c #8C6C9D",
"@  c #8C6F9C",
"#  c #8C7E93",
"$  c #8C7F93",
"%  c #8C7897",
"&  c #8C7D94",
"*  c #8C7C95",
"=  c #8C7399",
"-  c #8C719B",
";  c #8C7598",
":  c #8C7599",
">  c #8C7698",
",  c #8B4BAF",
"<  c #8C59A7",
"1  c #8C5FA4",
"2  c #8C5EA5",
"3  c #8C5DA6",
"4  c #8B55AA",
"5  c #8C55AA",
"6  c #8C59A8",
"7  c #8B42B4",
"8  c #8C4BB0",
"9  c #8C63A2",
"0  c #8C62A3",
"q  c #8C63A3",
"w  c #8B67A0",
"e  c #8C65A1",
"r  c #8C60A4",
"t  c #8B1FC7",
"y  c #8B17CB",
"u  c #8B13CD",
"i  c #8B12CE",
"p  c #8B13CE",
"a  c #8B14CD",
"s  c #8B15CD",
"d  c #8B16CC",
"f  c #8B1ACA",
"g  c #8B1DC8",
"h  c #8B03D6",
"j  c #8B02D7",
"k  c #8B06D4",
"l  c #8B07D4",
"z  c #8B06D5",
"x  c #8B08D4",
"c  c #8B00D8",
"v  c #8B01D8",
"b  c #8C02D8",
"n  c #8D04D9",
"m  c #8D05D9",
"M  c #8E07D9",
"N  c #8F08D9",
"B  c #900ADA",
"V  c #900BDA",
"C  c #900CDA",
"Z  c #910CDA",
"A  c #910DDA",
"S  c #910EDA",
"D  c #920FDA",
"F  c #9210DA",
"G  c #9311DB",
"H  c #9312DB",
"J  c #9413DB",
"K  c #9414DB",
"L  c #9515DB",
"P  c #9617DC",
"I  c #9618DC",
"U  c #971BDC",
"Y  c #981CDC",
"T  c #8B27C3",
"R  c #8B21C6",
"E  c #8B22C6",
"W  c #8B28C2",
"Q  c #9A20DD",
"!  c #9C24DE",
"~  c #9C25DE",
"^  c #9E2ADE",
"/  c #9E2ADF",
"(  c #9E2BDF",
")  c #9F2BDF",
"_  c #9F2CDF",
"`  c #A02FDF",
"'  c #A131E0",
"]  c #A232E0",
"[  c #A233E0",
"{  c #A335E0",
"}  c #A436E0",
"|  c #A437E0",
" . c #A539E1",
".. c #A73EE2",
"X. c #A943E2",
"o. c #AA45E3",
"O. c #AC48E3",
"+. c #AD4AE3",
"@. c #AD4BE3",
"#. c #AD4BE4",
"$. c #AE4DE4",
"%. c #B153E5",
"&. c #B154E5",
"*. c #B357E5",
"=. c #B358E5",
"-. c #B358E6",
";. c #B359E6",
":. c #B55CE6",
">. c #B65EE6",
",. c #B761E7",
"<. c #B965E8",
"1. c #BA66E8",
"2. c #BA67E8",
"3. c #BC6BE8",
"4. c #BC6CE9",
"5. c #BD6EE9",
"6. c #BE70E9",
"7. c #BF72E9",
"8. c #BF73EA",
"9. c #C074EA",
"0. c #C176EA",
"q. c #C177EA",
"w. c #C178EA",
"e. c #C278EA",
"r. c #C47DEB",
"t. c #C47EEB",
"y. c #8C878F",
"u. c #8B8B8B",
"i. c #8C8B8C",
"p. c #8C8B8D",
"a. c gray55",
"s. c #8C8093",
"d. c #8C8292",
"f. c #8C8490",
"g. c #8C8590",
"h. c #C683EC",
"j. c #C784EC",
"k. c #C785EC",
"l. c #C988ED",
"z. c #CA89ED",
"x. c #CA8AED",
"c. c #CC8FEE",
"v. c #CD91EE",
"b. c #CE93EF",
"n. c #CF96EF",
"m. c #D097EF",
"M. c #D098EF",
"N. c #D199EF",
"B. c #D19BF0",
"V. c #D29DF0",
"C. c #D4A1F1",
"Z. c #D5A3F1",
"A. c #D8A9F2",
"S. c #DAADF2",
"D. c #DDB4F4",
"F. c #DEB6F4",
"G. c #DEB7F4",
"H. c #DFB9F4",
"J. c #E0BAF4",
"K. c #E0BBF5",
"L. c #E0BCF5",
"P. c #E1BEF5",
"I. c #E2BFF5",
"U. c #E3C1F6",
"Y. c #E4C3F6",
"T. c #E4C4F6",
"R. c #E4C5F6",
"E. c #E5C6F6",
"W. c #E7C9F7",
"Q. c #E8CCF7",
"!. c #E9CFF8",
"~. c #EBD4F8",
"^. c #ECD6F9",
"/. c #EDD7F9",
"(. c #EDD8F9",
"). c #EED9F9",
"_. c #EEDAF9",
"`. c #EEDBF9",
"'. c #F0DFFA",
"]. c #F1E0FA",
"[. c #F2E1FA",
"{. c #F2E3FB",
"}. c #F3E4FB",
"|. c #F3E5FB",
" X c #F4E6FB",
".X c #F4E7FB",
"XX c #F4E8FB",
"oX c #F5E9FC",
"OX c #F6EBFC",
"+X c #F6ECFC",
"@X c #F7EDFC",
"#X c #F7EEFC",
"$X c #F8EFFC",
"%X c #F9F1FD",
"&X c #F9F2FD",
"*X c #FAF3FD",
"=X c #FAF4FD",
"-X c #FAF5FD",
";X c #FBF5FE",
":X c #FBF6FE",
">X c #FBF7FE",
",X c #FCF8FE",
"<X c #FCF9FE",
"1X c #FDFAFE",
"2X c #FDFBFE",
"3X c #FDFCFE",
"4X c #FEFCFF",
"5X c #FEFDFF",
"6X c #FEFEFF",
"7X c #FFFEFF",
"8X c white",
/* pixels */
"a.a.a.a.a.a.a.a.a.a.a.a.a.a.a.a.a.a.a.a.a.a.a.a.a.a.a.a.a.a.a.a.a.a.a.a.a.a.a.a.a.a.a.a.a.a.a.a.a.a.a.a.a.a.a.a.a.a.a.a.a.a.a.u.",
"a.a.p.g.% o 9 0 0 0 0 0 0 0 0 0 0 0 0 0 0 0 0 0 0 0 0 0 0 0 0 0 0 0 0 0 0 0 0 0 0 0 0 0 0 0 0 0 0 0 0 0 0 0 0 0 q e @ * y.a.a.u.",
"a.i.$ 5 . p v c c c c c c c c c c c c c c c c c c c c c c c c c c c c c c c c c c c c c c c c c c c c c c c c c c z g   1 f.a.u.",
"a.f.4 x c c c c c c c c c c c c c c c c c c c c c c c c c c c c c c c c c c c c c c c c c c c c c c c c c c c c c c c c u 2 p.u.",
"a.: E c c c c c c c c c c c c c c c c c c c c c c c c c c c c c c c c c c c c c c c c c c c c c c c c c c c c c c c c c h W s.u.",
"a.+ k c c c c c c c c c c c c c c c c c c c c c c c c c c c c c c c c c c c c c c c c c c c c c c c c c c c c c c c c c c d e u.",
"a.o c c c c c c c c c c c c c c c c c c c c c c c c c c c c c c c c c c c c c c c c c c c c c c c c c c c c c c c c c c c i < u.",
"a.o c c c c c c c c c c c c c c c c c c c c c c c c c c c c c c c c c c c c c c c c c c c c c c c c c c c c c c c c c c c i 6 u.",
"a.o c c c c c c c c c c c c c c c c c c c c c c c c c c c c c c c c c c c c c c c c c c c c c c c c c c c c c c c c c c c i 6 u.",
"a.o c c c c c c c c c c c c c c c c c c c c c c c c c c c c c c c c c c c c c c c c c c c c c c c c c c c c c c c c c c c i 6 u.",
"a.o c c c c c c c c c c c c c c c c c c c c c c c c c c c c c c c c c c c c c c c c c c c c c c c c c c c c c c c c c c c i 6 u.",
"a.o c c c c c c c c c c c c c c c c c c c c c c c c c c c c c c c c c c c c c c c c c c c c c c c c c c c c c c c c c c c i 6 u.",
"a.o c c c c c c c c c c c c c c c c c c c c c c c c c c c c c c c c c c c c c c c c c c c c c c c c c c c c c c c c c c c i 6 u.",
"a.o c c c c c c c c c c c c c c c c c c c c c c c c c c c c c c c c c c c c c c c c c c c c c c c c c c c c c c c c c c c i 6 u.",
"a.o c c c c c c c c c c c c c c c c c c c c c c c c c c c c c c c c c c c c c c c c c c c c c c c c c c c c c c c c c c c i 6 u.",
"a.o c c c c c c c c c c c c c c c c c c c c c c c c c c c c c c c c c c c c c c c c c c c c c c c c c c c c c c c c c c c i 6 u.",
"a.o c c c c c c c c c c c c c c c c c c c c c c c c c c c c n U Y N c c c c c c c c c c c c c c c c c c c c c c c c c c c i 6 u.",
"a.o c c c c c c c c c c c c c c c c c c c c c c c c c c c B | x.v.X.C c c c c c c c c c c c c c c c c c c c c c c c c c c i 6 u.",
"a.o c c c c c c c c c c c c c c c c c c c c c c c c c c J $.F._..XH.%.G c c c c c c c c c c c c c c c c c c c c c c c c c i 6 u.",
"a.o c c c c c c c c c c c c c c c c c c c c c c c c c c ;.T.}.].{..XQ.+.c c c c c c c c c c c c c c c c c c c c c c c c c i 6 u.",
"a.o c c c c c c c c c c c c c c c c c c c c c c c c c c 9..X8X8X8X8X&X>.c c c c c c c c c c c c c c c c c c c c c c c c c i 6 u.",
"a.o c c c c c c c c c c c c c c c c c c c c c c c c c c e.oX8X8X8X8X*X,.b c c c c c c c c c c c c c c c c c c c c c c c c i 6 u.",
"a.o c c c c c c c c c c c c c c c c c c c c c c c c c b r.OX8X8X8X8X=X6.V c c c c c c c c c c c c c c c c c c c c c c c c i 6 u.",
"a.o c c c c c c c c c c c c c c c c c c c c c c c c c Z j.+X8X8X8X8X=Xh.I c c c c c c c c c c c c c c c c c c c c c c c c i 6 u.",
"a.o c c c c c c c c c c c c c c c c c c c c c c c c c Y c.+X8X8X8X8X=Xn.~ c c c c c c c c c c c c c c c c c c c c c c c c i 6 u.",
"a.o c c c c c c c c c c c c c c c c c c c c c c c c c / N.+X8X8X8X8X=XA.] c c c c c c c c c c c c c c c c c c c c c c c c i 6 u.",
"a.o c c c c c c c c c c c c c c c c c c c c c c c c c  .Z.+X8X8X8X8X=XK...c c c c c c c c c c c c c c c c c c c c c c c c i 6 u.",
"a.o c c c c c c c c c c c c c c c c c c c c c c c c c O.S.+X8X8X8X8X=X!.#.c c c c c c c c c c c c c c c c c c c c c c c c i 6 u.",
"a.o c c c c c c c c c c c c c c c c c c c c c c c c c *.G.+X8X8X8X8X=X[.=.c c c c c c c c c c c c c c c c c c c c c c c c i 6 u.",
"a.o c c c c c c c c c c c c c c c c c c c c c c c c c 1.U.+X8X8X8X8X=X%X<.b c c c c c c c c c c c c c c c c c c c c c c c i 6 u.",
"a.o c c c c c c c c c c c c c c c c c c c c c c c c c 0.Q.+X8X8X8X8X=X>Xq.V c c c c c c c c c c c c c c c c c c c c c c c i 6 u.",
"a.o c c c c c c c c c c c c c c c c c c c c c c c c c k.^.+X8X8X8X8X=X>Xx.I c c c c c c c c c c c c c c c c c c c c c c c i 6 u.",
"a.o c c c c c c c c c c c c c c c c c c c c c c c c b b.'.+X8X8X8X8X=X>XV.! c c c c c c c c c c c c c c c c c c c c c c c i 6 u.",
"a.o c c c c c c c c c c c c c c c c c c c c c c c c A C..X$X8X8X8X8X=X,XD.{ v c c c c c c c c c c c c c c c c c c c c c c i 6 u.",
"a.o c c c c c c c c c c c c c c c c c c c c m G Q ` &.Y.-X,X8X8X8X8X:X<X`.0.} ~ L M v c c c c c c c c c c c c c c c c c c i 6 u.",
"a.o c c c c c c c c c c c c c c c c c P ( ' o.4.B.W.@X2X3X5X8X8X8X8X,X<X4X:X(.A.w.@.[ ) K b c c c c c c c c c c c c c c c i 6 u.",
"a.o c c c c c c c c c c c c c c c c c 5.Y./.}..X.X.XOX=X<X5X8X8X8X8X4X<X:X@X.X.X.X|.).R.:.V c c c c c c c c c c c c c c c i 6 u.",
"a.o c c c c c c c c c c c c c c c c c M.8X8X8X8X8X8X8X8X8X8X8X8X8X8X8X8X8X8X8X8X8X8X8X8Xt.F c c c c c c c c c c c c c c c i 6 u.",
"a.o c c c c c c c c c c c c c c c c c M.8X8X8X8X8X8X8X8X8X8X8X8X8X8X8X8X8X8X8X8X8X8X8X8Xt.F c c c c c c c c c c c c c c c i 6 u.",
"a.o c c c c c c c c c c c c c c c c c M.8X8X8X8X8X8X8X8X8X8X8X8X8X8X8X8X8X8X8X8X8X8X8X8Xt.F c c c c c c c c c c c c c c c i 6 u.",
"a.o c c c c c c c c c c c c c c c c c z. X X X X X X X X@X1X8X6X7X8X6X&XXX X X X X X X X7.S c c c c c c c c c c c c c c c i 6 u.",
"a.o c c c c c c c c c c c c c c c c c o.8.8.8.8.8.8.8.k.J.#X8X,X1X8X2X~.m.w.8.8.8.8.8.8. .M c c c c c c c c c c c c c c c i 6 u.",
"a.o c c c c c c c c c c c c c c c c c c c c c c c c H 2.^.8X8X&X:X8X8X:XM._ n c c c c c c c c c c c c c c c c c c c c c c i 6 u.",
"a.o c c c c c c c c c c c c c c c c c c c c c c c H 2.^.8X8X8X&X:X8X8X8X:Xm.) n c c c c c c c c c c c c c c c c c c c c c i 6 u.",
"a.o c c c c c c c c c c c c c c c c c c c c c c H 2.^.8X8X8X8X&X:X8X8X8X8X:Xm.) n c c c c c c c c c c c c c c c c c c c c i 6 u.",
"a.o c c c c c c c c c c c c c c c c c c c c c H 2.^.8X8X8X8X8X&X:X8X8X8X8X8X;Xn.^ n c c c c c c c c c c c c c c c c c c c i 6 u.",
"a.o c c c c c c c c c c c c c c c c c c c c c -.~.8X8X8X8X8X8X&X:X8X8X8X8X8X8X-Xl.U c c c c c c c c c c c c c c c c c c c i 6 u.",
"a.o c c c c c c c c c c c c c c c c c c c c c 3.P.E.E.E.E.E.E.L.I.E.E.E.E.E.E.E.v._ c c c c c c c c c c c c c c c c c c c i 6 u.",
"a.o c c c c c c c c c c c c c c c c c c c c c n V S S S S S S D S S S S S S S S M v c c c c c c c c c c c c c c c c c c c i 6 u.",
"a.o c c c c c c c c c c c c c c c c c c c c c c c c c c c c c c c c c c c c c c c c c c c c c c c c c c c c c c c c c c c i 6 u.",
"a.o c c c c c c c c c c c c c c c c c c c c c c c c c c c c c c c c c c c c c c c c c c c c c c c c c c c c c c c c c c c i 6 u.",
"a.o c c c c c c c c c c c c c c c c c c c c c c c c c c c c c c c c c c c c c c c c c c c c c c c c c c c c c c c c c c c i 6 u.",
"a.o c c c c c c c c c c c c c c c c c c c c c c c c c c c c c c c c c c c c c c c c c c c c c c c c c c c c c c c c c c c i 6 u.",
"a.o c c c c c c c c c c c c c c c c c c c c c c c c c c c c c c c c c c c c c c c c c c c c c c c c c c c c c c c c c c c i 6 u.",
"a.o c c c c c c c c c c c c c c c c c c c c c c c c c c c c c c c c c c c c c c c c c c c c c c c c c c c c c c c c c c c i 6 u.",
"a.o c c c c c c c c c c c c c c c c c c c c c c c c c c c c c c c c c c c c c c c c c c c c c c c c c c c c c c c c c c c i 6 u.",
"a.o c c c c c c c c c c c c c c c c c c c c c c c c c c c c c c c c c c c c c c c c c c c c c c c c c c c c c c c c c c c i 6 u.",
"a.o c c c c c c c c c c c c c c c c c c c c c c c c c c c c c c c c c c c c c c c c c c c c c c c c c c c c c c c c c c c i < u.",
"a.O h c c c c c c c c c c c c c c c c c c c c c c c c c c c c c c c c c c c c c c c c c c c c c c c c c c c c c c c c c c a 1 u.",
"a.- s c c c c c c c c c c c c c c c c c c c c c c c c c c c c c c c c c c c c c c c c c c c c c c c c c c c c c c c c c j R ; u.",
"a.# 7 l c c c c c c c c c c c c c c c c c c c c c c c c c c c c c c c c c c c c c c c c c c c c c c c c c c c c c c c j p , i.u.",
"a.p.> X t y d d d d d d d d d d d d d d d d d d d d d d d d d d d d d d d d d d d d d d d d d d d d d d d d d d d d f T 8 d.a.u.",
"a.a.a.y.= r 3 3 3 3 3 3 3 3 3 3 3 3 3 3 3 3 3 3 3 3 3 3 3 3 3 3 3 3 3 3 3 3 3 3 3 3 3 3 3 3 3 3 3 3 3 3 3 3 3 3 3 2 w & p.a.a.u.",
"u.u.u.u.u.u.u.u.u.u.u.u.u.u.u.u.u.u.u.u.u.u.u.u.u.u.u.u.u.u.u.u.u.u.u.u.u.u.u.u.u.u.u.u.u.u.u.u.u.u.u.u.u.u.u.u.u.u.u.u.u.u.u.u."
};
