/* XPM */
static char *result[] = {
/* columns rows colors chars-per-pixel */
"64 64 28 1 ",
"  c #8B8B8B",
". c gray55",
"X c #8D8D8D",
"o c #8E8E8E",
"O c gray56",
"+ c #909090",
"@ c #929292",
"# c #939393",
"$ c gray58",
"% c #959595",
"& c gray59",
"* c #979797",
"= c #989898",
"- c gray60",
"; c #9A9A9A",
": c gray62",
"> c #A0A0A0",
", c gray64",
"< c gray65",
"1 c #A7A7A7",
"2 c gray66",
"3 c #A9A9A9",
"4 c #AAAAAA",
"5 c gray67",
"6 c #ACACAC",
"7 c #AFAFAF",
"8 c gray69",
"9 c #B1B1B1",
/* pixels */
"                                                                ",
"....O&----------------------------------------------------=#... ",
"..o*<5666666666666666666666666666666666666666666666666666663:O. ",
".X&6899999999999999999999999999999999999999999999999999999996:. ",
".+>99999999999999999999999999999999999999999999999999999999982+ ",
".@399999999999999999999999999999999999999999999999999999999995* ",
".$799999999999999999999999999999999999999999999999999999999996- ",
".%999999999999999999999999999999999999999999999999999999999996- ",
".%999999999999999999999999999999999999999999999999999999999996- ",
".%999999999999999999999999999999999999999999999999999999999996- ",
".%999999999999999999999999999999999999999999999999999999999996- ",
".%999999999999999999999999999999999999999999999999999999999996- ",
".%999999999999999999999999999999999999999999999999999999999996- ",
".%999999999999999999999999999999999999999999999999999999999996- ",
".%999999999999999999999999999999999999999999999999999999999996- ",
".%999999999999999999999999999999999999999999999999999999999996- ",
".%999999999999999999999999999999999999999999999999999999999996- ",
".%999999999999999999999999999999999999999999999999999999999996- ",
".%999999999999999999999999999999999999999999999999999999999996- ",
".%999999999999999999999999999999999999999999999999999999999996- ",
".%999999999999999999999999999999999999999999999999999999999996- ",
".%999999999999999999999999999999999999999999999999999999999996- ",
".%999999999999999999999999999999999999999999999999999999999996- ",
".%999999999999999999999999999999999999999999999999999999999996- ",
".%999999999999999999999999999999999999999999999999999999999996- ",
".%999999999999999999999999999999999999999999999999999999999996- ",
".%999999999999999999999999999999999999999999999999999999999996- ",
".%999999999999999999999999999999999999999999999999999999999996- ",
".%999999999999999999999999999999999999999999999999999999999996- ",
".%999999999999999999999999999999999999999999999999999999999996- ",
".%999999999999999999999999999999999999999999999999999999999996- ",
".%999999999999999999999999999999999999999999999999999999999996- ",
".%999999999999999999999999999999999999999999999999999999999996- ",
".%999999999999999999999999999999999999999999999999999999999996- ",
".%999999999999999999999999999999999999999999999999999999999996- ",
".%999999999999999999999999999999999999999999999999999999999996- ",
".%999999999999999999999999999999999999999999999999999999999996- ",
".%999999999999999999999999999999999999999999999999999999999996- ",
".%999999999999999999999999999999999999999999999999999999999996- ",
".%999999999999999999999999999999999999999999999999999999999996- ",
".%999999999999999999999999999999999999999999999999999999999996- ",
".%999999999999999999999999999999999999999999999999999999999996- ",
".%999999999999999999999999999999999999999999999999999999999996- ",
".%999999999999999999999999999999999999999999999999999999999996- ",
".%999999999999999999999999999999999999999999999999999999999996- ",
".%999999999999999999999999999999999999999999999999999999999996- ",
".%999999999999999999999999999999999999999999999999999999999996- ",
".%999999999999999999999999999999999999999999999999999999999996- ",
".%999999999999999999999999999999999999999999999999999999999996- ",
".%999999999999999999999999999999999999999999999999999999999996- ",
".%999999999999999999999999999999999999999999999999999999999996- ",
".%999999999999999999999999999999999999999999999999999999999996- ",
".%999999999999999999999999999999999999999999999999999999999996- ",
".%999999999999999999999999999999999999999999999999999999999996- ",
".%999999999999999999999999999999999999999999999999999999999996- ",
".%999999999999999999999999999999999999999999999999999999999996- ",
".%999999999999999999999999999999999999999999999999999999999996- ",
".%999999999999999999999999999999999999999999999999999999999996- ",
".#599999999999999999999999999999999999999999999999999999999996= ",
".+,99999999999999999999999999999999999999999999999999999999994# ",
".X-7999999999999999999999999999999999999999999999999999999997,X ",
"..O;17999999999999999999999999999999999999999999999999999986>@. ",
"...o@$%%%%%%%%%%%%%%%%%%%%%%%%%%%%%%%%%%%%%%%%%%%%%%%%%%%%%#+.. ",
"............................................................... "
};
